<svg id="Layer_1" data-name="Layer 1" xmlns="http://www.w3.org/2000/svg" viewBox="0 0 619.17 499.68"><defs><style>.cls-1{fill:#6cc1ec;}.cls-2{fill:#fff;}.cls-3{fill:#10487b;stroke:#10487b;stroke-miterlimit:10;}</style></defs><title>Cambio permanente</title><circle class="cls-1" cx="310.09" cy="218.5" r="218.5"/><path class="cls-2" d="M252,94.84a9.13,9.13,0,0,0-9,9.2v6.2H190.3a9.12,9.12,0,0,0-8.2,9.1v240a9.13,9.13,0,0,0,9.1,9.1H447.6a2.92,2.92,0,0,0,.9-.2,9.09,9.09,0,0,0,7.3-8.9v-240a9.13,9.13,0,0,0-9.1-9.1H395v-6.1a9.14,9.14,0,0,0-8.9-9.3h-.3a9.13,9.13,0,0,0-9,9.2v6.2H261.2v-6.1a9.14,9.14,0,0,0-8.9-9.3Zm-51.6,33.6H243v4.3a27.82,27.82,0,0,0-17.9,26.1c0,15.7,12.6,27.7,27,27.7s27-12,27-27.7a27.82,27.82,0,0,0-17.9-26.1v-4.3H376.7v4.3a27.82,27.82,0,0,0-17.9,26.1c0,15.7,12.6,27.7,27,27.7s27-12,27-27.7a27.82,27.82,0,0,0-17.9-26.1v-4.3h42.6v60.8H200.4Zm42.9,27.1a9.14,9.14,0,0,0,17.5,0,8,8,0,0,1,.8,3.3c0,4.5-3.8,8.7-9.5,8.7s-9.5-4.3-9.5-8.7A8.84,8.84,0,0,1,243.3,155.54Zm133.8,0a9.14,9.14,0,0,0,17.5,0,8,8,0,0,1,.8,3.3c0,4.5-3.8,8.7-9.5,8.7s-9.5-4.3-9.5-8.7A8.84,8.84,0,0,1,377.1,155.54Zm-176.7,51.9H437.6v142.8H200.4Zm17.3,3a9.12,9.12,0,0,0-8.2,9.1v48.6a9.13,9.13,0,0,0,9.1,9.1h48.7a9.13,9.13,0,0,0,9.1-9.1v-48.6a9.13,9.13,0,0,0-9.1-9.1H217.7Zm76,0a9.12,9.12,0,0,0-8.2,9.1v48.6a9.13,9.13,0,0,0,9.1,9.1h48.7a9.13,9.13,0,0,0,9.1-9.1v-48.6a9.13,9.13,0,0,0-9.1-9.1H293.7Zm76,0a9.12,9.12,0,0,0-8.2,9.1v48.6a9.13,9.13,0,0,0,9.1,9.1h48.7a9.13,9.13,0,0,0,9.1-9.1v-48.6a9.13,9.13,0,0,0-9.1-9.1H369.7Zm-141.9,18.3h30.4v30.4H227.8Zm76,0h30.4v30.4H303.8Zm76,0h30.4v30.4H379.8Zm-162.1,51.6a9.12,9.12,0,0,0-8.2,9.1V338a9.13,9.13,0,0,0,9.1,9.1h48.7a9.13,9.13,0,0,0,9.1-9.1v-48.6a9.13,9.13,0,0,0-9.1-9.1H217.7Zm76,0a9.12,9.12,0,0,0-8.2,9.1V338a9.13,9.13,0,0,0,9.1,9.1h48.7a9.13,9.13,0,0,0,9.1-9.1v-48.6a9.13,9.13,0,0,0-9.1-9.1H293.7Zm76,0a9.12,9.12,0,0,0-8.2,9.1V338a9.13,9.13,0,0,0,9.1,9.1h48.7a9.13,9.13,0,0,0,9.1-9.1v-48.6a9.13,9.13,0,0,0-9.1-9.1H369.7Zm-141.9,18.3h30.4V329H227.8Zm76,0h30.4V329H303.8Zm76,0h30.4V329H379.8Z" transform="translate(-5.91 -12.3)"/><path class="cls-3" d="M245.29,474.1a3.42,3.42,0,0,1,3.5-3.5H261c9.3,0,15.1,5.3,15.1,13.3v.1c0,8.9-7.2,13.6-15.9,13.6h-7.9v9.6a3.48,3.48,0,0,1-3.5,3.5,3.42,3.42,0,0,1-3.5-3.5Zm15.1,17.1c5.3,0,8.6-3,8.6-7.1V484c0-4.7-3.4-7.1-8.6-7.1h-8.1v14.3Z" transform="translate(-5.91 -12.3)"/><path class="cls-3" d="M280.39,506.8V474.1a3.42,3.42,0,0,1,3.5-3.5H307a3.12,3.12,0,0,1,3.1,3.1,3.05,3.05,0,0,1-3.1,3.1h-19.7v10.3h17.2a3.15,3.15,0,0,1,0,6.3h-17.1v10.7h19.9a3.12,3.12,0,0,1,3.1,3.1,3.05,3.05,0,0,1-3.1,3.1h-23.4A3.42,3.42,0,0,1,280.39,506.8Z" transform="translate(-5.91 -12.3)"/><path class="cls-3" d="M315.59,474.1a3.42,3.42,0,0,1,3.5-3.5h14.2c5,0,8.9,1.5,11.5,4a12.1,12.1,0,0,1,3.3,8.6v.1c0,6.4-3.7,10.2-9,11.9l7.6,9.6a4,4,0,0,1,1.1,2.7,3.27,3.27,0,0,1-3.4,3.2,3.91,3.91,0,0,1-3.4-1.8l-9.7-12.3h-8.8v10.7a3.48,3.48,0,0,1-3.5,3.5,3.42,3.42,0,0,1-3.5-3.5V474.1Zm17.2,16.2c5,0,8.2-2.6,8.2-6.6v-.1c0-4.3-3.1-6.6-8.2-6.6h-10.2v13.4h10.2Z" transform="translate(-5.91 -12.3)"/><path class="cls-3" d="M353.89,473.9a3.48,3.48,0,0,1,3.5-3.5h.7a3.54,3.54,0,0,1,3.2,1.9l12,18.9,12.1-18.9a3.5,3.5,0,0,1,3.2-1.8h.7a3.48,3.48,0,0,1,3.5,3.5v33.3a3.48,3.48,0,0,1-3.5,3.5,3.54,3.54,0,0,1-3.5-3.5V483.4l-9.7,14.6a3.37,3.37,0,0,1-3,1.8,3.46,3.46,0,0,1-2.9-1.8l-9.7-14.5v23.8a3.4,3.4,0,0,1-3.5,3.4,3.31,3.31,0,0,1-3.4-3.4V473.9Z" transform="translate(-5.91 -12.3)"/><path class="cls-3" d="M398.09,505.8l14.8-33a4.33,4.33,0,0,1,4.2-2.8h.3a4.24,4.24,0,0,1,4.1,2.8l14.8,33a2.82,2.82,0,0,1,.4,1.5,3.29,3.29,0,0,1-3.3,3.4,3.68,3.68,0,0,1-3.4-2.4l-3.2-7.4h-19.3l-3.4,7.7a3.43,3.43,0,0,1-3.2,2.2,3.16,3.16,0,0,1-3.2-3.2A2.83,2.83,0,0,1,398.09,505.8Zm26-11.3-7-16.1-7,16.1Z" transform="translate(-5.91 -12.3)"/><path class="cls-3" d="M441.39,473.9a3.48,3.48,0,0,1,3.5-3.5h.7a4.44,4.44,0,0,1,3.6,2l19.9,25.7V473.7a3.37,3.37,0,0,1,3.4-3.4,3.46,3.46,0,0,1,3.5,3.4v33.4a3.46,3.46,0,0,1-3.4,3.5h-.3a4.43,4.43,0,0,1-3.6-2.1L448.19,482v25.2a3.37,3.37,0,0,1-3.4,3.4,3.46,3.46,0,0,1-3.5-3.4V473.9Z" transform="translate(-5.91 -12.3)"/><path class="cls-3" d="M483.49,506.8V474.1a3.42,3.42,0,0,1,3.5-3.5h23.1a3.12,3.12,0,0,1,3.1,3.1,3.05,3.05,0,0,1-3.1,3.1h-19.6v10.3h17.1a3.15,3.15,0,0,1,0,6.3h-17.1v10.7h19.9a3.12,3.12,0,0,1,3.1,3.1,3.05,3.05,0,0,1-3.1,3.1H487A3.42,3.42,0,0,1,483.49,506.8Z" transform="translate(-5.91 -12.3)"/><path class="cls-3" d="M518.69,473.9a3.48,3.48,0,0,1,3.5-3.5h.7a4.44,4.44,0,0,1,3.6,2l19.9,25.7V473.7a3.37,3.37,0,0,1,3.4-3.4,3.46,3.46,0,0,1,3.5,3.4v33.4a3.46,3.46,0,0,1-3.4,3.5h-.3a4.43,4.43,0,0,1-3.6-2.1L525.49,482v25.2a3.37,3.37,0,0,1-3.4,3.4,3.46,3.46,0,0,1-3.5-3.4V473.9Z" transform="translate(-5.91 -12.3)"/><path class="cls-3" d="M570.49,477h-9.7a3.22,3.22,0,0,1-3.2-3.2,3.16,3.16,0,0,1,3.2-3.2h26.4a3.22,3.22,0,0,1,3.2,3.2,3.16,3.16,0,0,1-3.2,3.2h-9.7v30.1a3.54,3.54,0,0,1-3.5,3.5,3.48,3.48,0,0,1-3.5-3.5V477Z" transform="translate(-5.91 -12.3)"/><path class="cls-3" d="M594.69,506.8V474.1a3.42,3.42,0,0,1,3.5-3.5h23.1a3.12,3.12,0,0,1,3.1,3.1,3.05,3.05,0,0,1-3.1,3.1h-19.7v10.3h17.1a3.15,3.15,0,0,1,0,6.3h-17.1v10.7h19.9a3.12,3.12,0,0,1,3.1,3.1,3.05,3.05,0,0,1-3.1,3.1h-23.4A3.46,3.46,0,0,1,594.69,506.8Z" transform="translate(-5.91 -12.3)"/><path class="cls-3" d="M6.41,491v-.1c0-11.3,8.5-20.6,20.5-20.6a20.54,20.54,0,0,1,13.6,4.5,3.64,3.64,0,0,1,1.4,2.8,3.4,3.4,0,0,1-3.5,3.4,3.1,3.1,0,0,1-2.1-.7,14.51,14.51,0,0,0-9.5-3.6c-7.6,0-13.1,6.2-13.1,14v.1c0,7.8,5.5,14.1,13.1,14.1a14.35,14.35,0,0,0,9.9-3.8,3,3,0,0,1,2.1-.8,3.31,3.31,0,0,1,3.3,3.2A3.44,3.44,0,0,1,41,506a20.32,20.32,0,0,1-14.4,5.3C15.11,511.48,6.41,502.48,6.41,491Z" transform="translate(-5.91 -12.3)"/><path class="cls-3" d="M45,506.28l14.8-33a4.33,4.33,0,0,1,4.2-2.8h.3a4.24,4.24,0,0,1,4.1,2.8l14.8,33a2.82,2.82,0,0,1,.4,1.5,3.29,3.29,0,0,1-3.3,3.4,3.68,3.68,0,0,1-3.4-2.4l-3.2-7.4H54.41l-3.4,7.7a3.43,3.43,0,0,1-3.2,2.2,3.16,3.16,0,0,1-3.2-3.2A2.56,2.56,0,0,1,45,506.28ZM71,495l-7-16.1L57,495Z" transform="translate(-5.91 -12.3)"/><path class="cls-3" d="M88.41,474.28a3.48,3.48,0,0,1,3.5-3.5h.7a3.54,3.54,0,0,1,3.2,1.9l12,18.9,12.1-18.9a3.5,3.5,0,0,1,3.2-1.8h.7a3.48,3.48,0,0,1,3.5,3.5v33.3a3.48,3.48,0,0,1-3.5,3.5,3.54,3.54,0,0,1-3.5-3.5v-23.9l-9.7,14.6a3.37,3.37,0,0,1-3,1.8,3.46,3.46,0,0,1-2.9-1.8L95,483.88v23.8a3.4,3.4,0,0,1-3.5,3.4,3.31,3.31,0,0,1-3.4-3.4v-33.4Z" transform="translate(-5.91 -12.3)"/><path class="cls-3" d="M134.81,474.58a3.42,3.42,0,0,1,3.5-3.5h14.4c4.5,0,8.1,1.2,10.4,3.5a8.82,8.82,0,0,1,2.7,6.6v.1c0,4.8-2.7,7.3-5.7,8.9,4.7,1.6,7.9,4.3,7.9,9.7v.1c0,7.1-5.9,10.9-14.7,10.9h-14.9a3.42,3.42,0,0,1-3.5-3.5v-32.8Zm16.5,13.2c4.5,0,7.5-1.8,7.5-5.4v-.1c0-3.1-2.5-5.1-7-5.1h-10.1v10.6Zm2,16.8c4.8,0,7.7-1.9,7.7-5.5V499c0-3.4-2.7-5.3-8.2-5.3h-11.1v10.9Z" transform="translate(-5.91 -12.3)"/><path class="cls-3" d="M173.41,474.18a3.5,3.5,0,0,1,7,0v33.4a3.48,3.48,0,0,1-3.5,3.5,3.42,3.42,0,0,1-3.5-3.5Z" transform="translate(-5.91 -12.3)"/><path class="cls-3" d="M186.41,491v-.1a20.39,20.39,0,0,1,20.9-20.6c12.3,0,20.7,9.3,20.7,20.5v.1a20.8,20.8,0,0,1-41.6.1Zm34.3,0v-.1c0-7.7-5.6-14.1-13.5-14.1s-13.4,6.3-13.4,14v.1c0,7.7,5.6,14.1,13.5,14.1S220.71,498.78,220.71,491Z" transform="translate(-5.91 -12.3)"/></svg>