<?xml version="1.0" encoding="utf-8"?>
<!-- Generator: Adobe Illustrator 23.0.3, SVG Export Plug-In . SVG Version: 6.00 Build 0)  -->
<svg version="1.1" id="Layer_1" xmlns="http://www.w3.org/2000/svg" xmlns:xlink="http://www.w3.org/1999/xlink" x="0px" y="0px"
	 viewBox="0 0 632 515" style="enable-background:new 0 0 632 515;" xml:space="preserve">
<style type="text/css">
	.st0{fill:#10487B;stroke:#10487B;stroke-miterlimit:10;}
	.st1{fill:#6CC1EC;}
	.st2{fill:#FFFFFF;}
</style>
<g>
	<g>
		<path class="st0" d="M181.9,502.2v-32.7c0-2,1.5-3.5,3.5-3.5h23.1c1.7,0,3.1,1.4,3.1,3.1c0,1.8-1.4,3.1-3.1,3.1h-19.7v10.3H206
			c1.7,0,3.1,1.4,3.1,3.2c0,1.7-1.4,3.1-3.1,3.1h-17.1v10.7h19.9c1.7,0,3.1,1.4,3.1,3.1c0,1.8-1.4,3.1-3.1,3.1h-23.4
			C183.4,505.7,181.9,504.2,181.9,502.2z"/>
		<path class="st0" d="M228.6,503.5l-13.9-32.7c-0.2-0.5-0.4-1-0.4-1.6c0-1.9,1.5-3.4,3.5-3.4c1.8,0,3,1,3.6,2.5l11.5,28.7
			l11.6-28.9c0.5-1.2,1.7-2.3,3.4-2.3c1.9,0,3.5,1.5,3.5,3.4c0,0.5-0.2,1.1-0.3,1.5l-14,33c-0.7,1.8-2,2.8-4,2.8h-0.4
			C230.7,506.3,229.4,505.2,228.6,503.5z"/>
		<path class="st0" d="M255.9,502.2v-32.7c0-2,1.5-3.5,3.5-3.5h23.1c1.7,0,3.1,1.4,3.1,3.1c0,1.8-1.4,3.1-3.1,3.1h-19.7v10.3H280
			c1.7,0,3.1,1.4,3.1,3.2c0,1.7-1.4,3.1-3.1,3.1h-17.1v10.7h19.9c1.7,0,3.1,1.4,3.1,3.1c0,1.8-1.4,3.1-3.1,3.1h-23.4
			C257.4,505.7,255.9,504.2,255.9,502.2z"/>
		<path class="st0" d="M291.1,469.3c0-1.9,1.5-3.5,3.5-3.5h0.7c1.7,0,2.7,0.9,3.6,2l19.9,25.7v-24.4c0-1.9,1.5-3.4,3.4-3.4
			c1.9,0,3.5,1.5,3.5,3.4v33.4c0,1.9-1.5,3.5-3.4,3.5h-0.3c-1.6,0-2.7-0.9-3.6-2.1L298,477.4v25.2c0,1.9-1.5,3.4-3.4,3.4
			c-1.9,0-3.5-1.5-3.5-3.4V469.3z"/>
		<path class="st0" d="M343,472.5h-9.7c-1.8,0-3.2-1.5-3.2-3.2c0-1.8,1.4-3.2,3.2-3.2h26.4c1.8,0,3.2,1.5,3.2,3.2
			c0,1.8-1.4,3.2-3.2,3.2H350v30.1c0,1.9-1.6,3.5-3.5,3.5c-1.9,0-3.5-1.5-3.5-3.5V472.5z"/>
		<path class="st0" d="M365.4,486v-0.1c0-11.2,8.6-20.6,20.9-20.6s20.7,9.3,20.7,20.5v0.1c0,11.2-8.6,20.6-20.9,20.6
			C373.9,506.4,365.4,497.2,365.4,486z M399.7,486v-0.1c0-7.7-5.6-14.1-13.5-14.1c-7.9,0-13.4,6.3-13.4,14v0.1
			c0,7.7,5.6,14.1,13.5,14.1S399.7,493.7,399.7,486z"/>
		<path class="st0" d="M411.6,501.3c-0.8-0.6-1.4-1.5-1.4-2.7c0-1.8,1.5-3.2,3.3-3.2c1,0,1.6,0.3,2,0.6c3.3,2.6,6.8,4.1,11.1,4.1
			c4.3,0,7-2,7-5V495c0-2.8-1.6-4.4-9-6.1c-8.5-2-13.2-4.5-13.2-11.9v-0.1c0-6.8,5.7-11.5,13.6-11.5c5,0,9,1.3,12.6,3.7
			c0.8,0.5,1.5,1.4,1.5,2.8c0,1.8-1.5,3.2-3.3,3.2c-0.7,0-1.2-0.2-1.8-0.5c-3.1-2-6-3-9.1-3c-4.1,0-6.5,2.1-6.5,4.7v0.1
			c0,3.1,1.8,4.4,9.5,6.3c8.4,2,12.7,5.1,12.7,11.6v0.1c0,7.4-5.9,11.9-14.2,11.9C421.1,506.3,416,504.6,411.6,501.3z"/>
	</g>
</g>
<circle class="st1" cx="316" cy="231" r="218.5"/>
<g>
	<path class="st2" d="M408,91.7h-13.7l-3.9,14.4c-3.6,13.1-16,22.9-29.1,22.9c-7.2,0-14.1-2.9-18-8.5c-4.3-5.6-5.6-13.1-3.6-20.3
		l2.3-8.5h-44.5l-3.9,14.4c-3.6,13.1-16,22.9-29.4,22.9c-7.2,0-13.7-2.9-18-8.5c-4.3-5.6-5.6-13.1-3.6-20.3l2.3-8.5h-14.4
		c-21.9,0-43.8,17-49.4,38.9l-40.2,149.4c-3.3,11.8-1.3,23.5,5.6,32c6.5,8.5,16.7,13.4,28.1,13.4h19.9v8.8c0,23.2,19,42.2,42.2,42.2
		H408c23.2,0,42.2-19,42.2-42.2V133.9C450.2,110.7,431.2,91.7,408,91.7z M174.8,300c-2.6,0-5.9-0.7-7.8-3.3c-2-2.3-2.3-5.9-1-10.1
		l33.4-124.9h8.5h194.9L371,280.1c-2.9,10.5-14.4,19.9-24.9,19.9H174.8z M424.7,334.4c0,9.2-7.5,16.7-16.7,16.7H236.6
		c-9.2,0-16.7-7.5-16.7-16.7v-8.8h125.9c21.9,0,43.8-17,49.4-38.9l29.1-108.6v156.3H424.7z"/>
	<path class="st2" d="M264.4,117.2c7.8,0,15.7-6.2,17.7-14.1l4.6-17.3c2-7.8-2.6-14.1-10.1-14.1c-7.8,0-15.7,6.2-17.7,14.1
		l-4.6,17.3C252.3,110.7,256.9,117.2,264.4,117.2z"/>
	<path class="st2" d="M361.2,117.2c7.8,0,15.7-6.2,17.7-14.1l4.6-17.3c2-7.8-2.6-14.1-10.1-14.1c-7.8,0-15.7,6.2-17.7,14.1
		l-4.9,17.3C348.8,110.7,353.4,117.2,361.2,117.2z"/>
	<path class="st2" d="M307.6,202.6l-36.3,28.8l-6.5-8.8c-4.3-5.6-12.1-6.9-18-2.6c-5.6,4.3-6.9,12.1-2.6,18l14.4,19.3
		c2,2.9,5.2,4.6,8.5,5.2c0.7,0,1.3,0,1.6,0c2.9,0,5.6-1,7.8-2.6l46.8-37c5.6-4.3,6.5-12.4,2-18C321,199,313.2,198,307.6,202.6z"/>
</g>
</svg>
