<?xml version="1.0" encoding="utf-8"?>
<!-- Generator: Adobe Illustrator 23.0.3, SVG Export Plug-In . SVG Version: 6.00 Build 0)  -->
<svg version="1.1" id="Layer_1" xmlns="http://www.w3.org/2000/svg" xmlns:xlink="http://www.w3.org/1999/xlink" x="0px" y="0px"
	 viewBox="0 0 632 515" style="enable-background:new 0 0 632 515;" xml:space="preserve">
<style type="text/css">
	.st0{fill:#10487B;stroke:#10487B;stroke-miterlimit:10;}
	.st1{fill:#6CC1EC;}
	.st2{fill:#FFFFFF;}
</style>
<g>
	<g>
		<path class="st0" d="M34,505.5v-32.7c0-2,1.5-3.5,3.5-3.5h23.1c1.7,0,3.1,1.4,3.1,3.1c0,1.8-1.4,3.1-3.1,3.1H41v10.3h17.1
			c1.7,0,3.1,1.4,3.1,3.2c0,1.7-1.4,3.1-3.1,3.1H41v10.7h19.9c1.7,0,3.1,1.4,3.1,3.1c0,1.8-1.4,3.1-3.1,3.1H37.5
			C35.5,509,34,507.5,34,505.5z"/>
		<path class="st0" d="M68.2,503.4L80,488.8L68.9,475c-0.6-0.7-1.1-1.6-1.1-2.6c0-1.9,1.5-3.4,3.5-3.4c1.5,0,2.3,0.6,3.2,1.7
			l10.1,13.2l9.9-13c0.9-1.2,1.9-1.9,3.4-1.9s3.2,1.2,3.2,3.2c0,1-0.4,1.8-1.1,2.7l-11.1,13.9l11.7,14.6c0.6,0.7,1.1,1.6,1.1,2.6
			c0,1.9-1.5,3.4-3.5,3.4c-1.5,0-2.3-0.6-3.2-1.7l-10.7-13.9l-10.5,13.7c-1,1.2-1.9,1.9-3.4,1.9c-1.6,0-3.2-1.2-3.2-3.2
			C67.2,505.1,67.6,504.3,68.2,503.4z"/>
		<path class="st0" d="M116.7,475.7h-9.7c-1.8,0-3.2-1.5-3.2-3.2c0-1.8,1.4-3.2,3.2-3.2h26.4c1.8,0,3.2,1.5,3.2,3.2
			c0,1.8-1.4,3.2-3.2,3.2h-9.7v30.1c0,1.9-1.6,3.5-3.5,3.5c-1.9,0-3.5-1.5-3.5-3.5V475.7z"/>
		<path class="st0" d="M140.9,472.7c0-2,1.5-3.5,3.5-3.5h14.2c5,0,8.9,1.5,11.5,4c2.1,2.2,3.3,5.1,3.3,8.6v0.1
			c0,6.4-3.7,10.2-9,11.9l7.6,9.6c0.7,0.9,1.1,1.6,1.1,2.7c0,1.9-1.6,3.2-3.4,3.2c-1.6,0-2.6-0.7-3.4-1.8l-9.7-12.3h-8.8v10.7
			c0,1.9-1.5,3.5-3.5,3.5c-2,0-3.5-1.5-3.5-3.5V472.7z M158.2,488.9c5,0,8.2-2.6,8.2-6.6v-0.1c0-4.3-3.1-6.6-8.2-6.6h-10.2v13.4
			H158.2z"/>
		<path class="st0" d="M176.9,504.5l14.8-33c0.8-1.8,2.2-2.8,4.2-2.8h0.3c2,0,3.4,1.1,4.1,2.8l14.8,33c0.3,0.5,0.4,1,0.4,1.5
			c0,1.9-1.4,3.4-3.3,3.4c-1.6,0-2.8-1-3.4-2.4l-3.2-7.4h-19.3l-3.4,7.7c-0.6,1.4-1.8,2.2-3.2,2.2c-1.8,0-3.2-1.4-3.2-3.2
			C176.4,505.5,176.6,505,176.9,504.5z M202.9,493.2l-7-16.1l-7,16.1H202.9z"/>
		<path class="st0" d="M218.5,489.2v-0.1c0-11.2,8.6-20.6,20.9-20.6s20.7,9.3,20.7,20.5v0.1c0,11.2-8.6,20.6-20.9,20.6
			C227,509.7,218.5,500.4,218.5,489.2z M252.8,489.2v-0.1c0-7.7-5.6-14.1-13.5-14.1c-7.9,0-13.4,6.3-13.4,14v0.1
			c0,7.7,5.6,14.1,13.5,14.1S252.8,497,252.8,489.2z"/>
		<path class="st0" d="M265.7,472.7c0-2,1.5-3.5,3.5-3.5h14.2c5,0,8.9,1.5,11.5,4c2.1,2.2,3.3,5.1,3.3,8.6v0.1
			c0,6.4-3.7,10.2-9,11.9l7.6,9.6c0.7,0.9,1.1,1.6,1.1,2.7c0,1.9-1.6,3.2-3.4,3.2c-1.6,0-2.6-0.7-3.4-1.8l-9.7-12.3h-8.8v10.7
			c0,1.9-1.5,3.5-3.5,3.5c-2,0-3.5-1.5-3.5-3.5V472.7z M282.9,488.9c5,0,8.2-2.6,8.2-6.6v-0.1c0-4.3-3.1-6.6-8.2-6.6h-10.2v13.4
			H282.9z"/>
		<path class="st0" d="M304,472.7c0-2,1.5-3.5,3.5-3.5h11.3c12.5,0,21.1,8.6,21.1,19.8v0.1c0,11.2-8.6,19.9-21.1,19.9h-11.3
			c-2,0-3.5-1.5-3.5-3.5V472.7z M318.8,502.6c8.4,0,13.8-5.6,13.8-13.4v-0.1c0-7.8-5.5-13.5-13.8-13.5h-7.8v27H318.8z"/>
		<path class="st0" d="M345.9,472.4c0-1.9,1.5-3.5,3.5-3.5c1.9,0,3.5,1.5,3.5,3.5v33.4c0,1.9-1.5,3.5-3.5,3.5c-2,0-3.5-1.5-3.5-3.5
			V472.4z"/>
		<path class="st0" d="M360.7,472.5c0-1.9,1.5-3.5,3.5-3.5h0.7c1.7,0,2.7,0.9,3.6,2l19.9,25.7v-24.4c0-1.9,1.5-3.4,3.4-3.4
			c1.9,0,3.5,1.5,3.5,3.4v33.4c0,1.9-1.5,3.5-3.4,3.5h-0.3c-1.6,0-2.7-0.9-3.6-2.1l-20.5-26.5v25.2c0,1.9-1.5,3.4-3.4,3.4
			c-1.9,0-3.5-1.5-3.5-3.4V472.5z"/>
		<path class="st0" d="M400.5,504.5l14.8-33c0.8-1.8,2.2-2.8,4.2-2.8h0.3c2,0,3.4,1.1,4.1,2.8l14.8,33c0.3,0.5,0.4,1,0.4,1.5
			c0,1.9-1.4,3.4-3.3,3.4c-1.6,0-2.8-1-3.4-2.4l-3.2-7.4h-19.3l-3.4,7.7c-0.6,1.4-1.8,2.2-3.2,2.2c-1.8,0-3.2-1.4-3.2-3.2
			C400,505.5,400.2,505,400.5,504.5z M426.5,493.2l-7-16.1l-7,16.1H426.5z"/>
		<path class="st0" d="M443.8,472.7c0-2,1.5-3.5,3.5-3.5h14.2c5,0,8.9,1.5,11.5,4c2.1,2.2,3.3,5.1,3.3,8.6v0.1
			c0,6.4-3.7,10.2-9,11.9l7.6,9.6c0.7,0.9,1.1,1.6,1.1,2.7c0,1.9-1.6,3.2-3.4,3.2c-1.6,0-2.6-0.7-3.4-1.8l-9.7-12.3h-8.8v10.7
			c0,1.9-1.5,3.5-3.5,3.5c-2,0-3.5-1.5-3.5-3.5V472.7z M461.1,488.9c5,0,8.2-2.6,8.2-6.6v-0.1c0-4.3-3.1-6.6-8.2-6.6h-10.2v13.4
			H461.1z"/>
		<path class="st0" d="M482.5,472.4c0-1.9,1.5-3.5,3.5-3.5c1.9,0,3.5,1.5,3.5,3.5v33.4c0,1.9-1.5,3.5-3.5,3.5c-2,0-3.5-1.5-3.5-3.5
			V472.4z"/>
		<path class="st0" d="M495.5,489.2v-0.1c0-11.2,8.6-20.6,20.9-20.6s20.7,9.3,20.7,20.5v0.1c0,11.2-8.6,20.6-20.9,20.6
			C504,509.7,495.5,500.4,495.5,489.2z M529.8,489.2v-0.1c0-7.7-5.6-14.1-13.5-14.1c-7.9,0-13.4,6.3-13.4,14v0.1
			c0,7.7,5.6,14.1,13.5,14.1S529.8,497,529.8,489.2z"/>
		<path class="st0" d="M541.7,504.6c-0.8-0.6-1.4-1.5-1.4-2.7c0-1.8,1.5-3.2,3.3-3.2c1,0,1.6,0.3,2,0.6c3.3,2.6,6.8,4.1,11.1,4.1
			c4.3,0,7-2,7-5v-0.1c0-2.8-1.6-4.4-9-6.1c-8.5-2-13.2-4.5-13.2-11.9v-0.1c0-6.8,5.7-11.5,13.6-11.5c5,0,9,1.3,12.6,3.7
			c0.8,0.5,1.5,1.4,1.5,2.8c0,1.8-1.5,3.2-3.3,3.2c-0.7,0-1.2-0.2-1.8-0.5c-3.1-2-6-3-9.1-3c-4.1,0-6.5,2.1-6.5,4.7v0.1
			c0,3.1,1.8,4.4,9.5,6.3c8.4,2,12.7,5.1,12.7,11.6v0.1c0,7.4-5.9,11.9-14.2,11.9C551.2,509.6,546.1,507.9,541.7,504.6z"/>
	</g>
</g>
<circle class="st1" cx="300" cy="234.3" r="218.5"/>
<g>
	<g>
		<g>
			<path class="st2" d="M403.1,110.3c-9.1,0-18.2,0-27.3,0c-1.3,0-2.6,0-4,0c-4.8,0-9,4.1-9,9c0,7.7,0,15.5,0,23.3
				c0,1.2,0.1,2.3,0,3.5c0.1-0.8,0.2-1.6,0.3-2.4c0,0.1-0.1,0.2-0.1,0.4c0.3-0.7,0.6-1.4,0.9-2.2c0.6-0.9,1.3-1.6,2.2-2.2
				c0.7-0.3,1.4-0.6,2.2-0.9c-0.1,0-0.2,0.1-0.4,0.1c0.8-0.1,1.6-0.2,2.4-0.3c-3,0.3-6.1,0-9,0c-4.7,0-9.3,0-14,0
				c-1.2,0-2.4,0.1-3.6,0c0.8,0.1,1.6,0.2,2.4,0.3c-0.1,0-0.2-0.1-0.4-0.1c0.7,0.3,1.4,0.6,2.2,0.9c0.9,0.6,1.6,1.3,2.2,2.2
				c0.3,0.7,0.6,1.4,0.9,2.2c0-0.1-0.1-0.2-0.1-0.4c0.1,0.8,0.2,1.6,0.3,2.4c-0.3-3,0-6.1,0-9c0-4.8,0-9.6,0-14.4c0-1.1,0-2.2,0-3.3
				c0-4.8-4.1-9-9-9c-11.3,0-22.7,0-34,0c-17.9,0-35.9,0-53.9,0c-4.2,0-8.3,0-12.4,0c-4.8,0-9,4.1-9,9c0,7.7,0,15.5,0,23.3
				c0,1.2,0.1,2.3,0,3.5c0.1-0.8,0.2-1.6,0.3-2.4c0,0.1-0.1,0.2-0.1,0.4c0.3-0.7,0.6-1.4,0.9-2.2c0.6-0.9,1.3-1.6,2.2-2.2
				c0.7-0.3,1.4-0.6,2.2-0.9c-0.1,0-0.2,0.1-0.4,0.1c0.8-0.1,1.6-0.2,2.4-0.3c-3,0.3-6.1,0-9,0c-4.7,0-9.3,0-14,0
				c-1.2,0-2.4,0.1-3.6,0c0.8,0.1,1.6,0.2,2.4,0.3c-0.1,0-0.2-0.1-0.4-0.1c0.7,0.3,1.4,0.6,2.2,0.9c0.9,0.6,1.6,1.3,2.2,2.2
				c0.3,0.7,0.6,1.4,0.9,2.2c0-0.1-0.1-0.2-0.1-0.4c0.1,0.8,0.2,1.6,0.3,2.4c-0.3-3,0-6.1,0-9c0-4.8,0-9.6,0-14.4c0-1.1,0-2.2,0-3.3
				c0-4.8-4.1-9-9-9c-6.3,0-12.7,0-19,0c-3.5,0-6.9,0-10.4,0c-5,0-9.7,0.8-14.2,2.8c-10.3,4.6-16.6,15.5-16.7,26.6
				c0,2.2,0,4.5,0,6.8c0,11.2,0,22.3,0,33.5c0,16.5,0,33,0,49.6c0,17.4,0,34.7,0,52.1c0,14,0,28,0,42c0,6.3-0.1,12.6,0,18.9
				c0.1,13.3,9.6,26,23,28.5c3.2,0.6,6.1,0.7,9.3,0.7c8.9,0,17.9,0,26.8,0c15.1,0,30.3,0,45.4,0c17.5,0,35,0,52.6,0
				c16.4,0,32.7,0,49.1,0c11.6,0,23.3,0,34.9,0c2.8,0,5.7,0,8.5,0c6.5,0,13-1.5,18.3-5.4c3.3-2.5,6.2-5.4,8.3-9.1
				c2.2-3.8,3.3-7.9,3.8-12.3c0.1-1,0.1-2.1,0.1-3.1c0-2.6,0-5.3,0-7.9c0-11.8,0-23.5,0-35.3c0-16.7,0-33.3,0-50
				c0-17.3,0-34.5,0-51.8c0-13.6,0-27.3,0-40.9c0-5.5,0.1-11,0-16.6c-0.1-7.6-3-15-8.4-20.4C418.3,113.4,410.7,110.4,403.1,110.3
				c-4.7-0.1-9.2,4.2-9,9c0.2,4.9,3.9,8.9,9,9c0.8,0,1.6,0.1,2.5,0.1c-0.8-0.1-1.6-0.2-2.4-0.3c1.9,0.2,3.7,0.7,5.4,1.5
				c-0.7-0.3-1.4-0.6-2.2-0.9c1.1,0.5,2.1,1,3.1,1.7c0.3,0.2,0.5,0.4,0.8,0.6c0.8,0.4-1.8-1.6-0.7-0.6c0.4,0.4,0.9,0.8,1.3,1.2
				c0.4,0.4,0.8,0.9,1.2,1.3c0.8,0.9-0.7-0.9-0.7-0.9c0.1,0,0.5,0.7,0.6,0.8c0.7,1,1.3,2.1,1.8,3.3c-0.3-0.7-0.6-1.4-0.9-2.2
				c0.7,1.7,1.2,3.5,1.5,5.4c-0.1-0.8-0.2-1.6-0.3-2.4c0.3,2.5,0.1,5,0.1,7.4c0,4.8,0,9.7,0,14.6c0,7.3,0,14.7,0,22c0,9,0,18,0,27
				c0,9.8,0,19.6,0,29.5c0,10,0,19.9,0,29.9c0,9.3,0,18.6,0,27.8c0,7.8,0,15.5,0,23.3c0,5.6,0,11.1,0,16.7c0,2.5,0,5,0,7.5
				c0,0.9-0.1,1.8-0.1,2.7c0.1-0.8,0.2-1.6,0.3-2.4c-0.2,1.9-0.7,3.7-1.5,5.4c0.3-0.7,0.6-1.4,0.9-2.2c-0.5,1.1-1,2.1-1.7,3.1
				c-0.2,0.3-0.4,0.5-0.6,0.8c-0.4,0.8,1.6-1.8,0.6-0.7c-0.4,0.4-0.8,0.9-1.2,1.3c-0.4,0.4-0.9,0.8-1.3,1.2
				c-0.9,0.8,0.9-0.7,0.9-0.7c0,0.1-0.7,0.5-0.8,0.6c-1,0.7-2.1,1.3-3.3,1.8c0.7-0.3,1.4-0.6,2.2-0.9c-1.7,0.7-3.5,1.2-5.4,1.5
				c0.8-0.1,1.6-0.2,2.4-0.3c-2.6,0.3-5.3,0.1-7.9,0.1c-5.3,0-10.6,0-16,0c-8,0-16,0-24,0c-9.7,0-19.5,0-29.3,0
				c-10.8,0-21.5,0-32.3,0c-10.9,0-21.7,0-32.6,0c-10.1,0-20.2,0-30.4,0c-8.5,0-17,0-25.5,0c-6,0-12.1,0-18.1,0c-2.8,0-5.5,0-8.3,0
				c-0.9,0-1.8-0.1-2.7-0.1c0.8,0.1,1.6,0.2,2.4,0.3c-1.9-0.2-3.7-0.7-5.4-1.5c0.7,0.3,1.4,0.6,2.2,0.9c-1.1-0.5-2.1-1-3.1-1.7
				c-0.3-0.2-0.5-0.4-0.8-0.6c-0.8-0.4,1.8,1.6,0.7,0.6c-0.4-0.4-0.9-0.8-1.3-1.2s-0.8-0.9-1.2-1.3c-0.8-0.9,0.7,0.9,0.7,0.9
				c-0.1,0-0.5-0.7-0.6-0.8c-0.7-1-1.3-2.1-1.8-3.3c0.3,0.7,0.6,1.4,0.9,2.2c-0.7-1.7-1.2-3.5-1.5-5.4c0.1,0.8,0.2,1.6,0.3,2.4
				c-0.3-2.5-0.1-5-0.1-7.4c0-4.8,0-9.7,0-14.6c0-7.3,0-14.7,0-22c0-9,0-18,0-27c0-9.8,0-19.6,0-29.5c0-10,0-19.9,0-29.9
				c0-9.3,0-18.6,0-27.8c0-7.8,0-15.5,0-23.3c0-5.6,0-11.1,0-16.7c0-2.5,0-5,0-7.5c0-0.9,0.1-1.8,0.1-2.7c-0.1,0.8-0.2,1.6-0.3,2.4
				c0.2-1.9,0.7-3.7,1.5-5.4c-0.3,0.7-0.6,1.4-0.9,2.2c0.5-1.1,1-2.1,1.7-3.1c0.2-0.3,0.4-0.5,0.6-0.8c0.4-0.8-1.6,1.8-0.6,0.7
				c0.4-0.4,0.8-0.9,1.2-1.3s0.9-0.8,1.3-1.2c0.9-0.8-0.9,0.7-0.9,0.7c0-0.1,0.7-0.5,0.8-0.6c1-0.7,2.1-1.3,3.3-1.8
				c-0.7,0.3-1.4,0.6-2.2,0.9c1.7-0.7,3.5-1.2,5.4-1.5c-0.8,0.1-1.6,0.2-2.4,0.3c3.9-0.4,8-0.1,12-0.1c5.9,0,11.7,0,17.6,0
				c1.4,0,2.8,0,4.2,0c-3-3-6-6-9-9c0,6,0,12,0,18c0,2.7-0.1,5.4,0,8c0.1,5,3.1,9.5,8.1,10.9c1.5,0.4,2.8,0.4,4.2,0.4c7,0,14,0,21,0
				c1,0,2,0,3,0c6-0.2,10.7-4.4,11.1-10.5c0.1-2,0-4.1,0-6.1c0-6.9,0-13.8,0-20.7c-3,3-6,6-9,9c11.3,0,22.7,0,34,0
				c17.9,0,35.9,0,53.9,0c4.2,0,8.3,0,12.4,0c-3-3-6-6-9-9c0,6,0,12,0,18c0,2.7-0.1,5.4,0,8c0.1,5,3.1,9.5,8.1,10.9
				c1.5,0.4,2.8,0.4,4.2,0.4c7,0,14,0,21,0c1,0,2,0,3,0c6-0.2,10.7-4.4,11.1-10.5c0.1-2,0-4.1,0-6.1c0-6.9,0-13.8,0-20.7
				c-3,3-6,6-9,9c9.1,0,18.2,0,27.3,0c1.3,0,2.6,0,4,0c4.7,0,9.2-4.1,9-9C411.8,114.4,408.1,110.3,403.1,110.3z"/>
		</g>
	</g>
	<g>
		<g>
			<path class="st2" d="M161,189.9c2.3,0,4.7,0,7,0c6.4,0,12.7,0,19.1,0c9.4,0,18.8,0,28.2,0c11.5,0,23,0,34.4,0
				c12.6,0,25.1,0,37.7,0c12.7,0,25.4,0,38.1,0c11.8,0,23.6,0,35.4,0c10,0,20.1,0,30.1,0c7.2,0,14.3,0,21.5,0c3.4,0,6.8,0,10.2,0
				c0.1,0,0.3,0,0.4,0c4.7,0,9.2-4.1,9-9c-0.2-4.9-3.9-9-9-9c-2.3,0-4.7,0-7,0c-6.4,0-12.7,0-19.1,0c-9.4,0-18.8,0-28.2,0
				c-11.5,0-23,0-34.4,0c-12.6,0-25.1,0-37.7,0c-12.7,0-25.4,0-38.1,0c-11.8,0-23.6,0-35.4,0c-10,0-20.1,0-30.1,0
				c-7.2,0-14.3,0-21.5,0c-3.4,0-6.8,0-10.2,0c-0.1,0-0.3,0-0.4,0c-4.7,0-9.2,4.1-9,9C152.2,185.8,156,189.9,161,189.9L161,189.9z"
				/>
		</g>
	</g>
	<g>
		<g>
			<g>
				<path class="st2" d="M232.9,93.9c0,5.9,0,11.8,0,17.6c0,9.3,0,18.5,0,27.8c0,2.2,0.2,4.5,0,6.6c0.1-0.8,0.2-1.6,0.3-2.4
					c0,0.1-0.1,0.2-0.1,0.4c0.3-0.7,0.6-1.4,0.9-2.2c0.6-0.9,1.3-1.6,2.2-2.2c0.7-0.3,1.4-0.6,2.2-0.9c-0.1,0-0.2,0.1-0.4,0.1
					c0.8-0.1,1.6-0.2,2.4-0.3c-3,0.3-6.1,0-9,0c-4.7,0-9.3,0-14,0c-1.2,0-2.4,0.1-3.6,0c0.8,0.1,1.6,0.2,2.4,0.3
					c-0.1,0-0.2-0.1-0.4-0.1c0.7,0.3,1.4,0.6,2.2,0.9c0.9,0.6,1.6,1.3,2.2,2.2c0.3,0.7,0.6,1.4,0.9,2.2c0-0.1-0.1-0.2-0.1-0.4
					c0.1,0.8,0.2,1.6,0.3,2.4c-0.2-1.8,0-3.6,0-5.4c0-4.1,0-8.2,0-12.3c0-9.4,0-18.7,0-28.1c0-2.2-0.2-4.5,0-6.6
					c-0.1,0.8-0.2,1.6-0.3,2.4c0-0.1,0.1-0.2,0.1-0.4c-0.3,0.7-0.6,1.4-0.9,2.2c-0.6,0.9-1.3,1.6-2.2,2.2c-0.7,0.3-1.4,0.6-2.2,0.9
					c0.1,0,0.2-0.1,0.4-0.1c-0.8,0.1-1.6,0.2-2.4,0.3c3-0.3,6.1,0,9,0c4.7,0,9.3,0,14,0c1.2,0,2.4-0.1,3.6,0
					c-0.8-0.1-1.6-0.2-2.4-0.3c0.1,0,0.2,0.1,0.4,0.1c-0.7-0.3-1.4-0.6-2.2-0.9c-0.9-0.6-1.6-1.3-2.2-2.2c-0.3-0.7-0.6-1.4-0.9-2.2
					c0,0.1,0.1,0.2,0.1,0.4c-0.1-0.8-0.2-1.6-0.3-2.4C232.9,93.7,232.9,93.8,232.9,93.9c0.2,2.5,0.8,4.5,2.6,6.3
					c1.6,1.6,4.1,2.7,6.3,2.6c4.5-0.2,9.5-4,9-9c-0.2-2.1-0.5-3.8-1.6-5.6c-0.9-1.6-2.5-3-4-3.9c-1.6-1-3.6-1.3-5.5-1.4
					c-0.9,0-1.8,0-2.7,0c-3.6,0-7.3,0-10.9,0c-3.4,0-6.8,0-10.2,0c-0.6,0-1.2,0-1.8,0c-6,0.2-10.7,4.8-10.9,10.9
					c-0.3,12.3,0,24.6,0,37c0,4.8-0.1,9.7,0,14.5c0.1,4.5,2.5,8.4,6.7,10.2c1.8,0.7,3.5,0.9,5.4,0.9c3.2,0,6.4,0,9.6,0
					c3.7,0,7.4,0,11.2,0c1.1,0,2.2,0,3.3,0c4.1-0.1,7.6-1.8,9.8-5.3c1.7-2.5,1.6-5.4,1.6-8.3c0-2.8,0-5.5,0-8.2
					c0-13.3,0-26.6,0-39.9c0-0.3,0-0.6,0-0.9c0-4.7-4.1-9.2-9-9C237,85.1,232.9,88.9,232.9,93.9z"/>
			</g>
		</g>
		<g>
			<g>
				<path class="st2" d="M362.8,93.9c0,5.9,0,11.8,0,17.6c0,9.3,0,18.5,0,27.8c0,2.2,0.2,4.5,0,6.6c0.1-0.8,0.2-1.6,0.3-2.4
					c0,0.1-0.1,0.2-0.1,0.4c0.3-0.7,0.6-1.4,0.9-2.2c0.6-0.9,1.3-1.6,2.2-2.2c0.7-0.3,1.4-0.6,2.2-0.9c-0.1,0-0.2,0.1-0.4,0.1
					c0.8-0.1,1.6-0.2,2.4-0.3c-3,0.3-6.1,0-9,0c-4.7,0-9.3,0-14,0c-1.2,0-2.4,0.1-3.6,0c0.8,0.1,1.6,0.2,2.4,0.3
					c-0.1,0-0.2-0.1-0.4-0.1c0.7,0.3,1.4,0.6,2.2,0.9c0.9,0.6,1.6,1.3,2.2,2.2c0.3,0.7,0.6,1.4,0.9,2.2c0-0.1-0.1-0.2-0.1-0.4
					c0.1,0.8,0.2,1.6,0.3,2.4c-0.2-1.8,0-3.6,0-5.4c0-4.1,0-8.2,0-12.3c0-9.4,0-18.7,0-28.1c0-2.2-0.2-4.5,0-6.6
					c-0.1,0.8-0.2,1.6-0.3,2.4c0-0.1,0.1-0.2,0.1-0.4c-0.3,0.7-0.6,1.4-0.9,2.2c-0.6,0.9-1.3,1.6-2.2,2.2c-0.7,0.3-1.4,0.6-2.2,0.9
					c0.1,0,0.2-0.1,0.4-0.1c-0.8,0.1-1.6,0.2-2.4,0.3c3-0.3,6.1,0,9,0c4.7,0,9.3,0,14,0c1.2,0,2.4-0.1,3.6,0
					c-0.8-0.1-1.6-0.2-2.4-0.3c0.1,0,0.2,0.1,0.4,0.1c-0.7-0.3-1.4-0.6-2.2-0.9c-0.9-0.6-1.6-1.3-2.2-2.2c-0.3-0.7-0.6-1.4-0.9-2.2
					c0,0.1,0.1,0.2,0.1,0.4c-0.1-0.8-0.2-1.6-0.3-2.4C362.8,93.7,362.8,93.8,362.8,93.9c0.2,2.5,0.8,4.5,2.6,6.3
					c1.6,1.6,4.1,2.7,6.3,2.6c4.5-0.2,9.5-4,9-9c-0.2-2.1-0.5-3.8-1.6-5.6c-0.9-1.6-2.5-3-4-3.9c-1.6-1-3.6-1.3-5.5-1.4
					c-0.9,0-1.8,0-2.7,0c-3.6,0-7.3,0-10.9,0c-3.4,0-6.8,0-10.2,0c-0.6,0-1.2,0-1.8,0c-6,0.2-10.7,4.8-10.9,10.9
					c-0.3,12.3,0,24.6,0,37c0,4.8-0.1,9.7,0,14.5c0.1,4.5,2.5,8.4,6.7,10.2c1.8,0.7,3.5,0.9,5.4,0.9c3.2,0,6.4,0,9.6,0
					c3.7,0,7.4,0,11.2,0c1.1,0,2.2,0,3.3,0c4.1-0.1,7.6-1.8,9.8-5.3c1.7-2.5,1.6-5.4,1.6-8.3c0-2.8,0-5.5,0-8.2
					c0-13.3,0-26.6,0-39.9c0-0.3,0-0.6,0-0.9c0-4.7-4.1-9.2-9-9C366.9,85.1,362.8,88.9,362.8,93.9z"/>
			</g>
		</g>
	</g>
	<g>
		<g>
			<path class="st2" d="M315.2,263.8c8,0,15.9,0,23.9,0c12.7,0,25.4,0,38,0c2.9,0,5.8,0,8.7,0c-3-3-6-6-9-9c0,8,0,15.9,0,23.9
				c0,12.7,0,25.4,0,38c0,2.9,0,5.8,0,8.7c3-3,6-6,9-9c-8,0-15.9,0-23.9,0c-12.7,0-25.4,0-38,0c-2.9,0-5.8,0-8.7,0c3,3,6,6,9,9
				c0-8,0-15.9,0-23.9c0-12.7,0-25.4,0-38c0-2.9,0-5.8,0-8.7c0-4.7-4.1-9.2-9-9c-4.9,0.2-9,3.9-9,9c0,8,0,15.9,0,23.9
				c0,12.7,0,25.4,0,38c0,2.9,0,5.8,0,8.7c0,4.8,4.1,9,9,9c8,0,15.9,0,23.9,0c12.7,0,25.4,0,38,0c2.9,0,5.8,0,8.7,0c4.8,0,9-4.1,9-9
				c0-8,0-15.9,0-23.9c0-12.7,0-25.4,0-38c0-2.9,0-5.8,0-8.7c0-4.8-4.1-9-9-9c-8,0-15.9,0-23.9,0c-12.7,0-25.4,0-38,0
				c-2.9,0-5.8,0-8.7,0c-4.7,0-9.2,4.1-9,9C306.4,259.7,310.2,263.8,315.2,263.8z"/>
			<rect x="310.8" y="254.8" class="st2" width="74.6" height="74.6"/>
		</g>
	</g>
</g>
</svg>
