<svg id="Capa_1" data-name="Capa 1" xmlns="http://www.w3.org/2000/svg" viewBox="0 0 260 303.24"><defs><style>.cls-1{fill:#00c4f0;}.cls-2{fill:#fff;}.cls-3{fill:#12487e;stroke:#12487e;stroke-miterlimit:10;stroke-width:2.4px;}</style></defs><title>party</title><circle class="cls-1" cx="130" cy="130" r="130"/><path class="cls-2" d="M209.27,86.08a19.82,19.82,0,1,0-24.17,0,14.18,14.18,0,0,0-7.74,12.65V112.9a2.83,2.83,0,0,0,5.65,0V98.73a8.52,8.52,0,0,1,8.5-8.5h11.32a8.52,8.52,0,0,1,8.5,8.5v48.16a2.82,2.82,0,0,1-2.82,2.83H185.83a2.82,2.82,0,0,1-2.82-2.83,2.83,2.83,0,0,0-5.65,0,8.46,8.46,0,0,0,5.68,8v48.63h-2.82a8.52,8.52,0,0,0-8.5,8.5v5.67a2.82,2.82,0,0,0,2.82,2.82h34a2.82,2.82,0,1,0,0-5.64H177.36v-2.82a2.82,2.82,0,0,1,2.82-2.82h28.33a2.82,2.82,0,0,0,2.82-2.82V155a8.5,8.5,0,0,0,5.68-8V98.69A14.13,14.13,0,0,0,209.27,86.08ZM183,70.38a14.18,14.18,0,1,1,14.18,14.17A14.17,14.17,0,0,1,183,70.38Zm5.67,133.12V155.36h17v48.17h-17Z" transform="translate(-3 -7.5)"/><path class="cls-2" d="M205.69,124.19V101.52a2.83,2.83,0,1,0-5.65,0v22.67a8.52,8.52,0,0,1-8.5,8.5H168.86a2.83,2.83,0,0,1,0-5.65h19.82a5.67,5.67,0,0,0,5.68-5.67V101.55a2.82,2.82,0,0,0-5.64,0v19.82H168.89a8.5,8.5,0,1,0,0,17h22.68A14.16,14.16,0,0,0,205.69,124.19Z" transform="translate(-3 -7.5)"/><path class="cls-2" d="M83.86,203.5H81V154.86a8.5,8.5,0,0,0,5.68-8,2.82,2.82,0,1,0-5.64,0,2.83,2.83,0,0,1-2.83,2.82H55.53a2.82,2.82,0,0,1-2.82-2.82V98.69a8.52,8.52,0,0,1,8.5-8.5H72.53a8.52,8.52,0,0,1,8.5,8.5v14.18a2.83,2.83,0,0,0,5.65,0V98.69a14.18,14.18,0,0,0-7.74-12.64,19.82,19.82,0,1,0-24.21,0A14.06,14.06,0,0,0,47,98.69v48.17a8.43,8.43,0,0,0,5.68,8v51.46a2.82,2.82,0,0,0,2.82,2.82H83.86A2.82,2.82,0,0,1,86.68,212v2.82H55.53a2.83,2.83,0,0,0,0,5.65h34a2.83,2.83,0,0,0,2.82-2.83v-5.67A8.44,8.44,0,0,0,83.86,203.5ZM52.68,70.38A14.18,14.18,0,1,1,66.85,84.55,14.17,14.17,0,0,1,52.68,70.38ZM58.35,203.5V155.36h17v48.17h-17Z" transform="translate(-3 -7.5)"/><path class="cls-2" d="M75.35,101.52a2.82,2.82,0,1,0-5.64,0v19.81A5.68,5.68,0,0,0,75.39,127H95.21a2.82,2.82,0,0,1,0,5.64H72.5a8.51,8.51,0,0,1-8.5-8.49V101.48a2.83,2.83,0,0,0-5.65,0v22.68a14.17,14.17,0,0,0,14.18,14.17H95.21a8.5,8.5,0,0,0,0-17H75.35Z" transform="translate(-3 -7.5)"/><path class="cls-2" d="M166,149.68a2.82,2.82,0,0,0,0-5.64H149v-9a8.52,8.52,0,0,0,5.68-8V115.76a2.82,2.82,0,1,0-5.64,0v11.32a2.83,2.83,0,0,1-5.65,0V115.76a2.82,2.82,0,1,0-5.64,0v11.32a8.45,8.45,0,0,0,5.68,8v9H132v-25.5a2.82,2.82,0,0,0-2.82-2.82V101.55a2.82,2.82,0,0,0-2.82-2.82H115a2.82,2.82,0,0,0-2.83,2.82v14.17a2.82,2.82,0,0,0-2.82,2.82V144H98.07a2.83,2.83,0,0,0-2.83,2.82v5.68a8.52,8.52,0,0,0,8.51,8.5h25.5v42.49h-17a8.51,8.51,0,0,0-8.5,8.5v5.67a2.83,2.83,0,0,0,2.82,2.83h31.18a2.83,2.83,0,0,0,0-5.65H109.42v-2.82a2.83,2.83,0,0,1,2.83-2.82h39.68a2.82,2.82,0,0,1,2.82,2.82v2.82h-5.68a2.83,2.83,0,0,0,0,5.65h8.5a2.83,2.83,0,0,0,2.82-2.83V212a8.51,8.51,0,0,0-8.5-8.5h-17V161h31.18a2.83,2.83,0,0,0,0-5.65H103.68a2.82,2.82,0,0,1-2.82-2.82v-2.82H166Zm-48.15-45.31h5.68v11.32h-5.68Zm-2.86,17h11.36V144H115V121.37Z" transform="translate(-3 -7.5)"/><path class="cls-3" d="M59.44,300.61a1.56,1.56,0,0,1-.47-1.15V278a2.32,2.32,0,0,1,.69-1.68,2.23,2.23,0,0,1,1.65-.7H62.5a2.21,2.21,0,0,1,1.31.43,2.73,2.73,0,0,1,.89,1.08l8.17,20.38L81,277.1a2.7,2.7,0,0,1,.88-1.08,2.26,2.26,0,0,1,1.32-.43h1.18a2.27,2.27,0,0,1,1.66.7,2.31,2.31,0,0,1,.68,1.68v21.49a1.55,1.55,0,0,1-.46,1.15,1.6,1.6,0,0,1-1.16.47,1.66,1.66,0,0,1-1.17-.47,1.53,1.53,0,0,1-.48-1.15V279l-8.32,20.56a2.45,2.45,0,0,1-.92,1.1,2.51,2.51,0,0,1-3.69-1.1L62.25,279v20.45a1.51,1.51,0,0,1-.49,1.15,1.62,1.62,0,0,1-1.17.47A1.58,1.58,0,0,1,59.44,300.61Z" transform="translate(-3 -7.5)"/><path class="cls-3" d="M95.84,300.07a8.05,8.05,0,0,1-3.23-3.36,11.58,11.58,0,0,1,0-10,8.05,8.05,0,0,1,3.23-3.36,10.44,10.44,0,0,1,9.68,0,8.2,8.2,0,0,1,3.24,3.36,11.4,11.4,0,0,1,0,10,8.2,8.2,0,0,1-3.24,3.36,10.44,10.44,0,0,1-9.68,0Zm7.68-2.48a5.5,5.5,0,0,0,2.23-2.16,7.2,7.2,0,0,0,.89-3.75,7.09,7.09,0,0,0-.89-3.7,5.34,5.34,0,0,0-2.23-2.15,6.34,6.34,0,0,0-2.82-.66,6.46,6.46,0,0,0-2.87.66A5.3,5.3,0,0,0,95.62,288a7.19,7.19,0,0,0-.86,3.7,7.3,7.3,0,0,0,.86,3.75,5.45,5.45,0,0,0,2.21,2.16,6.35,6.35,0,0,0,2.87.68A6.23,6.23,0,0,0,103.52,297.59Z" transform="translate(-3 -7.5)"/><path class="cls-3" d="M115,300.61a1.56,1.56,0,0,1-.47-1.15V284a1.62,1.62,0,0,1,.47-1.17,1.52,1.52,0,0,1,1.15-.49,1.67,1.67,0,0,1,1.66,1.66v1.47a12,12,0,0,1,2.95-2.41,7.49,7.49,0,0,1,3.75-.9,6.15,6.15,0,0,1,3.43.94,6,6,0,0,1,2.24,2.55,8.26,8.26,0,0,1,.77,3.57v10.22a1.51,1.51,0,0,1-.49,1.15,1.62,1.62,0,0,1-1.17.47,1.58,1.58,0,0,1-1.15-.47,1.56,1.56,0,0,1-.47-1.15V289.6q0-4.39-4-4.4a5.76,5.76,0,0,0-3.22.94,11.45,11.45,0,0,0-2.68,2.52v10.8a1.51,1.51,0,0,1-.49,1.15,1.62,1.62,0,0,1-1.17.47A1.58,1.58,0,0,1,115,300.61Z" transform="translate(-3 -7.5)"/><path class="cls-3" d="M137.05,296.51V285.35H134.5a.68.68,0,0,1-.49-.2.66.66,0,0,1-.2-.49.75.75,0,0,1,.33-.61l4.9-4.79a.9.9,0,0,1,.61-.32.61.61,0,0,1,.48.22.72.72,0,0,1,.2.5v2.88h4.07a1.35,1.35,0,0,1,1.4,1.4,1.37,1.37,0,0,1-.39,1,1.34,1.34,0,0,1-1,.42h-4.07v10.87c0,.94.22,1.53.67,1.78a3.35,3.35,0,0,0,1.67.38,4.8,4.8,0,0,0,1.44-.22l.31-.07a2.22,2.22,0,0,1,.41,0,1.26,1.26,0,0,1,.9.37,1.22,1.22,0,0,1,.4.92,1.37,1.37,0,0,1-.83,1.26,7.09,7.09,0,0,1-3,.65C138.81,301.26,137.05,299.68,137.05,296.51Z" transform="translate(-3 -7.5)"/><path class="cls-3" d="M151.47,300.61a5.09,5.09,0,0,1-2.14-1.89,5.19,5.19,0,0,1-.79-2.86,5.05,5.05,0,0,1,2.1-4.25,10.25,10.25,0,0,1,6.18-1.58h4.35v-.29a4.39,4.39,0,0,0-1.17-3.42,5.39,5.39,0,0,0-3.65-1,12.64,12.64,0,0,0-2.43.21,21.54,21.54,0,0,0-2.36.65,1.9,1.9,0,0,1-.47.07,1.27,1.27,0,0,1-.93-.39,1.32,1.32,0,0,1-.4-1,1.38,1.38,0,0,1,.94-1.36,15.71,15.71,0,0,1,6.23-1.3,8.15,8.15,0,0,1,4.19,1,6.31,6.31,0,0,1,2.52,2.61,7.57,7.57,0,0,1,.81,3.47v10.19a1.51,1.51,0,0,1-.49,1.15,1.62,1.62,0,0,1-1.17.47,1.58,1.58,0,0,1-1.15-.47,1.56,1.56,0,0,1-.47-1.15v-.94a9,9,0,0,1-6.76,2.74A6.73,6.73,0,0,1,151.47,300.61Zm7.22-3a8.56,8.56,0,0,0,2.48-1.93v-3h-3.92c-3.62,0-5.44.94-5.44,2.84a2.68,2.68,0,0,0,.89,2.09,4.32,4.32,0,0,0,2.93.79A6.55,6.55,0,0,0,158.69,297.61Z" transform="translate(-3 -7.5)"/><path class="cls-3" d="M166.43,309.22a1.37,1.37,0,0,1-.68-.49,1.39,1.39,0,0,1,.14-1.76,1.3,1.3,0,0,1,1-.42,3,3,0,0,1,.54.06,4.31,4.31,0,0,0,.54.05,2.76,2.76,0,0,0,1.66-.4c.36-.26.54-.84.54-1.72V284.05a1.62,1.62,0,0,1,.47-1.17,1.53,1.53,0,0,1,1.15-.48,1.59,1.59,0,0,1,1.66,1.65v20.56a5.36,5.36,0,0,1-1.14,3.58,4.41,4.41,0,0,1-3.58,1.35A7.36,7.36,0,0,1,166.43,309.22Zm4-31a1.78,1.78,0,0,1-.54-1.3v-.14a1.84,1.84,0,0,1,1.84-1.84h.21a1.84,1.84,0,0,1,1.84,1.84V277a1.84,1.84,0,0,1-1.84,1.84h-.21A1.77,1.77,0,0,1,170.39,278.26Z" transform="translate(-3 -7.5)"/><path class="cls-3" d="M180.45,298.76a9.63,9.63,0,0,1-2.46-7,11.83,11.83,0,0,1,.93-4.72,8.11,8.11,0,0,1,2.88-3.49,9.24,9.24,0,0,1,9.4-.09,8,8,0,0,1,3,3.31,10.26,10.26,0,0,1,1,4.52,1.58,1.58,0,0,1-.45,1.15,1.57,1.57,0,0,1-1.21.47H181.3a5.91,5.91,0,0,0,1.87,3.93,6.48,6.48,0,0,0,4.43,1.4,10.07,10.07,0,0,0,4.86-1.12,1.51,1.51,0,0,1,.65-.14,1.44,1.44,0,0,1,1,.4,1.32,1.32,0,0,1,.43,1,1.58,1.58,0,0,1-.94,1.34,13.31,13.31,0,0,1-2.77,1.18,12.75,12.75,0,0,1-3.53.4A9.19,9.19,0,0,1,180.45,298.76Zm11.47-8.55a5.72,5.72,0,0,0-.92-2.95,4.91,4.91,0,0,0-2-1.75,5.47,5.47,0,0,0-4.82,0,4.8,4.8,0,0,0-2,1.75,5.81,5.81,0,0,0-.9,2.95Z" transform="translate(-3 -7.5)"/><path class="cls-3" d="M198.87,299.64a1.38,1.38,0,0,1-.62-1.19,1.48,1.48,0,0,1,.4-1,1.34,1.34,0,0,1,1-.43,1.54,1.54,0,0,1,.65.15,14.56,14.56,0,0,0,2.3.79,10.8,10.8,0,0,0,2.59.29c2.67,0,4-.86,4-2.56a1.37,1.37,0,0,0-.92-1.26,18.37,18.37,0,0,0-3-1,28.33,28.33,0,0,1-3.51-1.05,6.18,6.18,0,0,1-2.37-1.63,4.18,4.18,0,0,1-1-2.9,5.18,5.18,0,0,1,1.82-4.11,7.7,7.7,0,0,1,5.2-1.58,15,15,0,0,1,5.22.9,1.4,1.4,0,0,1,.77.54,1.43,1.43,0,0,1-.14,1.84,1.4,1.4,0,0,1-1,.43,2,2,0,0,1-.47-.07,13.53,13.53,0,0,0-4.1-.65,5.61,5.61,0,0,0-3,.7,2.1,2.1,0,0,0-1.1,1.82,1.66,1.66,0,0,0,1,1.58,14,14,0,0,0,3.13,1,29.43,29.43,0,0,1,3.46,1.07,5.65,5.65,0,0,1,2.28,1.63,4.44,4.44,0,0,1,1,3,4.77,4.77,0,0,1-1.82,3.82,7.79,7.79,0,0,1-5.13,1.51A13.36,13.36,0,0,1,198.87,299.64Z" transform="translate(-3 -7.5)"/></svg>