<?xml version="1.0"?>
<svg xmlns="http://www.w3.org/2000/svg" height="512px" viewBox="0 0 480 480.05448" width="512px"><g><path d="m458.1875 100.375c18.996094-14.625 26.578125-39.71875 18.855469-62.417969-7.726563-22.695312-29.039063-37.957031-53.015625-37.957031-23.976563 0-45.289063 15.261719-53.015625 37.957031-7.722657 22.699219-.140625 47.792969 18.855469 62.417969-13.414063 6.835938-21.855469 20.625-21.839844 35.679688v40c0 4.417968 3.582031 8 8 8 4.417968 0 8-3.582032 8-8v-40c0-13.253907 10.746094-24 24-24h32c13.253906 0 24 10.746093 24 24v136c0 4.417968-3.582032 8-8 8h-64c-4.417969 0-8-3.582032-8-8 0-4.417969-3.582032-8-8-8-4.417969 0-8 3.582031-8 8-.003906 10.175781 6.40625 19.246093 16 22.640624v137.359376h-8c-13.253906 0-24 10.746093-24 24v16c0 4.417968 3.582031 8 8 8h96c4.417968 0 8-3.582032 8-8 0-4.417969-3.582032-8-8-8h-88v-8c0-4.417969 3.582031-8 8-8h80c4.417968 0 8-3.582032 8-8v-145.359376c9.59375-3.394531 16.003906-12.464843 16-22.640624v-136c.015625-15.054688-8.425782-28.84375-21.839844-35.679688zm-74.160156-44.320312c0-22.089844 17.910156-40 40-40s40 17.910156 40 40c0 22.089843-17.910156 40-40 40s-40-17.910157-40-40zm16 376v-136h48v136zm0 0" data-original="#000000" class="active-path" data-old_color="#000000" fill="#00C4F0"/><path d="m448.027344 208.054688v-64c0-4.417969-3.582032-8-8-8-4.417969 0-8 3.582031-8 8v64c0 13.253906-10.746094 24-24 24h-64c-4.417969 0-8-3.582032-8-8 0-4.417969 3.582031-8 8-8h56c8.835937 0 16-7.164063 16-16v-56c0-4.417969-3.582032-8-8-8-4.417969 0-8 3.582031-8 8v56h-56c-13.253906 0-24 10.746093-24 24 0 13.253906 10.746094 24 24 24h64c22.089844 0 40-17.910157 40-40zm0 0" data-original="#000000" class="active-path" data-old_color="#000000" fill="#00C4F0"/><path d="m104.027344 432.054688h-8v-137.359376c9.59375-3.394531 16.003906-12.464843 16-22.640624 0-4.417969-3.582032-8-8-8-4.417969 0-8 3.582031-8 8 0 4.417968-3.582032 8-8 8h-64c-4.417969 0-8-3.582032-8-8v-136c0-13.253907 10.746094-24 24-24h32c13.253906 0 24 10.746093 24 24v40c0 4.417968 3.582031 8 8 8 4.417968 0 8-3.582032 8-8v-40c.015625-15.054688-8.425782-28.84375-21.839844-35.679688 18.996094-14.625 26.578125-39.71875 18.855469-62.417969-7.726563-22.695312-29.039063-37.957031-53.015625-37.957031-23.976563 0-45.289063 15.261719-53.015625 37.957031-7.722657 22.699219-.140625 47.792969 18.855469 62.417969-13.414063 6.835938-21.8554692 20.625-21.8398442 35.679688v136c-.0039063 10.175781 6.4062502 19.246093 16.0000002 22.640624v145.359376c0 4.417968 3.582031 8 8 8h80c4.417968 0 8 3.582031 8 8v8h-88c-4.417969 0-8 3.582031-8 8 0 4.417968 3.582031 8 8 8h96c4.417968 0 8-3.582032 8-8v-16c0-13.253907-10.746094-24-24-24zm-88-376c0-22.089844 17.910156-40 40-40s40 17.910156 40 40c0 22.089843-17.910156 40-40 40s-40-17.910157-40-40zm16 376v-136h48v136zm0 0" data-original="#000000" class="active-path" data-old_color="#000000" fill="#00C4F0"/><path d="m80.027344 144.054688c0-4.417969-3.582032-8-8-8-4.417969 0-8 3.582031-8 8v56c0 8.835937 7.164062 16 16 16h56c4.417968 0 8 3.582031 8 8 0 4.417968-3.582032 8-8 8h-64c-13.253906 0-24-10.746094-24-24v-64c0-4.417969-3.582032-8-8-8-4.417969 0-8 3.582031-8 8v64c0 22.089843 17.910156 40 40 40h64c13.253906 0 24-10.746094 24-24 0-13.253907-10.746094-24-24-24h-56zm0 0" data-original="#000000" class="active-path" data-old_color="#000000" fill="#00C4F0"/><path d="m336.027344 280.054688c4.417968 0 8-3.582032 8-8 0-4.417969-3.582032-8-8-8h-48v-25.359376c9.59375-3.394531 16.003906-12.464843 16-22.640624v-32c0-4.417969-3.582032-8-8-8-4.417969 0-8 3.582031-8 8v32c0 4.417968-3.582032 8-8 8-4.417969 0-8-3.582032-8-8v-32c0-4.417969-3.582032-8-8-8-4.417969 0-8 3.582031-8 8v32c-.003906 10.175781 6.40625 19.246093 16 22.640624v25.359376h-32v-72c0-4.417969-3.582032-8-8-8v-40c0-4.417969-3.582032-8-8-8h-32c-4.417969 0-8 3.582031-8 8v40c-4.417969 0-8 3.582031-8 8v72h-32c-4.417969 0-8 3.582031-8 8v16c0 13.253906 10.746094 24 24 24h72v120h-48c-13.253906 0-24 10.746093-24 24v16c0 4.417968 3.582031 8 8 8h88c4.417968 0 8-3.582032 8-8 0-4.417969-3.582032-8-8-8h-80v-8c0-4.417969 3.582031-8 8-8h112c4.417968 0 8 3.582031 8 8v8h-16c-4.417969 0-8 3.582031-8 8 0 4.417968 3.582031 8 8 8h24c4.417968 0 8-3.582032 8-8v-16c0-13.253907-10.746094-24-24-24h-48v-120h88c4.417968 0 8-3.582032 8-8 0-4.417969-3.582032-8-8-8h-176c-4.417969 0-8-3.582032-8-8v-8zm-136-128h16v32h-16zm-8 48h32v64h-32zm0 0" data-original="#000000" class="active-path" data-old_color="#000000" fill="#00C4F0"/></g> </svg>
