<svg id="Capa_1" data-name="Capa 1" xmlns="http://www.w3.org/2000/svg" viewBox="0 0 260 345.81"><defs><style>.cls-1{fill:#12487e;stroke:#12487e;stroke-miterlimit:10;stroke-width:1.5px;}.cls-2{fill:#00c4f0;}.cls-3{fill:#fff;}</style></defs><title>small-calendar</title><path class="cls-1" d="M50.6,296.69a11.2,11.2,0,0,1-4.5-4.5,15.15,15.15,0,0,1,0-13.71,11.2,11.2,0,0,1,4.5-4.5,13.17,13.17,0,0,1,6.46-1.57,15,15,0,0,1,4.37.58,18.23,18.23,0,0,1,3.84,1.65,1.45,1.45,0,0,1,.79,1.37,1.34,1.34,0,0,1-.4,1,1.39,1.39,0,0,1-1,.41,1.51,1.51,0,0,1-.65-.14A15.47,15.47,0,0,0,60.88,276a12.73,12.73,0,0,0-3.5-.44,10.26,10.26,0,0,0-5.27,1.28,8.29,8.29,0,0,0-3.28,3.49,12.13,12.13,0,0,0,0,10.05,8.29,8.29,0,0,0,3.28,3.49,10.26,10.26,0,0,0,5.27,1.28,13.14,13.14,0,0,0,3.5-.43A16.75,16.75,0,0,0,64,293.44a1.53,1.53,0,0,1,1.69.25,1.3,1.3,0,0,1,.4,1,1.44,1.44,0,0,1-.79,1.37,18.23,18.23,0,0,1-3.84,1.65,15,15,0,0,1-4.37.58A13.17,13.17,0,0,1,50.6,296.69Z" transform="translate(-3 -4.5)"/><path class="cls-1" d="M72.09,297.61A5.09,5.09,0,0,1,70,295.72a5.19,5.19,0,0,1-.79-2.86,5.05,5.05,0,0,1,2.1-4.25A10.22,10.22,0,0,1,77.44,287h4.35v-.29a4.39,4.39,0,0,0-1.17-3.42,5.41,5.41,0,0,0-3.65-1,12.57,12.57,0,0,0-2.43.21,21,21,0,0,0-2.36.65,1.9,1.9,0,0,1-.47.07,1.27,1.27,0,0,1-.93-.39,1.32,1.32,0,0,1-.4-1,1.38,1.38,0,0,1,.94-1.36,15.67,15.67,0,0,1,6.22-1.3,8.16,8.16,0,0,1,4.2,1,6.31,6.31,0,0,1,2.52,2.61,7.57,7.57,0,0,1,.81,3.47v10.19a1.51,1.51,0,0,1-.49,1.15,1.62,1.62,0,0,1-1.17.47,1.58,1.58,0,0,1-1.15-.47,1.56,1.56,0,0,1-.47-1.15v-.94A9,9,0,0,1,75,298.26,6.72,6.72,0,0,1,72.09,297.61Zm7.22-3a8.56,8.56,0,0,0,2.48-1.93v-3H77.87c-3.63,0-5.44.94-5.44,2.84a2.71,2.71,0,0,0,.88,2.09,4.37,4.37,0,0,0,2.94.79A6.61,6.61,0,0,0,79.31,294.61Z" transform="translate(-3 -4.5)"/><path class="cls-1" d="M91,297.61a1.55,1.55,0,0,1-.46-1.15V273.1a1.61,1.61,0,0,1,.46-1.17,1.54,1.54,0,0,1,1.16-.49,1.61,1.61,0,0,1,1.18.47,1.58,1.58,0,0,1,.47,1.19v23.36a1.53,1.53,0,0,1-.48,1.15,1.66,1.66,0,0,1-1.17.47A1.6,1.6,0,0,1,91,297.61Z" transform="translate(-3 -4.5)"/><path class="cls-1" d="M100.89,295.76a9.63,9.63,0,0,1-2.47-7,11.84,11.84,0,0,1,.94-4.72,8,8,0,0,1,2.88-3.49,9.24,9.24,0,0,1,9.4-.09,8.06,8.06,0,0,1,3,3.31,10.26,10.26,0,0,1,1,4.52,1.58,1.58,0,0,1-1.66,1.62h-12.2a5.91,5.91,0,0,0,1.87,3.93,6.47,6.47,0,0,0,4.43,1.4,10.14,10.14,0,0,0,4.86-1.12,1.47,1.47,0,0,1,.64-.14,1.42,1.42,0,0,1,1,.4,1.29,1.29,0,0,1,.43,1,1.56,1.56,0,0,1-.93,1.34,13.31,13.31,0,0,1-2.77,1.18,12.8,12.8,0,0,1-3.53.4A9.18,9.18,0,0,1,100.89,295.76Zm11.47-8.55a5.82,5.82,0,0,0-.92-2.95,4.91,4.91,0,0,0-2-1.75,5.47,5.47,0,0,0-4.82,0,4.68,4.68,0,0,0-2,1.75,5.81,5.81,0,0,0-.9,2.95Z" transform="translate(-3 -4.5)"/><path class="cls-1" d="M120.38,297.61a1.55,1.55,0,0,1-.46-1.15V281a1.61,1.61,0,0,1,.46-1.17,1.54,1.54,0,0,1,1.16-.49,1.66,1.66,0,0,1,1.65,1.66v1.47a12,12,0,0,1,3-2.41,7.49,7.49,0,0,1,3.75-.9,6.2,6.2,0,0,1,3.44.94,6.08,6.08,0,0,1,2.23,2.55,8.26,8.26,0,0,1,.77,3.57v10.22a1.53,1.53,0,0,1-.48,1.15,1.66,1.66,0,0,1-1.18.47,1.58,1.58,0,0,1-1.15-.47,1.55,1.55,0,0,1-.46-1.15V286.6q0-4.39-4-4.4a5.77,5.77,0,0,0-3.23.94,11.45,11.45,0,0,0-2.68,2.52v10.8a1.53,1.53,0,0,1-.48,1.15,1.66,1.66,0,0,1-1.17.47A1.6,1.6,0,0,1,120.38,297.61Z" transform="translate(-3 -4.5)"/><path class="cls-1" d="M145.21,297.13a8.58,8.58,0,0,1-3.25-3.32,11.07,11.07,0,0,1,0-10.18,8.58,8.58,0,0,1,3.25-3.32,8.49,8.49,0,0,1,4.23-1.13,8.24,8.24,0,0,1,6.15,2.74V273.1a1.56,1.56,0,0,1,.49-1.19,1.62,1.62,0,0,1,1.17-.47,1.52,1.52,0,0,1,1.15.49,1.62,1.62,0,0,1,.47,1.17v23.36a1.56,1.56,0,0,1-.47,1.15,1.58,1.58,0,0,1-1.15.47,1.62,1.62,0,0,1-1.17-.47,1.51,1.51,0,0,1-.49-1.15v-.94a8.24,8.24,0,0,1-6.15,2.74A8.49,8.49,0,0,1,145.21,297.13Zm7.81-2.67a8.74,8.74,0,0,0,2.57-2v-7.56a8.91,8.91,0,0,0-2.57-2,6.86,6.86,0,0,0-3.12-.74,5.65,5.65,0,0,0-4.28,1.69,7.89,7.89,0,0,0,0,9.58,5.65,5.65,0,0,0,4.28,1.69A6.86,6.86,0,0,0,153,294.46Z" transform="translate(-3 -4.5)"/><path class="cls-1" d="M166.3,297.61a5.09,5.09,0,0,1-2.14-1.89,5.19,5.19,0,0,1-.79-2.86,5.05,5.05,0,0,1,2.1-4.25,10.22,10.22,0,0,1,6.18-1.58H176v-.29a4.39,4.39,0,0,0-1.17-3.42,5.41,5.41,0,0,0-3.65-1,12.64,12.64,0,0,0-2.43.21,21,21,0,0,0-2.36.65,1.9,1.9,0,0,1-.47.07,1.27,1.27,0,0,1-.93-.39,1.32,1.32,0,0,1-.4-1,1.38,1.38,0,0,1,.94-1.36,15.7,15.7,0,0,1,6.22-1.3,8.16,8.16,0,0,1,4.2,1,6.31,6.31,0,0,1,2.52,2.61,7.57,7.57,0,0,1,.81,3.47v10.19a1.51,1.51,0,0,1-.49,1.15,1.62,1.62,0,0,1-1.17.47,1.58,1.58,0,0,1-1.15-.47,1.56,1.56,0,0,1-.47-1.15v-.94a9,9,0,0,1-6.76,2.74A6.73,6.73,0,0,1,166.3,297.61Zm7.22-3a8.56,8.56,0,0,0,2.48-1.93v-3h-3.92c-3.62,0-5.44.94-5.44,2.84a2.68,2.68,0,0,0,.89,2.09,4.32,4.32,0,0,0,2.93.79A6.61,6.61,0,0,0,173.52,294.61Z" transform="translate(-3 -4.5)"/><path class="cls-1" d="M185.25,297.61a1.55,1.55,0,0,1-.46-1.15V281a1.61,1.61,0,0,1,.46-1.17,1.54,1.54,0,0,1,1.16-.49,1.66,1.66,0,0,1,1.65,1.66v1.54c1.68-2.25,3.57-3.38,5.65-3.38h.18a1.52,1.52,0,0,1,1.14.47,1.58,1.58,0,0,1,.45,1.15,1.46,1.46,0,0,1-.47,1.12,1.72,1.72,0,0,1-1.19.43h-.18a6.19,6.19,0,0,0-3.17.84,7.33,7.33,0,0,0-2.41,2.33v10.94a1.53,1.53,0,0,1-.48,1.15,1.66,1.66,0,0,1-1.17.47A1.6,1.6,0,0,1,185.25,297.61Z" transform="translate(-3 -4.5)"/><path class="cls-1" d="M198.83,275.26a1.78,1.78,0,0,1-.54-1.3v-.14a1.84,1.84,0,0,1,1.83-1.84h.22a1.84,1.84,0,0,1,1.83,1.84V274a1.78,1.78,0,0,1-.54,1.3,1.76,1.76,0,0,1-1.29.54h-.22A1.76,1.76,0,0,1,198.83,275.26Zm.21,22.35a1.56,1.56,0,0,1-.47-1.15V281a1.62,1.62,0,0,1,.47-1.17,1.52,1.52,0,0,1,1.15-.49,1.61,1.61,0,0,1,1.66,1.66v15.44a1.51,1.51,0,0,1-.49,1.15,1.62,1.62,0,0,1-1.17.47A1.58,1.58,0,0,1,199,297.61Z" transform="translate(-3 -4.5)"/><path class="cls-1" d="M210.78,297.07a8,8,0,0,1-3.22-3.36,11.49,11.49,0,0,1,0-10,8,8,0,0,1,3.22-3.36,10.44,10.44,0,0,1,9.68,0,8.2,8.2,0,0,1,3.24,3.36,11.4,11.4,0,0,1,0,10,8.2,8.2,0,0,1-3.24,3.36,10.44,10.44,0,0,1-9.68,0Zm7.68-2.48a5.58,5.58,0,0,0,2.24-2.16,7.3,7.3,0,0,0,.88-3.75,7.19,7.19,0,0,0-.88-3.7,5.42,5.42,0,0,0-2.24-2.15,6.34,6.34,0,0,0-2.82-.66,6.42,6.42,0,0,0-2.86.66,5.32,5.32,0,0,0-2.22,2.15,7.29,7.29,0,0,0-.86,3.7,7.41,7.41,0,0,0,.86,3.75,5.47,5.47,0,0,0,2.22,2.16,6.31,6.31,0,0,0,2.86.68A6.23,6.23,0,0,0,218.46,294.59Z" transform="translate(-3 -4.5)"/><path class="cls-1" d="M48.69,340.33A8.63,8.63,0,0,1,45.45,337a11.07,11.07,0,0,1,0-10.18,8.7,8.7,0,0,1,3.24-3.32,8.49,8.49,0,0,1,4.23-1.13,8.28,8.28,0,0,1,6.16,2.74V316.3a1.59,1.59,0,0,1,.48-1.19,1.66,1.66,0,0,1,1.17-.47,1.51,1.51,0,0,1,1.15.49,1.58,1.58,0,0,1,.47,1.17v23.36a1.52,1.52,0,0,1-.47,1.15,1.56,1.56,0,0,1-1.15.47,1.66,1.66,0,0,1-1.17-.47,1.53,1.53,0,0,1-.48-1.15v-.94a8.28,8.28,0,0,1-6.16,2.74A8.49,8.49,0,0,1,48.69,340.33Zm7.81-2.67a8.91,8.91,0,0,0,2.58-2v-7.56a9.09,9.09,0,0,0-2.58-2,6.82,6.82,0,0,0-3.11-.74,5.66,5.66,0,0,0-4.29,1.69,7.89,7.89,0,0,0,0,9.58,5.66,5.66,0,0,0,4.29,1.69A6.82,6.82,0,0,0,56.5,337.66Z" transform="translate(-3 -4.5)"/><path class="cls-1" d="M68.29,318.46a1.77,1.77,0,0,1-.54-1.3V317a1.84,1.84,0,0,1,1.84-1.84h.21A1.84,1.84,0,0,1,71.64,317v.14A1.84,1.84,0,0,1,69.8,319h-.21A1.77,1.77,0,0,1,68.29,318.46Zm.22,22.35a1.56,1.56,0,0,1-.47-1.15V324.22a1.62,1.62,0,0,1,.47-1.17,1.51,1.51,0,0,1,1.15-.49,1.61,1.61,0,0,1,1.66,1.66v15.44a1.54,1.54,0,0,1-.49,1.15,1.62,1.62,0,0,1-1.17.47A1.56,1.56,0,0,1,68.51,340.81Z" transform="translate(-3 -4.5)"/><path class="cls-1" d="M76.39,339.84a1.37,1.37,0,0,1-.61-1.19,1.47,1.47,0,0,1,.39-1,1.34,1.34,0,0,1,1-.43,1.51,1.51,0,0,1,.65.15,15.28,15.28,0,0,0,2.3.79,10.88,10.88,0,0,0,2.6.29c2.66,0,4-.86,4-2.56a1.36,1.36,0,0,0-.91-1.26,19.07,19.07,0,0,0-3-1,27.31,27.31,0,0,1-3.51-1A6.22,6.22,0,0,1,76.91,331a4.18,4.18,0,0,1-1-2.9A5.22,5.22,0,0,1,77.74,324a7.71,7.71,0,0,1,5.2-1.58,15,15,0,0,1,5.22.9,1.39,1.39,0,0,1,.78.54,1.44,1.44,0,0,1,.27.83,1.42,1.42,0,0,1-.42,1,1.38,1.38,0,0,1-1,.43,1.9,1.9,0,0,1-.47-.07,13.53,13.53,0,0,0-4.1-.65,5.62,5.62,0,0,0-3,.7,2.09,2.09,0,0,0-1.09,1.82,1.65,1.65,0,0,0,1,1.58,14.07,14.07,0,0,0,3.14,1,29.8,29.8,0,0,1,3.45,1.07,5.68,5.68,0,0,1,2.29,1.63,4.49,4.49,0,0,1,1,3A4.74,4.74,0,0,1,88.07,340a7.79,7.79,0,0,1-5.13,1.51A13.39,13.39,0,0,1,76.39,339.84Z" transform="translate(-3 -4.5)"/><path class="cls-1" d="M94.75,349.07a1.62,1.62,0,0,1-.47-1.17V324.18a1.56,1.56,0,0,1,.47-1.15,1.58,1.58,0,0,1,1.15-.47,1.62,1.62,0,0,1,1.17.47,1.51,1.51,0,0,1,.49,1.15v.94a8.25,8.25,0,0,1,6.16-2.74,8.54,8.54,0,0,1,4.23,1.13,8.7,8.7,0,0,1,3.24,3.32,11.07,11.07,0,0,1,0,10.18,8.5,8.5,0,0,1-7.47,4.45,8.25,8.25,0,0,1-6.16-2.74v9.18a1.61,1.61,0,0,1-1.66,1.66A1.52,1.52,0,0,1,94.75,349.07Zm12.78-12.36a7.89,7.89,0,0,0,0-9.58,5.65,5.65,0,0,0-4.28-1.69,6.86,6.86,0,0,0-3.12.74,8.91,8.91,0,0,0-2.57,2v7.56a8.74,8.74,0,0,0,2.57,2,6.86,6.86,0,0,0,3.12.74A5.65,5.65,0,0,0,107.53,336.71Z" transform="translate(-3 -4.5)"/><path class="cls-1" d="M120.24,340.27a8,8,0,0,1-3.22-3.36,11.49,11.49,0,0,1,0-10,8,8,0,0,1,3.22-3.36,10.44,10.44,0,0,1,9.68,0,8.2,8.2,0,0,1,3.24,3.36,11.31,11.31,0,0,1,0,10,8.2,8.2,0,0,1-3.24,3.36,10.44,10.44,0,0,1-9.68,0Zm7.68-2.48a5.52,5.52,0,0,0,2.24-2.16,7.2,7.2,0,0,0,.88-3.75,7.09,7.09,0,0,0-.88-3.7,5.37,5.37,0,0,0-2.24-2.15,6.31,6.31,0,0,0-2.82-.66,6.42,6.42,0,0,0-2.86.66,5.32,5.32,0,0,0-2.22,2.15,7.29,7.29,0,0,0-.86,3.7,7.41,7.41,0,0,0,.86,3.75,5.47,5.47,0,0,0,2.22,2.16,6.18,6.18,0,0,0,2.86.68A6.08,6.08,0,0,0,127.92,337.79Z" transform="translate(-3 -4.5)"/><path class="cls-1" d="M139.35,340.81a1.55,1.55,0,0,1-.46-1.15V324.22a1.61,1.61,0,0,1,.46-1.17,1.54,1.54,0,0,1,1.16-.49,1.66,1.66,0,0,1,1.65,1.66v1.47a12,12,0,0,1,3-2.41,7.42,7.42,0,0,1,3.74-.9,6.18,6.18,0,0,1,3.44.94,6.08,6.08,0,0,1,2.23,2.55,8.26,8.26,0,0,1,.77,3.57v10.22a1.53,1.53,0,0,1-.48,1.15,1.66,1.66,0,0,1-1.17.47,1.56,1.56,0,0,1-1.15-.47,1.52,1.52,0,0,1-.47-1.15V329.8q0-4.4-4-4.4a5.79,5.79,0,0,0-3.23.94,11.64,11.64,0,0,0-2.68,2.52v10.8a1.53,1.53,0,0,1-.48,1.15,1.66,1.66,0,0,1-1.17.47A1.6,1.6,0,0,1,139.35,340.81Z" transform="translate(-3 -4.5)"/><path class="cls-1" d="M161.06,318.46a1.77,1.77,0,0,1-.54-1.3V317a1.84,1.84,0,0,1,1.84-1.84h.22a1.84,1.84,0,0,1,1.83,1.84v.14a1.84,1.84,0,0,1-1.83,1.84h-.22A1.77,1.77,0,0,1,161.06,318.46Zm.22,22.35a1.56,1.56,0,0,1-.47-1.15V324.22a1.62,1.62,0,0,1,.47-1.17,1.51,1.51,0,0,1,1.15-.49,1.61,1.61,0,0,1,1.66,1.66v15.44a1.54,1.54,0,0,1-.49,1.15,1.62,1.62,0,0,1-1.17.47A1.56,1.56,0,0,1,161.28,340.81Z" transform="translate(-3 -4.5)"/><path class="cls-1" d="M173.05,338.72v.94a1.51,1.51,0,0,1-.49,1.15,1.62,1.62,0,0,1-1.17.47,1.58,1.58,0,0,1-1.15-.47,1.56,1.56,0,0,1-.47-1.15V316.3a1.62,1.62,0,0,1,.47-1.17,1.52,1.52,0,0,1,1.15-.49,1.61,1.61,0,0,1,1.66,1.66v8.82a8.25,8.25,0,0,1,6.16-2.74,8.54,8.54,0,0,1,4.23,1.13,8.7,8.7,0,0,1,3.24,3.32,11.07,11.07,0,0,1,0,10.18,8.5,8.5,0,0,1-7.47,4.45A8.25,8.25,0,0,1,173.05,338.72Zm10-2a7.89,7.89,0,0,0,0-9.58,5.65,5.65,0,0,0-4.28-1.69,6.79,6.79,0,0,0-3.11.74,8.82,8.82,0,0,0-2.58,2v7.56a8.65,8.65,0,0,0,2.58,2,6.79,6.79,0,0,0,3.11.74A5.65,5.65,0,0,0,183,336.71Z" transform="translate(-3 -4.5)"/><path class="cls-1" d="M193,340.81a1.56,1.56,0,0,1-.47-1.15V316.3a1.62,1.62,0,0,1,.47-1.17,1.51,1.51,0,0,1,1.15-.49,1.61,1.61,0,0,1,1.66,1.66v23.36a1.54,1.54,0,0,1-.49,1.15,1.62,1.62,0,0,1-1.17.47A1.56,1.56,0,0,1,193,340.81Z" transform="translate(-3 -4.5)"/><path class="cls-1" d="M202.8,339a9.63,9.63,0,0,1-2.46-7,11.83,11.83,0,0,1,.93-4.72,8.11,8.11,0,0,1,2.88-3.49,9.24,9.24,0,0,1,9.4-.09,8,8,0,0,1,2.95,3.31,10.26,10.26,0,0,1,1,4.52,1.58,1.58,0,0,1-.45,1.15,1.57,1.57,0,0,1-1.21.47h-12.2a6,6,0,0,0,1.87,3.93,6.48,6.48,0,0,0,4.43,1.4,10.07,10.07,0,0,0,4.86-1.12,1.51,1.51,0,0,1,.65-.14,1.44,1.44,0,0,1,1,.4,1.32,1.32,0,0,1,.43,1,1.56,1.56,0,0,1-.94,1.34,13.09,13.09,0,0,1-2.77,1.18,12.75,12.75,0,0,1-3.53.4A9.19,9.19,0,0,1,202.8,339Zm11.47-8.55a5.72,5.72,0,0,0-.92-3,4.92,4.92,0,0,0-2-1.75,5.47,5.47,0,0,0-4.82,0,4.87,4.87,0,0,0-2,1.75,5.81,5.81,0,0,0-.9,3Z" transform="translate(-3 -4.5)"/><circle class="cls-2" cx="130" cy="130" r="130"/><g id="calendar"><path class="cls-3" d="M203.84,52.94h-23V42.31a5.31,5.31,0,0,0-10.62,0V52.94H138.31V42.31a5.31,5.31,0,0,0-10.62,0V52.94H95.81V42.31a5.31,5.31,0,0,0-10.62,0V52.94h-23A14.16,14.16,0,0,0,48,67.1V192.83A14.16,14.16,0,0,0,62.17,207H203.84A14.16,14.16,0,0,0,218,192.83V67.1A14.16,14.16,0,0,0,203.84,52.94Zm3.54,139.89a3.55,3.55,0,0,1-3.54,3.55H62.17a3.54,3.54,0,0,1-3.54-3.55V67.1a3.54,3.54,0,0,1,3.54-3.54h23V74.19a5.31,5.31,0,0,0,10.62,0V63.56h31.88V74.19a5.31,5.31,0,0,0,10.62,0V63.56h31.88V74.19a5.31,5.31,0,0,0,10.62,0V63.56h23a3.55,3.55,0,0,1,3.54,3.54Z" transform="translate(-3 -4.5)"/><rect class="cls-3" x="82.19" y="96.25" width="21.25" height="15.94"/><rect class="cls-3" x="82.19" y="122.81" width="21.25" height="15.94"/><rect class="cls-3" x="82.19" y="149.38" width="21.25" height="15.94"/><rect class="cls-3" x="119.38" y="149.38" width="21.25" height="15.94"/><rect class="cls-3" x="119.38" y="122.81" width="21.25" height="15.94"/><rect class="cls-3" x="119.38" y="96.25" width="21.25" height="15.94"/><rect class="cls-3" x="156.56" y="149.38" width="21.25" height="15.94"/><rect class="cls-3" x="156.56" y="122.81" width="21.25" height="15.94"/><rect class="cls-3" x="156.56" y="96.25" width="21.25" height="15.94"/></g></svg>