<?xml version="1.0" encoding="utf-8"?>
<!-- Generator: Adobe Illustrator 23.0.3, SVG Export Plug-In . SVG Version: 6.00 Build 0)  -->
<svg version="1.1" id="Layer_1" xmlns="http://www.w3.org/2000/svg" xmlns:xlink="http://www.w3.org/1999/xlink" x="0px" y="0px"
	 viewBox="0 0 600 584" style="enable-background:new 0 0 600 584;" xml:space="preserve">
<style type="text/css">
	.st0{fill:#6CC1EC;}
	.st1{fill:#FFFFFF;}
	.st2{fill:#10487B;stroke:#10487B;stroke-miterlimit:10;}
</style>
<circle class="st0" cx="299" cy="230.8" r="218.5"/>
<g transform="translate(0,-952.36218)">
	<g>
		<path class="st1" d="M235,1047.2c-5,0.1-9.1,4.2-9,9.2c0,0,0,0.1,0,0.1v6.1h-51.7c-0.3,0-0.6,0-1,0c-4.7,0.5-8.2,4.4-8.2,9.1v78.4
			c0,0.2,0,0.4,0,0.6v161c0,5,4.1,9.1,9.1,9.1h255.4c0.3,0,0.6,0,1,0c0.3,0,0.6-0.1,0.9-0.2c4.3-0.9,7.3-4.6,7.3-8.9v-161
			c0-0.3,0-0.6,0-0.9v-78.1c0-5-4.1-9.1-9.1-9.1H378v-6.1c0.1-5-3.9-9.2-8.9-9.3c-0.1,0-0.2,0-0.3,0c-5,0.1-9.1,4.2-9,9.2
			c0,0,0,0.1,0,0.1v6.1H244.2v-6.1c0.1-5-3.9-9.2-8.9-9.3C235.2,1047.2,235.1,1047.2,235,1047.2L235,1047.2z M183.4,1080.8H226v4.3
			c-10.2,3.8-17.9,13.9-17.9,26.1c0,15.7,12.6,27.7,27,27.7s27-12,27-27.7c0-12.2-7.7-22.3-17.9-26.1v-4.3h115.5v4.3
			c-10.2,3.8-17.9,13.9-17.9,26.1c0,15.7,12.6,27.7,27,27.7c14.4,0,27-12,27-27.7c0-12.2-7.7-22.3-17.9-26.1v-4.3h42.6v60.8H183.4
			L183.4,1080.8z M226.3,1107.9c1.4,4.8,6.5,7.6,11.4,6.1c2.9-0.9,5.3-3.2,6.1-6.1c0.5,1.1,0.8,2.2,0.8,3.3c0,4.5-3.8,8.7-9.5,8.7
			c-5.7,0-9.5-4.3-9.5-8.7C225.6,1110,225.9,1108.9,226.3,1107.9z M360.1,1107.9c1.4,4.8,6.5,7.6,11.4,6.1c2.9-0.9,5.3-3.2,6.1-6.1
			c0.5,1.1,0.8,2.2,0.8,3.3c0,4.5-3.8,8.7-9.5,8.7c-5.7,0-9.5-4.3-9.5-8.7C359.4,1110,359.7,1108.9,360.1,1107.9z M183.4,1159.8
			h237.2v142.8H183.4V1159.8z M200.7,1162.8c-4.7,0.5-8.2,4.4-8.2,9.1v48.6c0,5,4.1,9.1,9.1,9.1h48.7c5,0,9.1-4.1,9.1-9.1v-48.6
			c0-5-4.1-9.1-9.1-9.1h-48.7C201.3,1162.8,201,1162.8,200.7,1162.8z M276.7,1162.8c-4.7,0.5-8.2,4.4-8.2,9.1v48.6
			c0,5,4.1,9.1,9.1,9.1h48.7c5,0,9.1-4.1,9.1-9.1v-48.6c0-5-4.1-9.1-9.1-9.1h-48.7C277.3,1162.8,277,1162.8,276.7,1162.8z
			 M352.7,1162.8c-4.7,0.5-8.2,4.4-8.2,9.1v48.6c0,5,4.1,9.1,9.1,9.1h48.7c5,0,9.1-4.1,9.1-9.1v-48.6c0-5-4.1-9.1-9.1-9.1h-48.7
			C353.4,1162.8,353,1162.8,352.7,1162.8z M210.8,1181.1h30.4v30.4h-30.4V1181.1z M286.8,1181.1h30.4v30.4h-30.4V1181.1z
			 M362.8,1181.1h30.4v30.4h-30.4L362.8,1181.1z M200.7,1232.7c-4.7,0.5-8.2,4.4-8.2,9.1v48.6c0,5,4.1,9.1,9.1,9.1h48.7
			c5,0,9.1-4.1,9.1-9.1v-48.6c0-5-4.1-9.1-9.1-9.1h-48.7C201.3,1232.7,201,1232.7,200.7,1232.7z M276.7,1232.7
			c-4.7,0.5-8.2,4.4-8.2,9.1v48.6c0,5,4.1,9.1,9.1,9.1h48.7c5,0,9.1-4.1,9.1-9.1v-48.6c0-5-4.1-9.1-9.1-9.1h-48.7
			C277.3,1232.7,277,1232.7,276.7,1232.7z M352.7,1232.7c-4.7,0.5-8.2,4.4-8.2,9.1v48.6c0,5,4.1,9.1,9.1,9.1h48.7
			c5,0,9.1-4.1,9.1-9.1v-48.6c0-5-4.1-9.1-9.1-9.1h-48.7C353.4,1232.7,353,1232.7,352.7,1232.7z M210.8,1251h30.4v30.4h-30.4V1251z
			 M286.8,1251h30.4v30.4h-30.4V1251z M362.8,1251h30.4v30.4h-30.4L362.8,1251z"/>
	</g>
</g>
<g>
	<g>
		<path class="st2" d="M147.7,499.3c-0.8-0.6-1.4-1.5-1.4-2.7c0-1.8,1.5-3.2,3.3-3.2c1,0,1.6,0.3,2,0.6c3.3,2.6,6.8,4.1,11.1,4.1
			c4.3,0,7-2,7-5V493c0-2.8-1.6-4.4-9-6.1c-8.5-2-13.2-4.5-13.2-11.9v-0.1c0-6.8,5.7-11.5,13.6-11.5c5,0,9,1.3,12.6,3.7
			c0.8,0.5,1.5,1.4,1.5,2.8c0,1.8-1.5,3.2-3.3,3.2c-0.7,0-1.2-0.2-1.8-0.5c-3.1-2-6-3-9.1-3c-4.1,0-6.5,2.1-6.5,4.7v0.1
			c0,3.1,1.8,4.4,9.5,6.3c8.4,2,12.7,5.1,12.7,11.6v0.1c0,7.4-5.9,11.9-14.2,11.9C157.3,504.3,152.2,502.6,147.7,499.3z"/>
		<path class="st2" d="M180.5,483.9v-0.1c0-11.2,8.6-20.6,20.9-20.6s20.7,9.3,20.7,20.5v0.1c0,11.2-8.6,20.6-20.9,20.6
			C189.1,504.4,180.5,495.1,180.5,483.9z M214.8,483.9v-0.1c0-7.7-5.6-14.1-13.5-14.1c-7.9,0-13.4,6.3-13.4,14v0.1
			c0,7.7,5.6,14.1,13.5,14.1S214.8,491.6,214.8,483.9z"/>
		<path class="st2" d="M227.7,467.1c0-1.9,1.5-3.5,3.5-3.5c1.9,0,3.5,1.5,3.5,3.5v30.2h18c1.8,0,3.2,1.4,3.2,3.2
			c0,1.8-1.4,3.2-3.2,3.2h-21.5c-2,0-3.5-1.5-3.5-3.5V467.1z"/>
		<path class="st2" d="M260.5,467.1c0-1.9,1.5-3.5,3.5-3.5c1.9,0,3.5,1.5,3.5,3.5v33.4c0,1.9-1.5,3.5-3.5,3.5c-2,0-3.5-1.5-3.5-3.5
			V467.1z"/>
		<path class="st2" d="M273.5,483.9v-0.1c0-11.3,8.5-20.6,20.5-20.6c6.1,0,10.2,1.8,13.6,4.5c0.7,0.6,1.4,1.5,1.4,2.8
			c0,1.9-1.5,3.4-3.5,3.4c-1,0-1.6-0.3-2.1-0.7c-2.7-2.2-5.7-3.6-9.5-3.6c-7.6,0-13.1,6.2-13.1,14v0.1c0,7.8,5.5,14.1,13.1,14.1
			c4.2,0,7-1.4,9.9-3.8c0.5-0.5,1.2-0.8,2.1-0.8c1.8,0,3.3,1.5,3.3,3.2c0,1.1-0.5,1.9-1.1,2.5c-3.8,3.3-8,5.3-14.4,5.3
			C282.1,504.4,273.5,495.3,273.5,483.9z"/>
		<path class="st2" d="M314.7,467.1c0-1.9,1.5-3.5,3.5-3.5c1.9,0,3.5,1.5,3.5,3.5v33.4c0,1.9-1.5,3.5-3.5,3.5c-2,0-3.5-1.5-3.5-3.5
			V467.1z"/>
		<path class="st2" d="M339.3,470.4h-9.7c-1.8,0-3.2-1.5-3.2-3.2c0-1.8,1.4-3.2,3.2-3.2H356c1.8,0,3.2,1.5,3.2,3.2
			c0,1.8-1.4,3.2-3.2,3.2h-9.7v30.1c0,1.9-1.6,3.5-3.5,3.5c-1.9,0-3.5-1.5-3.5-3.5V470.4z"/>
		<path class="st2" d="M362.9,486.8v-19.7c0-1.9,1.5-3.5,3.5-3.5c1.9,0,3.5,1.5,3.5,3.5v19.4c0,7.4,3.8,11.3,10.1,11.3
			c6.2,0,10-3.7,10-11v-19.7c0-1.9,1.5-3.5,3.5-3.5c1.9,0,3.5,1.5,3.5,3.5v19.4c0,11.9-6.7,17.8-17.1,17.8
			C369.5,504.3,362.9,498.3,362.9,486.8z"/>
		<path class="st2" d="M403.7,467.4c0-2,1.5-3.5,3.5-3.5h11.3c12.5,0,21.1,8.6,21.1,19.8v0.1c0,11.2-8.6,19.9-21.1,19.9h-11.3
			c-2,0-3.5-1.5-3.5-3.5V467.4z M418.5,497.3c8.4,0,13.8-5.6,13.8-13.4v-0.1c0-7.8-5.5-13.5-13.8-13.5h-7.8v27H418.5z"/>
		<path class="st2" d="M111.8,540.7c0-2,1.5-3.5,3.5-3.5h12.2c9.3,0,15.1,5.3,15.1,13.3v0.1c0,8.9-7.2,13.6-15.9,13.6h-7.9v9.6
			c0,1.9-1.5,3.5-3.5,3.5c-2,0-3.5-1.5-3.5-3.5V540.7z M126.9,557.8c5.3,0,8.6-3,8.6-7.1v-0.1c0-4.7-3.4-7.1-8.6-7.1h-8.1v14.3
			H126.9z"/>
		<path class="st2" d="M146.9,573.4v-32.7c0-2,1.5-3.5,3.5-3.5h23.1c1.7,0,3.1,1.4,3.1,3.1c0,1.8-1.4,3.1-3.1,3.1h-19.7v10.3H171
			c1.7,0,3.1,1.4,3.1,3.2c0,1.7-1.4,3.1-3.1,3.1h-17.1v10.7h19.9c1.7,0,3.1,1.4,3.1,3.1c0,1.8-1.4,3.1-3.1,3.1h-23.4
			C148.4,576.9,146.9,575.4,146.9,573.4z"/>
		<path class="st2" d="M182.1,540.7c0-2,1.5-3.5,3.5-3.5h14.2c5,0,8.9,1.5,11.5,4c2.1,2.2,3.3,5.1,3.3,8.6v0.1
			c0,6.4-3.7,10.2-9,11.9l7.6,9.6c0.7,0.9,1.1,1.6,1.1,2.7c0,1.9-1.6,3.2-3.4,3.2c-1.6,0-2.6-0.7-3.4-1.8l-9.7-12.3h-8.8v10.7
			c0,1.9-1.5,3.5-3.5,3.5c-2,0-3.5-1.5-3.5-3.5V540.7z M199.3,556.9c5,0,8.2-2.6,8.2-6.6v-0.1c0-4.3-3.1-6.6-8.2-6.6h-10.2v13.4
			H199.3z"/>
		<path class="st2" d="M220.4,540.5c0-1.9,1.5-3.5,3.5-3.5h0.7c1.5,0,2.6,0.8,3.2,1.9l12,18.9l12.1-18.9c0.7-1.2,1.8-1.8,3.2-1.8
			h0.7c2,0,3.5,1.6,3.5,3.5v33.3c0,1.9-1.5,3.5-3.5,3.5c-1.9,0-3.5-1.6-3.5-3.5v-23.9l-9.7,14.6c-0.7,1.1-1.6,1.8-3,1.8
			c-1.2,0-2.2-0.7-2.9-1.8l-9.7-14.5v23.8c0,1.9-1.5,3.4-3.5,3.4s-3.4-1.5-3.4-3.4V540.5z"/>
		<path class="st2" d="M264.6,572.4l14.8-33c0.8-1.8,2.2-2.8,4.2-2.8h0.3c2,0,3.4,1.1,4.1,2.8l14.8,33c0.3,0.5,0.4,1,0.4,1.5
			c0,1.9-1.4,3.4-3.3,3.4c-1.6,0-2.8-1-3.4-2.4l-3.2-7.4h-19.3l-3.4,7.7c-0.6,1.4-1.8,2.2-3.2,2.2c-1.8,0-3.2-1.4-3.2-3.2
			C264.1,573.5,264.3,573,264.6,572.4z M290.6,561.1l-7-16.1l-7,16.1H290.6z"/>
		<path class="st2" d="M307.9,540.5c0-1.9,1.5-3.5,3.5-3.5h0.7c1.7,0,2.7,0.9,3.6,2l19.9,25.7v-24.4c0-1.9,1.5-3.4,3.4-3.4
			c1.9,0,3.5,1.5,3.5,3.4v33.4c0,1.9-1.5,3.5-3.4,3.5h-0.3c-1.6,0-2.7-0.9-3.6-2.1l-20.5-26.5v25.2c0,1.9-1.5,3.4-3.4,3.4
			c-1.9,0-3.5-1.5-3.5-3.4V540.5z"/>
		<path class="st2" d="M350,573.4v-32.7c0-2,1.5-3.5,3.5-3.5h23.1c1.7,0,3.1,1.4,3.1,3.1c0,1.8-1.4,3.1-3.1,3.1H357v10.3h17.1
			c1.7,0,3.1,1.4,3.1,3.2c0,1.7-1.4,3.1-3.1,3.1H357v10.7h19.9c1.7,0,3.1,1.4,3.1,3.1c0,1.8-1.4,3.1-3.1,3.1h-23.4
			C351.5,576.9,350,575.4,350,573.4z"/>
		<path class="st2" d="M385.2,540.5c0-1.9,1.5-3.5,3.5-3.5h0.7c1.7,0,2.7,0.9,3.6,2l19.9,25.7v-24.4c0-1.9,1.5-3.4,3.4-3.4
			c1.9,0,3.5,1.5,3.5,3.4v33.4c0,1.9-1.5,3.5-3.4,3.5h-0.3c-1.6,0-2.7-0.9-3.6-2.1l-20.5-26.5v25.2c0,1.9-1.5,3.4-3.4,3.4
			c-1.9,0-3.5-1.5-3.5-3.4V540.5z"/>
		<path class="st2" d="M437,543.6h-9.7c-1.8,0-3.2-1.5-3.2-3.2c0-1.8,1.4-3.2,3.2-3.2h26.4c1.8,0,3.2,1.5,3.2,3.2
			c0,1.8-1.4,3.2-3.2,3.2h-9.7v30.1c0,1.9-1.6,3.5-3.5,3.5c-1.9,0-3.5-1.5-3.5-3.5V543.6z"/>
		<path class="st2" d="M461.2,573.4v-32.7c0-2,1.5-3.5,3.5-3.5h23.1c1.7,0,3.1,1.4,3.1,3.1c0,1.8-1.4,3.1-3.1,3.1h-19.7v10.3h17.1
			c1.7,0,3.1,1.4,3.1,3.2c0,1.7-1.4,3.1-3.1,3.1h-17.1v10.7h19.9c1.7,0,3.1,1.4,3.1,3.1c0,1.8-1.4,3.1-3.1,3.1h-23.4
			C462.8,576.9,461.2,575.4,461.2,573.4z"/>
	</g>
</g>
</svg>
