<?xml version="1.0" encoding="utf-8"?>
<!-- Generator: Adobe Illustrator 23.0.3, SVG Export Plug-In . SVG Version: 6.00 Build 0)  -->
<svg version="1.1" id="Layer_1" xmlns="http://www.w3.org/2000/svg" xmlns:xlink="http://www.w3.org/1999/xlink" x="0px" y="0px"
	 viewBox="0 0 600 515" style="enable-background:new 0 0 600 515;" xml:space="preserve">
<style type="text/css">
	.st0{fill:#6CC1EC;}
	.st1{fill:#FFFFFF;}
	.st2{fill:#10487B;stroke:#10487B;stroke-miterlimit:10;}
</style>
<circle class="st0" cx="300" cy="231.3" r="218.5"/>
<g>
	<g>
		<path class="st1" d="M360.6,82.2h-15.2c-1.3-3.3-4-7.3-7.3-9.9c-6-6-14.6-9.9-23.8-9.9h-23.8c-13.9,0-25.8,8.6-30.4,19.9h-15.2
			c-7.3,0-13.2,6-13.2,13.2v25.8c0,7.3,6,13.2,13.2,13.2h115.2c7.3,0,13.2-6,13.2-13.2V95.5C373.8,88.2,367.8,82.2,360.6,82.2z
			 M303,98.8c-7.3,0-13.2-6-13.2-13.2s6-13.2,13.2-13.2c7.3,0,13.2,6,13.2,13.2S310.3,98.8,303,98.8z"/>
		<path class="st1" d="M424.1,100.8h-38.3v13.9h21.7c4.6,0.7,8.6,4.6,8.6,9.3v225.7c0,5.1-4.1,9.3-9.3,9.3H244.7h-43.8
			c-6.1,0-11.1-5-11.1-11.1V304v-0.7V123.9c0-5.1,4.1-9.3,9.3-9.3h19.8v-13.9h-37c-7.7,0-13.9,6.2-13.9,13.9v251.5
			c0,7.7,6.2,13.9,13.9,13.9h241.6c7.7,0,13.9-6.2,13.9-13.9V114.7C437.3,106.7,431.4,100.8,424.1,100.8z"/>
	</g>
	<g>
		<g>
			<g>
				<path class="st1" d="M389.3,183.9h-53.6c-4.8,0-8.6-3.9-8.6-8.6c0-4.8,3.9-8.6,8.6-8.6h53.6c4.8,0,8.6,3.9,8.6,8.6
					C397.9,180.1,394,183.9,389.3,183.9z"/>
				<path class="st1" d="M373.4,213.9h-38c-4.8,0-8.6-3.9-8.6-8.6c0-4.8,3.9-8.6,8.6-8.6h38c4.8,0,8.6,3.9,8.6,8.6
					C382.1,210,378.2,213.9,373.4,213.9z"/>
			</g>
			<path class="st1" d="M291.4,162.4c-2.1-2.1-4.9-3.3-8-3.3c-3,0-5.8,1.2-8,3.3l-31.8,31.8l-17.1-17.1c-4.4-4.4-11.5-4.4-15.9,0
				c-4.4,4.4-4.4,11.5,0,15.9l25,25c2.1,2.1,4.9,3.3,8,3.3s5.8-1.2,8-3.3l39.8-39.8c2.1-2.1,3.3-4.9,3.3-8S293.6,164.5,291.4,162.4z
				"/>
		</g>
		<g>
			<g>
				<path class="st1" d="M389,286.4h-53.6c-4.8,0-8.6-3.9-8.6-8.6c0-4.8,3.9-8.6,8.6-8.6H389c4.8,0,8.6,3.9,8.6,8.6
					C397.7,282.6,393.8,286.4,389,286.4z"/>
				<path class="st1" d="M373.2,316.4h-38c-4.8,0-8.6-3.9-8.6-8.6c0-4.8,3.9-8.6,8.6-8.6h38c4.8,0,8.6,3.9,8.6,8.6
					C381.8,312.5,378,316.4,373.2,316.4z"/>
			</g>
			<path class="st1" d="M270.7,335.9h-39.8c-12.8,0-23.3-10.4-23.3-23.3v-39.8c0-12.8,10.4-23.3,23.3-23.3h39.8
				c12.8,0,23.3,10.4,23.3,23.3v39.8C294,325.5,283.5,335.9,270.7,335.9z M230.9,269.8c-1.7,0-3,1.4-3,3v39.8c0,1.7,1.4,3,3,3h39.8
				c1.7,0,3-1.4,3-3v-39.8c0-1.7-1.4-3-3-3H230.9z"/>
		</g>
	</g>
</g>
<g>
	<g>
		<path class="st2" d="M72.7,490v-0.1c0-11.3,8.5-20.6,20.5-20.6c6.1,0,10.2,1.8,13.6,4.5c0.7,0.6,1.4,1.5,1.4,2.8
			c0,1.9-1.5,3.4-3.5,3.4c-1,0-1.6-0.3-2.1-0.7c-2.7-2.2-5.7-3.6-9.5-3.6c-7.6,0-13.1,6.2-13.1,14v0.1c0,7.8,5.5,14.1,13.1,14.1
			c4.2,0,7-1.4,9.9-3.8c0.5-0.5,1.3-0.8,2.1-0.8c1.8,0,3.3,1.5,3.3,3.2c0,1.1-0.5,1.9-1.1,2.5c-3.8,3.3-8,5.3-14.4,5.3
			C81.4,510.5,72.7,501.5,72.7,490z"/>
		<path class="st2" d="M111.3,505.3l14.8-33c0.8-1.8,2.2-2.8,4.2-2.8h0.3c2,0,3.4,1.1,4.1,2.8l14.8,33c0.3,0.5,0.4,1,0.4,1.5
			c0,1.9-1.4,3.4-3.3,3.4c-1.6,0-2.8-1-3.4-2.4l-3.2-7.4h-19.3l-3.4,7.7c-0.6,1.4-1.8,2.2-3.2,2.2c-1.8,0-3.2-1.4-3.2-3.2
			C110.8,506.3,111,505.8,111.3,505.3z M137.3,494l-7-16.1l-7,16.1H137.3z"/>
		<path class="st2" d="M154.7,473.3c0-1.9,1.5-3.5,3.5-3.5h0.7c1.5,0,2.6,0.8,3.2,1.9l12,18.9l12.1-18.9c0.7-1.2,1.8-1.8,3.2-1.8
			h0.7c2,0,3.5,1.6,3.5,3.5v33.3c0,1.9-1.5,3.5-3.5,3.5c-1.9,0-3.5-1.6-3.5-3.5v-23.9l-9.7,14.6c-0.7,1.1-1.6,1.8-3,1.8
			c-1.2,0-2.2-0.7-2.9-1.8l-9.7-14.5v23.8c0,1.9-1.5,3.4-3.5,3.4s-3.4-1.5-3.4-3.4V473.3z"/>
		<path class="st2" d="M201.1,473.6c0-2,1.5-3.5,3.5-3.5H219c4.5,0,8.1,1.2,10.4,3.5c1.8,1.8,2.7,3.9,2.7,6.6v0.1
			c0,4.8-2.7,7.3-5.7,8.9c4.7,1.6,7.9,4.3,7.9,9.7v0.1c0,7.1-5.9,10.9-14.7,10.9h-14.9c-2,0-3.5-1.5-3.5-3.5V473.6z M217.6,486.8
			c4.5,0,7.5-1.8,7.5-5.4v-0.1c0-3.1-2.5-5.1-7-5.1H208v10.6H217.6z M219.6,503.6c4.8,0,7.7-1.9,7.7-5.5V498c0-3.4-2.7-5.3-8.2-5.3
			H208v10.9H219.6z"/>
		<path class="st2" d="M239.7,473.2c0-1.9,1.5-3.5,3.5-3.5c1.9,0,3.5,1.5,3.5,3.5v33.4c0,1.9-1.5,3.5-3.5,3.5c-2,0-3.5-1.5-3.5-3.5
			V473.2z"/>
		<path class="st2" d="M252.7,490v-0.1c0-11.2,8.6-20.6,20.9-20.6s20.7,9.3,20.7,20.5v0.1c0,11.2-8.6,20.6-20.9,20.6
			C261.2,510.5,252.7,501.2,252.7,490z M287,490v-0.1c0-7.7-5.6-14.1-13.5-14.1c-7.9,0-13.4,6.3-13.4,14v0.1
			c0,7.7,5.6,14.1,13.5,14.1S287,497.8,287,490z"/>
		<path class="st2" d="M314.1,473.6c0-2,1.5-3.5,3.5-3.5H329c12.5,0,21.1,8.6,21.1,19.8v0.1c0,11.2-8.6,19.9-21.1,19.9h-11.3
			c-2,0-3.5-1.5-3.5-3.5V473.6z M329,503.4c8.4,0,13.8-5.6,13.8-13.4v-0.1c0-7.8-5.5-13.5-13.8-13.5h-7.8v27H329z"/>
		<path class="st2" d="M355.7,506.3v-32.7c0-2,1.5-3.5,3.5-3.5h23.1c1.7,0,3.1,1.4,3.1,3.1c0,1.8-1.4,3.1-3.1,3.1h-19.7v10.3h17.1
			c1.7,0,3.1,1.4,3.1,3.2c0,1.7-1.4,3.1-3.1,3.1h-17.1v10.7h19.9c1.7,0,3.1,1.4,3.1,3.1c0,1.8-1.4,3.1-3.1,3.1h-23.4
			C357.3,509.8,355.7,508.3,355.7,506.3z"/>
		<path class="st2" d="M391,473.2c0-1.9,1.5-3.5,3.5-3.5c1.9,0,3.5,1.5,3.5,3.5v30.2h18c1.8,0,3.2,1.4,3.2,3.2
			c0,1.8-1.4,3.2-3.2,3.2h-21.5c-2,0-3.5-1.5-3.5-3.5V473.2z"/>
		<path class="st2" d="M437.5,473.6c0-2,1.5-3.5,3.5-3.5h11.3c12.5,0,21.1,8.6,21.1,19.8v0.1c0,11.2-8.6,19.9-21.1,19.9H441
			c-2,0-3.5-1.5-3.5-3.5V473.6z M452.3,503.4c8.4,0,13.8-5.6,13.8-13.4v-0.1c0-7.8-5.5-13.5-13.8-13.5h-7.8v27H452.3z"/>
		<path class="st2" d="M479.5,473.2c0-1.9,1.5-3.5,3.5-3.5c1.9,0,3.5,1.5,3.5,3.5v33.4c0,1.9-1.5,3.5-3.5,3.5c-2,0-3.5-1.5-3.5-3.5
			V473.2z M481.1,465.8c0-0.4,0.2-0.9,0.5-1.2l3.2-5c0.6-1,1.5-1.6,2.7-1.6c1.8,0,4.1,1.1,4.1,2.2c0,0.6-0.4,1.2-1,1.7l-3.8,3.6
			c-1.4,1.2-2.4,1.5-4,1.5C481.9,467,481.1,466.6,481.1,465.8z"/>
		<path class="st2" d="M492,505.3l14.8-33c0.8-1.8,2.2-2.8,4.2-2.8h0.3c2,0,3.4,1.1,4.1,2.8l14.8,33c0.3,0.5,0.4,1,0.4,1.5
			c0,1.9-1.4,3.4-3.3,3.4c-1.6,0-2.8-1-3.4-2.4l-3.2-7.4h-19.3l-3.4,7.7c-0.6,1.4-1.8,2.2-3.2,2.2c-1.8,0-3.2-1.4-3.2-3.2
			C491.5,506.3,491.7,505.8,492,505.3z M518,494l-7-16.1l-7,16.1H518z"/>
	</g>
</g>
</svg>
