<?xml version="1.0" encoding="utf-8"?>
<!-- Generator: Adobe Illustrator 23.0.3, SVG Export Plug-In . SVG Version: 6.00 Build 0)  -->
<svg version="1.1" id="Layer_1" xmlns="http://www.w3.org/2000/svg" xmlns:xlink="http://www.w3.org/1999/xlink" x="0px" y="0px"
	 viewBox="0 0 600 515" style="enable-background:new 0 0 600 515;" xml:space="preserve">
<style type="text/css">
	.st0{fill:#6CC1EC;}
	.st1{fill:#FFFFFF;}
	.st2{fill:#10487B;stroke:#10487B;stroke-miterlimit:10;}
</style>
<circle class="st0" cx="300" cy="231.3" r="218.5"/>
<g>
	<path class="st1" d="M385.9,227.8c-4.7,0-9.3-1.7-12.9-5.2c-7.7-7.6-18.9-19.7-28.3-34.5c-11.6-18.2-17.5-35.8-17.7-52.3
		c-0.1-31.1,24-57.1,54.9-59.4l0.5,0h3.4c0,0,0,0,0,0c32.4,0,58.8,26.3,58.8,58.7c0,16.6-5.9,34.3-17.5,52.7
		c-9.4,14.9-20.7,27.2-28.5,34.8C395.2,226,390.5,227.8,385.9,227.8z M382.7,89.6c-23.9,1.9-42.5,22-42.4,46
		c0.3,33,29.5,65.2,42,77.5c2,1.9,5.2,1.9,7.1,0c12.6-12.4,42-44.9,42-78.1c0-25.1-20.5-45.5-45.6-45.5c0,0,0,0,0,0H382.7z
		 M385.8,162.6c-15.2,0-27.5-12.3-27.5-27.5s12.3-27.5,27.5-27.5c15.2,0,27.5,12.3,27.5,27.5S401,162.6,385.8,162.6z M385.8,120.9
		c-7.8,0-14.2,6.4-14.2,14.2c0,7.8,6.4,14.2,14.2,14.2c7.8,0,14.2-6.4,14.2-14.2C400.1,127.3,393.7,120.9,385.8,120.9z"/>
	<path class="st1" d="M196.3,378.3c-4.8,0-9.4-1.9-12.8-5.3c-17-16.8-45.6-50.3-45.9-86.9c-0.2-31.1,24-57.2,55-59.4l0.5,0h3.4
		c0,0,0,0,0,0c15.7,0,30.5,6.1,41.6,17.2c11.1,11.1,17.2,25.9,17.2,41.6c0,16.6-5.9,34.3-17.5,52.7c-9.4,14.9-20.7,27.2-28.5,34.8
		C205.8,376.4,201.3,378.3,196.3,378.3C196.4,378.3,196.4,378.3,196.3,378.3z M193.3,240c-23.9,1.8-42.6,22-42.4,46.1
		c0.1,13.6,5.8,41.8,42,77.5c1,0.9,2.2,1.5,3.5,1.5c0,0,0,0,0,0h0c0,0,0,0,0,0c1.3,0,2.6-0.5,3.5-1.5c12.6-12.4,42-44.9,42-78.1
		c0-12.2-4.8-23.6-13.4-32.2c-8.6-8.6-20-13.3-32.2-13.3c0,0,0,0,0,0H193.3z M196.3,313c-15.2,0-27.5-12.3-27.5-27.5
		c0-15.2,12.3-27.5,27.5-27.5c15.2,0,27.5,12.3,27.5,27.5C223.8,300.7,211.5,313,196.3,313z M196.3,271.3c-7.8,0-14.2,6.4-14.2,14.2
		c0,7.8,6.4,14.2,14.2,14.2c7.8,0,14.2-6.4,14.2-14.2C210.6,277.7,204.2,271.3,196.3,271.3z"/>
	<path class="st1" d="M311.8,360.7c-3.7,0-7.5-1.3-10.5-4l-0.2-0.1l-31.4-30c-0.2-0.2-0.4-0.4-0.6-0.6c-7-7.3-6.7-19,0.6-26
		l31.7-30.1c2.8-2.5,6.4-3.9,10.1-4c8.7-0.2,15.9,6.7,16.1,15.3l0,0.2v10.8c22.3-4,39-23.4,39-46.8l0-6.6h40.5l0,6.6
		c0,23.1-8.9,45-25.1,61.6c-14.7,15-33.8,24.1-54.5,26.1l0,12.2c-0.1,3.7-1.5,7.3-4,10.1C320.4,359,316.1,360.7,311.8,360.7z
		 M310.2,346.9c1,0.9,2.5,0.8,3.4-0.2c0.4-0.4,0.6-1,0.6-1.5v-24.7l6.5-0.2c19.7-0.5,38.1-8.5,51.8-22.5
		c12.2-12.5,19.5-28.5,21-45.7h-14.1c-1.5,13.3-7.3,25.8-16.7,35.6c-11,11.4-25.7,18-41.6,18.6l-6.9,0.3v-24.9
		c-0.1-1.3-1.2-2.4-2.5-2.3c-0.6,0-1.1,0.2-1.5,0.6l-31.4,29.9c-2,1.9-2.1,5.2-0.1,7.2c0.1,0.1,0.1,0.1,0.2,0.2L310.2,346.9z"/>
	<path class="st1" d="M213.2,213.2h-40.5l0-6.6c0-23.2,8.9-45,25.1-61.6c14.7-15,33.8-24.2,54.5-26.2l0-12.3c0.1-3.7,1.5-7.3,4-10.1
		c5.8-6.5,15.7-7,22.2-1.2l0.2,0.2l31.4,30.1c0.2,0.2,0.4,0.4,0.6,0.6c7,7.3,6.7,19-0.6,26l-31.5,30c-2.9,2.7-6.6,4.1-10.5,4.2
		c-8.7,0.1-15.8-6.8-15.9-15.5l0-0.1v-10.8c-22.3,4-38.9,23.4-39,46.8L213.2,213.2z M186.2,199.9h14.1c1.5-13.3,7.3-25.8,16.7-35.6
		c11-11.4,25.7-18,41.6-18.6l6.9-0.3v25c0,1.3,1.1,2.4,2.5,2.4c0,0,0,0,0,0c0.6,0,1.2-0.2,1.6-0.6l31.4-29.9c2-1.9,2.1-5.2,0.2-7.2
		c-0.1-0.1-0.1-0.1-0.2-0.2l-31.3-30c-1-0.8-2.5-0.7-3.4,0.2c-0.4,0.4-0.6,1-0.6,1.5v24.7l-6.5,0.2c-19.7,0.5-38.1,8.5-51.8,22.6
		C195.1,166.7,187.7,182.7,186.2,199.9z"/>
</g>
<g>
	<g>
		<path class="st2" d="M29.1,483.8v-0.1c0-11.3,8.5-20.6,20.5-20.6c6.1,0,10.2,1.8,13.6,4.5c0.7,0.6,1.4,1.5,1.4,2.8
			c0,1.9-1.5,3.4-3.5,3.4c-1,0-1.6-0.3-2.1-0.7c-2.7-2.2-5.7-3.6-9.5-3.6c-7.6,0-13.1,6.2-13.1,14v0.1c0,7.8,5.5,14.1,13.1,14.1
			c4.2,0,7-1.4,9.9-3.8c0.5-0.5,1.2-0.8,2.1-0.8c1.8,0,3.3,1.5,3.3,3.2c0,1.1-0.5,1.9-1.1,2.5c-3.8,3.3-8,5.3-14.4,5.3
			C37.7,504.2,29.1,495.2,29.1,483.8z"/>
		<path class="st2" d="M67.7,499l14.8-33c0.8-1.8,2.2-2.8,4.2-2.8H87c2,0,3.4,1.1,4.1,2.8l14.8,33c0.3,0.5,0.4,1,0.4,1.5
			c0,1.9-1.4,3.4-3.3,3.4c-1.6,0-2.8-1-3.4-2.4l-3.2-7.4H77l-3.4,7.7c-0.6,1.4-1.8,2.2-3.2,2.2c-1.8,0-3.2-1.4-3.2-3.2
			C67.2,500.1,67.4,499.6,67.7,499z M93.7,487.7l-7-16.1l-7,16.1H93.7z"/>
		<path class="st2" d="M111,467.1c0-1.9,1.5-3.5,3.5-3.5h0.7c1.5,0,2.6,0.8,3.2,1.9l12,18.9l12.1-18.9c0.7-1.2,1.8-1.8,3.2-1.8h0.7
			c2,0,3.5,1.6,3.5,3.5v33.3c0,1.9-1.5,3.5-3.5,3.5c-1.9,0-3.5-1.6-3.5-3.5v-23.9l-9.7,14.6c-0.7,1.1-1.6,1.8-3,1.8
			c-1.2,0-2.2-0.7-2.9-1.8l-9.7-14.5v23.8c0,1.9-1.5,3.4-3.5,3.4c-1.9,0-3.4-1.5-3.4-3.4V467.1z"/>
		<path class="st2" d="M157.5,467.3c0-2,1.5-3.5,3.5-3.5h14.3c4.5,0,8.1,1.2,10.4,3.5c1.8,1.8,2.7,3.9,2.7,6.6v0.1
			c0,4.8-2.7,7.3-5.7,8.9c4.7,1.6,7.9,4.3,7.9,9.7v0.1c0,7.1-5.9,10.9-14.7,10.9H161c-2,0-3.5-1.5-3.5-3.5V467.3z M173.9,480.5
			c4.5,0,7.5-1.8,7.5-5.4V475c0-3.1-2.5-5.1-7-5.1h-10.1v10.6H173.9z M176,497.3c4.8,0,7.7-1.9,7.7-5.5v-0.1c0-3.4-2.7-5.3-8.2-5.3
			h-11.1v10.9H176z"/>
		<path class="st2" d="M196.1,466.9c0-1.9,1.5-3.5,3.5-3.5c1.9,0,3.5,1.5,3.5,3.5v33.4c0,1.9-1.5,3.5-3.5,3.5c-2,0-3.5-1.5-3.5-3.5
			V466.9z"/>
		<path class="st2" d="M209.1,483.8v-0.1c0-11.2,8.6-20.6,20.9-20.6s20.7,9.3,20.7,20.5v0.1c0,11.2-8.6,20.6-20.9,20.6
			C217.6,504.2,209.1,495,209.1,483.8z M243.4,483.8v-0.1c0-7.7-5.6-14.1-13.5-14.1c-7.9,0-13.4,6.3-13.4,14v0.1
			c0,7.7,5.6,14.1,13.5,14.1S243.4,491.5,243.4,483.8z"/>
		<path class="st2" d="M280.3,470.2h-9.7c-1.8,0-3.2-1.5-3.2-3.2s1.4-3.2,3.2-3.2H297c1.8,0,3.2,1.5,3.2,3.2s-1.4,3.2-3.2,3.2h-9.7
			v30.1c0,1.9-1.6,3.5-3.5,3.5c-1.9,0-3.5-1.5-3.5-3.5V470.2z"/>
		<path class="st2" d="M304.5,500v-32.7c0-2,1.5-3.5,3.5-3.5h23.1c1.7,0,3.1,1.4,3.1,3.1c0,1.8-1.4,3.1-3.1,3.1h-19.7v10.3h17.1
			c1.7,0,3.1,1.4,3.1,3.2c0,1.7-1.4,3.1-3.1,3.1h-17.1v10.7h19.9c1.7,0,3.1,1.4,3.1,3.1c0,1.8-1.4,3.1-3.1,3.1H308
			C306,503.5,304.5,502,304.5,500z"/>
		<path class="st2" d="M339.7,467.1c0-1.9,1.5-3.5,3.5-3.5h0.7c1.5,0,2.6,0.8,3.2,1.9l12,18.9l12.1-18.9c0.7-1.2,1.8-1.8,3.2-1.8
			h0.7c2,0,3.5,1.6,3.5,3.5v33.3c0,1.9-1.5,3.5-3.5,3.5c-1.9,0-3.5-1.6-3.5-3.5v-23.9l-9.7,14.6c-0.7,1.1-1.6,1.8-3,1.8
			c-1.2,0-2.2-0.7-2.9-1.8l-9.7-14.5v23.8c0,1.9-1.5,3.4-3.5,3.4s-3.4-1.5-3.4-3.4V467.1z"/>
		<path class="st2" d="M386.2,467.3c0-2,1.5-3.5,3.5-3.5h12.2c9.3,0,15.1,5.3,15.1,13.3v0.1c0,8.9-7.2,13.6-15.9,13.6h-7.9v9.6
			c0,1.9-1.5,3.5-3.5,3.5c-2,0-3.5-1.5-3.5-3.5V467.3z M401.3,484.5c5.3,0,8.6-3,8.6-7.1v-0.1c0-4.7-3.4-7.1-8.6-7.1h-8.1v14.3
			H401.3z"/>
		<path class="st2" d="M419.5,483.8v-0.1c0-11.2,8.6-20.6,20.9-20.6s20.7,9.3,20.7,20.5v0.1c0,11.2-8.6,20.6-20.9,20.6
			C428.1,504.2,419.5,495,419.5,483.8z M453.8,483.8v-0.1c0-7.7-5.6-14.1-13.5-14.1c-7.9,0-13.4,6.3-13.4,14v0.1
			c0,7.7,5.6,14.1,13.5,14.1S453.8,491.5,453.8,483.8z"/>
		<path class="st2" d="M466.8,467.3c0-2,1.5-3.5,3.5-3.5h14.2c5,0,8.9,1.5,11.5,4c2.1,2.2,3.3,5.1,3.3,8.6v0.1
			c0,6.4-3.7,10.2-9,11.9l7.6,9.6c0.7,0.9,1.1,1.6,1.1,2.7c0,1.9-1.6,3.2-3.4,3.2c-1.6,0-2.6-0.7-3.4-1.8l-9.7-12.3h-8.8v10.7
			c0,1.9-1.5,3.5-3.5,3.5c-2,0-3.5-1.5-3.5-3.5V467.3z M484,483.5c5,0,8.2-2.6,8.2-6.6v-0.1c0-4.3-3.1-6.6-8.2-6.6h-10.2v13.4H484z"
			/>
		<path class="st2" d="M502.7,499l14.8-33c0.8-1.8,2.2-2.8,4.2-2.8h0.3c2,0,3.4,1.1,4.1,2.8l14.8,33c0.3,0.5,0.4,1,0.4,1.5
			c0,1.9-1.4,3.4-3.3,3.4c-1.6,0-2.8-1-3.4-2.4l-3.2-7.4h-19.3l-3.4,7.7c-0.6,1.4-1.8,2.2-3.2,2.2c-1.8,0-3.2-1.4-3.2-3.2
			C502.3,500.1,502.5,499.6,502.7,499z M528.8,487.7l-7-16.1l-7,16.1H528.8z"/>
		<path class="st2" d="M546.1,466.9c0-1.9,1.5-3.5,3.5-3.5c1.9,0,3.5,1.5,3.5,3.5v30.2h18c1.8,0,3.2,1.4,3.2,3.2s-1.4,3.2-3.2,3.2
			h-21.5c-2,0-3.5-1.5-3.5-3.5V466.9z"/>
	</g>
</g>
</svg>
