<?xml version="1.0" encoding="utf-8"?>
<!-- Generator: Adobe Illustrator 23.0.3, SVG Export Plug-In . SVG Version: 6.00 Build 0)  -->
<svg version="1.1" id="Layer_1" xmlns="http://www.w3.org/2000/svg" xmlns:xlink="http://www.w3.org/1999/xlink" x="0px" y="0px"
	 viewBox="0 0 600 600" style="enable-background:new 0 0 600 600;" xml:space="preserve">
<style type="text/css">
	.st0{fill:#6ACAF3;}
</style>
<g>
	<g>
		<g>
			<path class="st0" d="M564.06,478.79c-58.62-30.85-103.44-47.97-143.25-54.73l4.33-5.96c1.7-2.33,2.29-5.31,1.57-8.12l-9.07-36.27
				c24.31-34.27,38.68-77.08,38.68-117.68v-60.25c0.04-0.03,0.08-0.06,0.12-0.09c8.02-6.72,13.77-15.5,16.84-25.24l-9.99-2.73
				l-51.23-9c-75.42-13.58-150.78-13.58-224.03-0.02l-52.17,9.21l-9.19,2.3c3.06,9.83,8.82,18.69,16.9,25.47
				c0.04,0.04,0.09,0.06,0.13,0.1v60.24c0,40.59,14.37,83.4,38.67,117.68l-9.07,36.27c-0.7,2.8-0.13,5.78,1.57,8.12l4.34,5.96
				c-39.81,6.76-84.64,23.88-143.26,54.73c-17.91,9.43-29.03,27.86-29.03,48.11v41.78c0,5.39,4.37,9.77,9.77,9.77h566.65
				c5.39,0,9.77-4.38,9.77-9.77v-41.78C593.09,506.65,581.97,488.21,564.06,478.79z M258.87,500.39l-65.53-90.1l4.39-17.53
				c0.04,0.05,0.08,0.08,0.12,0.12c23.6,25.66,53.62,43.73,87.46,47.84c0.02,0,0.04,0.01,0.07,0.01L258.87,500.39z M220.66,387.97
				c-2.45-2.3-4.92-4.52-7.28-7.03c-0.03-0.02-0.05-0.05-0.08-0.07c-3.58-3.81-7.05-7.86-10.42-12.15c-0.29-0.38-0.73-0.6-1.08-0.92
				c-23.02-29.05-38.58-67.76-38.58-111.76v-49.8c0.23,0.07,0.48,0.11,0.72,0.17c0.89,0.25,1.81,0.43,2.71,0.64
				c1.06,0.23,2.12,0.5,3.19,0.66c0.97,0.16,1.94,0.22,2.92,0.33c1.02,0.11,2.02,0.25,3.05,0.3c1.27,0.06,2.55,0.01,3.82-0.02
				c0.74-0.01,1.48,0.03,2.23-0.02c2.05-0.13,4.1-0.36,6.15-0.73c73.25-13.56,148.61-13.56,224.03,0.02
				c2.86,0.51,5.72,0.69,8.56,0.75c0.31,0,0.63,0.08,0.94,0.08c0.3,0,0.59-0.08,0.88-0.08c4.87-0.08,9.7-0.73,14.35-2.1v49.8
				c0,43.99-15.57,82.71-38.59,111.76c-0.34,0.32-0.79,0.54-1.08,0.92c-3.35,4.29-6.83,8.34-10.4,12.14
				c-0.03,0.03-0.06,0.06-0.09,0.09c-2.36,2.5-4.83,4.73-7.27,7.01c-23.89,21.54-52.26,34.16-79.34,34.16
				C272.91,422.12,244.54,409.5,220.66,387.97z M341.13,500.39l-26.51-59.65c0.02,0,0.04-0.01,0.06-0.01
				c33.84-4.11,63.86-22.19,87.46-47.84c0.04-0.04,0.09-0.07,0.12-0.12l4.4,17.53L341.13,500.39z"/>
			<path class="st0" d="M184.55,139.49c75.48-13.97,153.21-13.98,230.93,0.01l52.06,9.18l8.16,2.22
				C474,79.31,415.35,21.56,343.35,21.56h-86.7c-71.94,0-130.52,57.63-132.34,129.14l7.47-1.87L184.55,139.49z M270.69,60.64
				c0-5.39,4.37-9.77,9.77-9.77h39.08c5.4,0,9.77,4.38,9.77,9.77v48.85c0,5.39-4.37,9.77-9.77,9.77h-39.08
				c-5.4,0-9.77-4.38-9.77-9.77L270.69,60.64L270.69,60.64z"/>
			<rect x="290.23" y="70.41" class="st0" width="19.54" height="29.31"/>
		</g>
	</g>
</g>
</svg>
