<?xml version="1.0"?>
<svg xmlns="http://www.w3.org/2000/svg" xmlns:xlink="http://www.w3.org/1999/xlink" width="512px" height="512px" viewBox="0 0 53 58" version="1.1" class=""><g><title>026 - Paperclip</title><desc>Created with Sketch.</desc><defs/><g id="Page-1" stroke="none" stroke-width="1" fill="none" fill-rule="evenodd"><g id="026---Paperclip" fill-rule="nonzero"><path d="M51.457,29.233 C51.0790996,29.6109958 50.5664994,29.8233597 50.032,29.8233597 C49.4975006,29.8233597 48.9849004,29.6109958 48.607,29.233 L27.233,7.859 C22.0954236,2.87730369 13.9108123,2.94033898 8.85057562,8.00057562 C3.79033898,13.0608123 3.72730369,21.2454236 8.709,26.383 L10.134,27.808 L30.083,47.757 L33.645,51.32 C37.1955358,54.808208 42.8939591,54.7829788 46.4134689,51.2634689 C49.9329788,47.7439591 49.958208,42.0455358 46.47,38.495 L42.2,34.22 L22.958,14.984 C20.9907617,13.0167618 17.8012383,13.0167618 15.8340001,14.9840001 C13.8667618,16.9512383 13.8667618,20.1407617 15.834,22.108 L35.07,41.345 C35.8570058,42.1320058 35.8570058,43.4079942 35.07,44.195 C34.2829942,44.9820058 33.0070058,44.9820058 32.22,44.195 L12.984,24.958 C9.46518171,21.4129259 9.47581789,15.689759 13.0077885,12.1577885 C16.539759,8.62581789 22.2629259,8.61518171 25.808,12.134 L45.045,31.371 L49.32,35.645 C54.2626651,40.7878326 54.1823261,48.9398917 49.1392649,53.9843144 C44.0962038,59.028737 35.9441667,59.1112767 30.8,54.17 L27.238,50.607 L7.284,30.658 L5.859,29.233 C-0.80402845,22.539242 -0.791577228,11.7152446 5.88683369,5.03683369 C12.5652446,-1.64157723 23.389242,-1.65402845 30.083,5.009 L51.457,26.383 C51.8349958,26.7609004 52.0473597,27.2735006 52.0473597,27.808 C52.0473597,28.3424994 51.8349958,28.8550996 51.457,29.233 Z" id="Shape" fill="#FF5364" data-original="#FF5364" class="active-path" data-old_color="#FF5364" style="fill:#00C2EE"/><path d="M51.3,51.64 C49.2219376,55.0965555 45.6690633,57.4047671 41.6663038,57.8987662 C37.6635443,58.3927653 33.6560885,57.017609 30.8,54.17 L27.23,50.61 L7.28,30.66 L5.86,29.23 C-0.586856909,22.7649806 -0.841775322,12.383648 5.28,5.61 L8.14,8.47 C3.58121419,13.6576114 3.83057425,21.4927672 8.71,26.38 L10.13,27.81 L30.08,47.76 L33.65,51.32 C35.3500235,53.0200644 37.6557748,53.9751541 40.06,53.9751541 C42.4642252,53.9751541 44.7699765,53.0200644 46.47,51.32 C47.2432479,50.5515096 47.8671468,49.6461781 48.31,48.65 L51.3,51.64 Z" id="Shape" fill="#DF4D60" data-original="#DF4D60" class="" style="fill:#00C2EE" data-old_color="#DF4D60"/><path d="M35.07,44.2 C34.2801223,44.9800416 33.0098777,44.9800416 32.22,44.2 L12.98,24.96 C9.67780066,21.6410943 9.43546177,16.3572409 12.42,12.75 L15.29,15.63 C13.8683393,17.6333933 14.0963523,20.3695491 15.83,22.11 L35.07,41.35 C35.4492262,41.7272461 35.6624405,42.2400915 35.6624405,42.775 C35.6624405,43.3099085 35.4492262,43.8227539 35.07,44.2 Z" id="Shape" fill="#DF4D60" data-original="#DF4D60" class="" style="fill:#00C2EE" data-old_color="#DF4D60"/></g></g></g> </svg>
