<?xml version="1.0" encoding="utf-8"?>
<!-- Generator: Adobe Illustrator 23.0.3, SVG Export Plug-In . SVG Version: 6.00 Build 0)  -->
<svg version="1.1" id="Layer_1" xmlns="http://www.w3.org/2000/svg" xmlns:xlink="http://www.w3.org/1999/xlink" x="0px" y="0px"
	 viewBox="0 0 600 600" style="enable-background:new 0 0 600 600;" xml:space="preserve">
<style type="text/css">
	.st0{fill:#77AF65;}
	.st1{fill:#FFFFFF;}
	.st2{fill:#0E497B;stroke:#0E497B;stroke-miterlimit:10;}
</style>
<circle class="st0" cx="300" cy="257.69" r="246.41"/>
<g transform="matrix(0.19470664,0,0,0.19470664,0.15516101,0.15510016)">
	<path class="st1" d="M2007.78,736.46c22.52,0,40.79-18.26,40.79-40.79v-128.7c0-49.18-39.99-89.2-89.16-89.2h-862.88
		c-10.82,0-21.19,4.3-28.84,11.95L729.79,827.61c-7.65,7.65-11.95,18.02-11.95,28.84v1221.98c0,49.19,40.02,89.21,89.21,89.21
		h1152.35c49.17,0,89.16-40.02,89.16-89.2v-622.75c0-22.52-18.26-40.79-40.78-40.79c-22.52,0-40.79,18.26-40.79,40.79v622.75
		c0,4.2-3.4,7.63-7.58,7.63H807.06c-4.2,0-7.63-3.42-7.63-7.63V897.24h248.73c49.17,0,89.17-40,89.17-89.17V559.35h822.09
		c4.18,0,7.58,3.42,7.58,7.63v128.7C1966.99,718.2,1985.26,736.46,2007.78,736.46z M1055.75,808.07c0,4.19-3.41,7.59-7.59,7.59
		H857.13l198.62-198.62V808.07z"/>
	<path class="st1" d="M2321.76,809.13l-47.99-47.99c-53.81-53.81-141.37-53.8-195.19,0l-380.95,380.95h-660.78
		c-22.53,0-40.79,18.26-40.79,40.79c0,22.53,18.26,40.79,40.79,40.79h579.2l-245.49,245.49h-333.71
		c-22.53,0-40.79,18.26-40.79,40.79s18.26,40.79,40.79,40.79h252.13l-0.66,0.66c-4.98,4.98-8.57,11.15-10.46,17.93l-63,226.9
		h-178.02c-22.53,0-40.79,18.26-40.79,40.79s18.26,40.79,40.79,40.79h209.03c0,0,8.94-1.01,10.25-1.35
		c0.21-0.06,257.43-71.43,257.43-71.43c6.78-1.88,12.96-5.49,17.93-10.46l790.27-790.26
		C2375.56,950.5,2375.56,862.94,2321.76,809.13z M1304.47,1778.41l33.29-119.89l86.61,86.61L1304.47,1778.41z M1502.65,1708.04
		l-127.8-127.8l652.34-652.34l127.8,127.8L1502.65,1708.04z M2264.07,946.62l-51.39,51.39l-127.8-127.8l51.39-51.39
		c22.01-22.01,57.82-22,79.81,0l47.99,47.99C2286.07,888.82,2286.07,924.62,2264.07,946.62z"/>
</g>
<g>
	<path class="st2" d="M178.99,579.39v-40.61c0-2.47,1.9-4.37,4.37-4.37h28.69c2.11,0,3.88,1.76,3.88,3.88
		c0,2.19-1.76,3.88-3.88,3.88h-24.39V555h21.22c2.12,0,3.88,1.76,3.88,3.95c0,2.12-1.76,3.81-3.88,3.81h-21.22V576h24.74
		c2.11,0,3.88,1.76,3.88,3.88c0,2.19-1.76,3.88-3.88,3.88h-29.04C180.89,583.76,178.99,581.85,178.99,579.39z"/>
	<path class="st2" d="M222.7,538.78c0-2.47,1.9-4.37,4.37-4.37h14.03c15.51,0,26.22,10.64,26.22,24.53v0.14
		c0,13.89-10.72,24.67-26.22,24.67h-14.03c-2.47,0-4.37-1.9-4.37-4.37V538.78z M241.1,575.86c10.36,0,17.13-6.98,17.13-16.64v-0.14
		c0-9.66-6.77-16.78-17.13-16.78h-9.73v33.56H241.1z"/>
	<path class="st2" d="M274.8,538.36c0-2.4,1.9-4.3,4.37-4.3c2.4,0,4.3,1.9,4.3,4.3v41.45c0,2.4-1.9,4.3-4.3,4.3
		c-2.47,0-4.37-1.9-4.37-4.3V538.36z"/>
	<path class="st2" d="M305.25,542.45h-11.98c-2.26,0-4.02-1.83-4.02-4.02c0-2.18,1.76-4.02,4.02-4.02h32.78
		c2.19,0,3.95,1.83,3.95,4.02c0,2.19-1.76,4.02-3.95,4.02h-12.05v37.36c0,2.4-1.97,4.3-4.37,4.3c-2.4,0-4.37-1.9-4.37-4.3V542.45z"
		/>
	<path class="st2" d="M332.46,578.12l18.33-40.89c0.99-2.19,2.75-3.52,5.22-3.52h0.42c2.47,0,4.16,1.34,5.15,3.52l18.33,40.89
		c0.35,0.63,0.49,1.27,0.49,1.83c0,2.33-1.76,4.16-4.09,4.16c-2.04,0-3.45-1.2-4.23-3.03l-4.02-9.24H344.1l-4.16,9.52
		c-0.71,1.76-2.19,2.75-4.02,2.75c-2.26,0-4.02-1.76-4.02-4.02C331.9,579.46,332.11,578.82,332.46,578.12z M364.75,564.16
		l-8.67-19.95l-8.67,19.95H364.75z"/>
	<path class="st2" d="M386.26,538.78c0-2.47,1.9-4.37,4.37-4.37h17.62c6.2,0,11.07,1.83,14.24,4.93c2.61,2.68,4.09,6.34,4.09,10.64
		v0.14c0,7.9-4.58,12.69-11.21,14.73l9.45,11.91c0.85,1.06,1.41,1.97,1.41,3.31c0,2.4-2.04,4.02-4.16,4.02
		c-1.97,0-3.24-0.92-4.23-2.26l-11.98-15.3h-10.93v13.25c0,2.4-1.9,4.3-4.3,4.3c-2.47,0-4.37-1.9-4.37-4.3V538.78z M407.62,558.87
		c6.2,0,10.15-3.24,10.15-8.25v-0.14c0-5.29-3.81-8.18-10.22-8.18h-12.62v16.57H407.62z"/>
</g>
</svg>
