<?xml version="1.0" encoding="utf-8"?>
<!-- Generator: Adobe Illustrator 23.0.3, SVG Export Plug-In . SVG Version: 6.00 Build 0)  -->
<svg version="1.1" id="Capa_1" xmlns="http://www.w3.org/2000/svg" xmlns:xlink="http://www.w3.org/1999/xlink" x="0px" y="0px"
	 viewBox="0 0 512 512" style="enable-background:new 0 0 512 512;" xml:space="preserve">
<style type="text/css">
	.st0{fill:#12487E;stroke:#12487E;stroke-width:36;stroke-miterlimit:10;}
</style>
<g>
	<path class="st0" d="M414.3,271.9c-7.8,0-14.2,6.2-14.2,13.9v140.7H111.9V285.8c0-7.7-6.4-13.9-14.2-13.9s-14.2,6.2-14.2,13.9
		v154.5c0,7.7,6.4,13.9,14.2,13.9h316.5c7.8,0,14.2-6.2,14.2-13.9V285.8C428.5,278.1,422.1,271.9,414.3,271.9z"/>
	<path class="st0" d="M489.8,276L266,57.5c-5.5-5.4-14.5-5.4-20.1,0L22.2,276c-5.5,5.4-5.5,14.2,0,19.6c2.8,2.7,6.4,4.1,10,4.1
		c3.6,0,7.3-1.4,10-4.1L256,86.9l213.8,208.7c5.5,5.4,14.5,5.4,20.1,0C495.4,290.1,495.4,281.4,489.8,276z"/>
</g>
</svg>
