<?xml version="1.0" encoding="utf-8"?>
<!-- Generator: Adobe Illustrator 23.0.3, SVG Export Plug-In . SVG Version: 6.00 Build 0)  -->
<svg version="1.1" id="Layer_1" xmlns="http://www.w3.org/2000/svg" xmlns:xlink="http://www.w3.org/1999/xlink" x="0px" y="0px"
	 viewBox="0 0 600 600" style="enable-background:new 0 0 600 600;" xml:space="preserve">
<style type="text/css">
	.st0{fill:#0E497B;}
</style>
<g>
	<circle class="st0" cx="157.4" cy="356.57" r="56.57"/>
	<path class="st0" d="M178.03,428.45h-41.83c-30.05,0-55.98,22.39-59.51,53.03l-5.89,48.91c-0.59,6.48,3.54,12.37,9.43,13.55
		c24.16,5.3,50.08,7.66,76.6,7.66c10.61,0,21.8-0.59,31.82-1.18l5.3-43.6c2.95-22.39,14.14-42.42,30.64-55.39
		C213.97,436.7,196.88,428.45,178.03,428.45z"/>
	<circle class="st0" cx="442.59" cy="356.57" r="56.57"/>
	<path class="st0" d="M523.31,480.89c-3.54-30.05-29.46-53.03-59.51-53.03h-41.83c-18.86,0-35.94,8.84-46.55,22.39
		c16.5,13.55,27.69,33,30.64,55.39l5.3,43.6c10.61,1.18,21.21,1.18,31.82,1.18c27.1,0,52.44-2.95,76.6-7.66
		c6.48-1.18,10.02-7.07,9.43-13.55L523.31,480.89z"/>
	<path class="st0" d="M321.21,456.73h-41.83c-30.05,0-55.98,22.39-59.51,53.03l-5.89,48.91c-0.59,6.48,3.54,12.37,9.43,13.55
		c24.16,5.3,50.08,7.66,76.6,7.66s52.44-2.95,76.6-7.66c6.48-1.18,10.61-7.07,9.43-13.55l-5.89-48.91
		C376.6,479.12,351.26,456.73,321.21,456.73z"/>
	<circle class="st0" cx="300" cy="384.85" r="56.57"/>
	<path class="st0" d="M346.55,153.87c-4.12-4.71-11.78-4.71-15.91,0l-15.91,16.5l-30.05-31.82c-4.12-4.71-11.78-4.71-15.91,0
		l-64.23,67.76c-2.95,2.95-4.12,8.25-2.36,11.78c1.77,4.12,5.89,6.48,10.02,6.48h175.59c4.71,0,8.25-2.36,10.02-6.48
		c1.77-4.12,1.18-8.84-2.36-11.78L346.55,153.87z"/>
	<circle class="st0" cx="336.53" cy="103.79" r="24.75"/>
	<path class="st0" d="M167.42,273.48h265.15c12.37,0,22.39-10.02,22.39-22.39V42.51c0-12.37-10.02-22.39-22.39-22.39H167.42
		c-12.37,0-22.39,10.02-22.39,22.39v208.59C145.03,263.47,155.05,273.48,167.42,273.48z M169.19,44.28H430.8v205.05H169.19V44.28z"
		/>
</g>
</svg>
