<?xml version="1.0" encoding="utf-8"?>
<!-- Generator: Adobe Illustrator 23.0.3, SVG Export Plug-In . SVG Version: 6.00 Build 0)  -->
<svg version="1.1" id="Layer_1" xmlns="http://www.w3.org/2000/svg" xmlns:xlink="http://www.w3.org/1999/xlink" x="0px" y="0px"
	 viewBox="0 0 600 515" style="enable-background:new 0 0 600 515;" xml:space="preserve">
<style type="text/css">
	.st0{fill:#53A3D4;}
	.st1{fill:#10487B;stroke:#10487B;stroke-miterlimit:10;}
	.st2{font-family:'GothamRounded-Medium';}
	.st3{font-size:56.8208px;}
	.st4{letter-spacing:-2;}
	.st5{fill:#FFFFFF;}
</style>
<circle class="st0" cx="299" cy="230.8" r="218.5"/>
<g>
	<text transform="matrix(1 0 0 1 159.4499 503.6909)" class="st1 st2 st3 st4">Renovar</text>
</g>
<g>
	<g>
		<g>
			<path class="st5" d="M178.8,213.2c1.8-8.4,4.4-16.5,7.7-24.4c-0.5,1.1-0.9,2.1-1.4,3.2c4.6-10.8,10.5-20.9,17.6-30.2
				c-0.7,0.9-1.4,1.8-2.1,2.7c7.1-9.2,15.3-17.4,24.4-24.5c-0.9,0.7-1.8,1.4-2.7,2.1c9.2-7.1,19.3-13,30-17.5
				c-1.1,0.5-2.1,0.9-3.2,1.4c11.2-4.7,22.9-7.9,35-9.5c-1.2,0.2-2.4,0.3-3.6,0.5c11.9-1.6,23.9-1.5,35.8,0
				c-1.2-0.2-2.4-0.3-3.6-0.5c11.9,1.6,23.5,4.8,34.6,9.5c-1.1-0.5-2.1-0.9-3.2-1.4c10.8,4.6,21,10.6,30.2,17.7
				c-0.9-0.7-1.8-1.4-2.7-2.1c9,7,17.1,15.2,24.2,24.2c-0.7-0.9-1.4-1.8-2.1-2.7c7.1,9.3,13,19.4,17.6,30.1
				c-0.5-1.1-0.9-2.1-1.4-3.2c3.1,7.4,5.5,15.1,7.3,22.9c1.6,7.2,9.7,11.3,16.6,9.4c7.3-2,11-9.4,9.4-16.6
				c-8.5-37.6-31.9-70.5-64.1-91.6c-15.2-10-32.6-17.1-50.4-20.8c-19.7-4-39.6-4-59.3-0.3c-38.9,7.3-73.2,31.1-95.1,63.7
				c-10.2,15.2-17.5,32.7-21.4,50.5c-1.5,7.2,2,14.5,9.4,16.6C169,224.5,177.3,220.4,178.8,213.2L178.8,213.2z"/>
		</g>
	</g>
	<g>
		<g>
			<path class="st5" d="M436.9,148.3c-6.2,17.8-12.4,35.5-18.6,53.3c-0.3,1-0.7,1.9-1,2.9c5.5-3.1,11.1-6.3,16.6-9.4
				c-17.8-6.2-35.5-12.4-53.3-18.6c-1-0.3-1.9-0.7-2.9-1c-6.9-2.4-14.7,2.7-16.6,9.4c-2,7.4,2.5,14.2,9.4,16.6
				c17.8,6.2,35.5,12.4,53.3,18.6c1,0.3,1.9,0.7,2.9,1c3.3,1.2,7.4,0.4,10.4-1.4c3.2-1.9,5-4.7,6.2-8.1
				c6.2-17.8,12.4-35.5,18.6-53.3c0.3-1,0.7-1.9,1-2.9c2.4-6.9-2.7-14.7-9.4-16.6C446,136.8,439.3,141.4,436.9,148.3L436.9,148.3z"
				/>
		</g>
	</g>
	<g>
		<g>
			<path class="st5" d="M419.6,260.8c-1.8,8.4-4.4,16.5-7.7,24.4c0.5-1.1,0.9-2.1,1.4-3.2c-4.6,10.8-10.5,20.9-17.6,30.2
				c0.7-0.9,1.4-1.8,2.1-2.7c-7.1,9.2-15.3,17.4-24.4,24.5c0.9-0.7,1.8-1.4,2.7-2.1c-9.2,7.1-19.3,13-30,17.5
				c1.1-0.5,2.1-0.9,3.2-1.4c-11.2,4.7-22.9,7.9-35,9.5c1.2-0.2,2.4-0.3,3.6-0.5c-11.9,1.6-23.9,1.5-35.8,0c1.2,0.2,2.4,0.3,3.6,0.5
				c-11.9-1.6-23.5-4.8-34.6-9.5c1.1,0.5,2.1,0.9,3.2,1.4c-10.8-4.6-21-10.6-30.2-17.7c0.9,0.7,1.8,1.4,2.7,2.1
				c-9-7-17.1-15.2-24.2-24.2c0.7,0.9,1.4,1.8,2.1,2.7c-7.1-9.3-13-19.4-17.6-30.1c0.5,1.1,0.9,2.1,1.4,3.2
				c-3.1-7.4-5.5-15.1-7.3-22.9c-1.6-7.2-9.7-11.3-16.6-9.4c-7.3,2-11,9.4-9.4,16.6c8.5,37.6,31.9,70.5,64.1,91.6
				c15.2,10,32.6,17.1,50.4,20.8c19.7,4,39.6,4,59.3,0.3c38.9-7.3,73.2-31.1,95.1-63.7c10.2-15.2,17.5-32.7,21.4-50.5
				c1.5-7.2-2-14.5-9.4-16.6C429.4,249.6,421.1,253.7,419.6,260.8L419.6,260.8z"/>
		</g>
	</g>
	<g>
		<g>
			<path class="st5" d="M161.5,325.7c6.2-17.8,12.4-35.5,18.6-53.3c0.3-1,0.7-1.9,1-2.9c-5.5,3.1-11.1,6.3-16.6,9.4
				c17.8,6.2,35.5,12.4,53.3,18.6c1,0.3,1.9,0.7,2.9,1c6.9,2.4,14.7-2.7,16.6-9.4c2-7.4-2.5-14.2-9.4-16.6
				c-17.8-6.2-35.5-12.4-53.3-18.6c-1-0.3-1.9-0.7-2.9-1c-3.3-1.2-7.4-0.4-10.4,1.4c-3.2,1.9-5,4.7-6.2,8.1
				c-6.2,17.8-12.4,35.5-18.6,53.3c-0.3,1-0.7,1.9-1,2.9c-2.4,6.9,2.7,14.7,9.4,16.6C152.3,337.2,159,332.7,161.5,325.7L161.5,325.7
				z"/>
		</g>
	</g>
</g>
</svg>
