<?xml version="1.0" encoding="utf-8"?>
<!-- Generator: Adobe Illustrator 23.0.3, SVG Export Plug-In . SVG Version: 6.00 Build 0)  -->
<svg version="1.1" id="Layer_1" xmlns="http://www.w3.org/2000/svg" xmlns:xlink="http://www.w3.org/1999/xlink" x="0px" y="0px"
	 viewBox="0 0 600 600" style="enable-background:new 0 0 600 600;" xml:space="preserve">
<style type="text/css">
	.st0{fill:#0E497B;}
</style>
<g>
	<g>
		<path class="st0" d="M436.92,471.47c93.48-3.76,135.03-46.31,135.03-98.38c0-45.23-31.39-83.28-100.91-94.97
			c0.31-16.82,0.33-33.05,0.33-48.2H28.04c0,99.05,0.11,242.93,89.1,311.65c-54.01,4.14-89.1,10.71-89.1,18.12
			c0,12.54,99.25,22.68,221.67,22.68s221.66-10.14,221.66-22.68c0-7.4-35.1-13.99-89.09-18.12
			C406.44,522.94,424.1,498.8,436.92,471.47z M469.4,321.2c39.01,9.04,45.97,28.17,45.53,52.93c-0.49,28.12-8.64,47.15-61.9,53.71
			C462.66,393.61,467.22,356.86,469.4,321.2z M81.56,264.31h69.3c-31.07,91.67,21.35,236.72,21.34,236.72
			C58.89,414.18,81.56,264.31,81.56,264.31z"/>
		<path class="st0" d="M285.99,170.18c8.81-79.85,185.1-39.9,148.36-143.56c-5.61-15.85-31-9.02-25.32,6.98
			c16.11,45.45-45.1,50.98-76.27,61.4c-37.44,12.51-68.42,33.44-73.03,75.18C257.87,187,284.15,186.82,285.99,170.18z"/>
		<path class="st0" d="M411.12,114.31c-34.38,8.1-65.8,22.83-76.51,58.97c-4.82,16.28,20.52,23.18,25.32,6.98
			c11.83-39.91,64.25-40.58,97.72-50.29c35.95-10.44,56.52-35.34,51.58-73.57c-2.15-16.56-28.42-16.76-26.26,0
			C488.94,102.62,446.4,105.98,411.12,114.31z"/>
	</g>
</g>
</svg>
