<?xml version="1.0" encoding="utf-8"?>
<!-- Generator: Adobe Illustrator 23.0.3, SVG Export Plug-In . SVG Version: 6.00 Build 0)  -->
<svg version="1.1" id="Layer_1" xmlns="http://www.w3.org/2000/svg" xmlns:xlink="http://www.w3.org/1999/xlink" x="0px" y="0px"
	 viewBox="0 0 600 515" style="enable-background:new 0 0 600 515;" xml:space="preserve">
<style type="text/css">
	.st0{fill:#0E497B;stroke:#0E497B;stroke-miterlimit:10;}
	.st1{fill:#6DC1EC;}
	.st2{fill:#FFFFFF;}
</style>
<g>
	<g>
		<path class="st0" d="M164.16,486.23v-0.11c0-11.31,8.47-20.57,20.51-20.57c6.14,0,10.17,1.82,13.64,4.49
			c0.74,0.57,1.36,1.53,1.36,2.78c0,1.93-1.53,3.41-3.47,3.41c-0.97,0-1.65-0.34-2.1-0.68c-2.73-2.22-5.68-3.58-9.49-3.58
			c-7.56,0-13.13,6.25-13.13,14.04v0.11c0,7.79,5.51,14.09,13.13,14.09c4.2,0,7.05-1.36,9.94-3.81c0.51-0.45,1.25-0.79,2.1-0.79
			c1.76,0,3.3,1.48,3.3,3.24c0,1.08-0.51,1.93-1.14,2.5c-3.75,3.3-8.01,5.34-14.43,5.34C172.8,506.68,164.16,497.65,164.16,486.23z"
			/>
		<path class="st0" d="M205.01,469.41c0-1.93,1.53-3.47,3.52-3.47c1.93,0,3.47,1.53,3.47,3.47v13.35h18.98v-13.35
			c0-1.93,1.53-3.47,3.47-3.47c1.99,0,3.52,1.53,3.52,3.47v33.41c0,1.93-1.53,3.47-3.52,3.47c-1.93,0-3.47-1.53-3.47-3.47v-13.58
			H212v13.58c0,1.93-1.53,3.47-3.47,3.47c-1.99,0-3.52-1.53-3.52-3.47V469.41z"/>
		<path class="st0" d="M243.59,486.23v-0.11c0-11.19,8.64-20.57,20.85-20.57s20.74,9.26,20.74,20.46v0.11
			c0,11.19-8.64,20.57-20.85,20.57C252.12,506.68,243.59,497.42,243.59,486.23z M277.86,486.23v-0.11c0-7.73-5.62-14.15-13.52-14.15
			c-7.9,0-13.41,6.31-13.41,14.04v0.11c0,7.73,5.63,14.09,13.52,14.09S277.86,493.95,277.86,486.23z"/>
		<path class="st0" d="M290.81,469.75c0-1.99,1.53-3.52,3.52-3.52h23.18c1.76,0,3.18,1.42,3.18,3.18s-1.42,3.18-3.18,3.18H297.8
			v10.85h17.16c1.76,0,3.18,1.42,3.18,3.18s-1.42,3.18-3.18,3.18H297.8v13.01c0,1.93-1.53,3.47-3.47,3.47
			c-1.99,0-3.52-1.53-3.52-3.47V469.75z"/>
		<path class="st0" d="M325.24,502.48v-32.73c0-1.99,1.53-3.52,3.52-3.52h23.13c1.7,0,3.12,1.42,3.12,3.12
			c0,1.76-1.42,3.12-3.12,3.12h-19.66v10.34h17.1c1.71,0,3.13,1.42,3.13,3.18c0,1.71-1.42,3.07-3.13,3.07h-17.1v10.68h19.95
			c1.7,0,3.12,1.42,3.12,3.13c0,1.76-1.42,3.12-3.12,3.12h-23.41C326.78,506,325.24,504.47,325.24,502.48z"/>
		<path class="st0" d="M360.47,469.75c0-1.99,1.53-3.52,3.52-3.52h14.21c5,0,8.92,1.48,11.48,3.98c2.1,2.16,3.3,5.11,3.3,8.58v0.11
			c0,6.36-3.69,10.23-9.04,11.88l7.61,9.6c0.68,0.85,1.14,1.59,1.14,2.67c0,1.93-1.65,3.24-3.35,3.24c-1.59,0-2.61-0.74-3.41-1.82
			l-9.66-12.33h-8.81v10.68c0,1.93-1.53,3.47-3.47,3.47c-1.99,0-3.52-1.53-3.52-3.47V469.75z M377.69,485.94
			c5,0,8.18-2.61,8.18-6.65v-0.11c0-4.26-3.07-6.59-8.24-6.59h-10.17v13.35H377.69z"/>
		<path class="st0" d="M398.71,502.48v-32.73c0-1.99,1.53-3.52,3.52-3.52h23.13c1.7,0,3.12,1.42,3.12,3.12
			c0,1.76-1.42,3.12-3.12,3.12H405.7v10.34h17.1c1.71,0,3.13,1.42,3.13,3.18c0,1.71-1.42,3.07-3.13,3.07h-17.1v10.68h19.95
			c1.7,0,3.12,1.42,3.12,3.13c0,1.76-1.42,3.12-3.12,3.12h-23.41C400.25,506,398.71,504.47,398.71,502.48z"/>
		<path class="st0" d="M432.92,501.57c-0.8-0.57-1.36-1.53-1.36-2.67c0-1.82,1.48-3.24,3.3-3.24c0.97,0,1.59,0.28,2.05,0.62
			c3.3,2.61,6.82,4.09,11.14,4.09c4.32,0,7.05-2.04,7.05-5v-0.11c0-2.84-1.59-4.38-8.98-6.08c-8.47-2.04-13.24-4.54-13.24-11.88
			v-0.11c0-6.82,5.68-11.54,13.58-11.54c5,0,9.04,1.31,12.62,3.69c0.79,0.46,1.53,1.42,1.53,2.78c0,1.82-1.48,3.24-3.3,3.24
			c-0.68,0-1.25-0.17-1.82-0.51c-3.07-1.99-6.02-3.01-9.15-3.01c-4.09,0-6.48,2.1-6.48,4.72v0.11c0,3.07,1.82,4.43,9.49,6.25
			c8.41,2.05,12.73,5.06,12.73,11.65v0.11c0,7.44-5.85,11.88-14.21,11.88C442.47,506.57,437.35,504.86,432.92,501.57z"/>
	</g>
</g>
<circle class="st1" cx="300" cy="231.26" r="218.48"/>
<g transform="translate(0,-952.36218)">
	<path class="st2" d="M201.6,1044.81c-1.53,0-3.06,0.41-4.38,1.17c-1.32,0.76-2.44,1.88-3.21,3.2l-42.89,73.98l-20.16-3.1v0
		c-10.14-1.58-19.76,5.21-21.69,15.3v0c0,0,0,0-0.01,0.04l-1.97,10.1c0,0-0.01,0.04-0.01,0.04c-1.91,10.05,4.92,20.16,15.16,21.79v0
		h0.04l18.37,2.97v85.81v0.72v27.68c0,10.88,8.9,19.95,19.81,19.95h29.42c10.91,0,19.81-9.06,19.81-19.95v-7.85
		c30.13,4.37,60.16,6.66,90.05,6.85c0.04,0,0.07,0,0.11,0c29.93-0.18,59.95-2.48,90.09-6.85v7.86c0,10.88,8.9,19.95,19.81,19.95
		h29.41c10.91,0,19.81-9.06,19.81-19.95v-27.68v-0.72v-85.81l18.37-2.97h0.04v0c10.24-1.63,17.07-11.74,15.16-21.79
		c0,0-0.01-0.04-0.01-0.04l-1.96-10.1c0,0,0,0-0.01-0.04c0,0,0,0,0,0c-1.94-10.08-11.56-16.87-21.69-15.3v0l-20.16,3.1L406,1049.18
		c-0.77-1.32-1.89-2.44-3.21-3.2c-1.33-0.76-2.85-1.17-4.38-1.17C332.8,1044.81,267.2,1044.81,201.6,1044.81L201.6,1044.81z
		 M206.65,1062.36c62.23,0,124.47,0,186.7,0l38.21,65.91c-43.55-12.28-87.42-18.27-131.58-18.27c-44.13,0-87.99,5.99-131.54,18.27
		L206.65,1062.36z M299.98,1127.54c47.22,0,93.99,7.08,140.54,21.7c0.36,0.12,0.72,0.23,1.08,0.35v10.95v88.59l-2.39,0.55
		c-10.5,2.37-20.97,4.49-31.43,6.35c0,0,0,0-0.01,0c-36.15,6.37-72.04,9.69-107.79,9.92c-35.7-0.22-71.64-3.54-107.79-9.91v0
		c-10.32-1.83-20.67-3.93-31.06-6.27l-2.73-0.63v-88.59v-10.95c0.36-0.11,0.72-0.23,1.08-0.35
		C206.03,1134.62,252.8,1127.54,299.98,1127.54L299.98,1127.54z M127.99,1137.39c0.09,0,0.18,0,0.27,0c0.01,0,0.02,0,0.03,0
		l13.4,2.06c-0.73,1.49-1.02,3.18-0.84,4.82v8.22l-15.61-2.52c-0.01,0-0.02,0-0.04,0c-0.59-0.09-0.83-0.38-0.68-1.17l0,0l1.97-10.1
		c0,0,0-0.04,0.01-0.04C126.62,1138.02,127.35,1137.45,127.99,1137.39L127.99,1137.39z M472,1137.39c0.64,0.06,1.37,0.62,1.5,1.28
		c0,0,0,0.04,0.01,0.04l1.97,10.1l0,0c0.15,0.79-0.09,1.08-0.68,1.17c-0.01,0-0.02,0-0.04,0l-15.61,2.52v-8.18
		c0.19-1.66-0.1-3.37-0.84-4.87l13.4-2.06c0.01,0,0.02,0,0.03,0C471.82,1137.39,471.91,1137.39,472,1137.39L472,1137.39z
		 M158.4,1267.14l33.93,7.86v9.49c0,1.41-1.06,2.4-2.26,2.4h-29.42c-1.2,0-2.26-0.99-2.26-2.4V1267.14z M441.6,1267.14v17.36
		c0,1.41-1.06,2.4-2.26,2.4h-29.41c-1.2,0-2.26-0.99-2.26-2.4v-9.49L441.6,1267.14z"/>
	<path class="st2" d="M237.47,1187.34c-4.85,0-8.77,3.93-8.77,8.78c0,0.65,0.07,1.3,0.22,1.94l10.36,45.76
		c0.91,4,4.46,6.84,8.56,6.84h101.7c3.92,0,7.37-2.6,8.44-6.38l13-45.76c1.32-4.66-1.38-9.52-6.04-10.84
		c-0.78-0.22-1.59-0.33-2.4-0.33H237.47z M248.45,1204.89h102.46l-8.02,28.21h-88.06L248.45,1204.89z"/>
	<path class="st2" d="M405.98,1191.83c-15.02,0-27.38,12.39-27.38,27.44c0,15.05,12.34,27.48,27.38,27.48
		c15.05,0,27.38-12.44,27.38-27.48C433.36,1204.22,421,1191.83,405.98,1191.83z M405.98,1209.38c5.52,0,9.83,4.3,9.83,9.89
		c0,5.59-4.35,9.93-9.83,9.93c-5.49,0-9.83-4.34-9.83-9.93C396.15,1213.68,400.47,1209.38,405.98,1209.38z"/>
	<path class="st2" d="M194.02,1191.83c-15.02,0-27.38,12.39-27.38,27.44c0,15.05,12.34,27.48,27.38,27.48s27.38-12.44,27.38-27.48
		C221.4,1204.22,209.04,1191.83,194.02,1191.83z M194.02,1209.38c5.51,0,9.83,4.3,9.83,9.89c0,5.59-4.34,9.93-9.83,9.93
		c-5.49,0-9.83-4.34-9.83-9.93C184.18,1213.68,188.5,1209.38,194.02,1209.38z"/>
</g>
</svg>
