<?xml version="1.0" encoding="utf-8"?>
<!-- Generator: Adobe Illustrator 23.0.3, SVG Export Plug-In . SVG Version: 6.00 Build 0)  -->
<svg version="1.1" id="Layer_1" xmlns="http://www.w3.org/2000/svg" xmlns:xlink="http://www.w3.org/1999/xlink" x="0px" y="0px"
	 viewBox="0 0 600 515" style="enable-background:new 0 0 600 515;" xml:space="preserve">
<style type="text/css">
	.st0{fill:#0E497B;stroke:#0E497B;stroke-miterlimit:10;}
	.st1{fill:#6DC1EC;}
	.st2{fill:#FFFFFF;}
</style>
<g>
	<g>
		<path class="st0" d="M192.51,484.23v-0.11c0-11.14,8.52-20.57,20.51-20.57c5.97,0,9.94,1.42,13.58,4.04
			c0.68,0.51,1.42,1.48,1.42,2.84c0,1.88-1.53,3.47-3.47,3.47c-0.91,0-1.59-0.4-2.16-0.8c-2.56-1.88-5.34-3.12-9.66-3.12
			c-7.33,0-12.9,6.42-12.9,14.04v0.11c0,8.18,5.4,14.21,13.52,14.21c3.75,0,7.16-1.19,9.6-3.01v-7.44h-7.84
			c-1.71,0-3.13-1.31-3.13-3.01c0-1.71,1.42-3.07,3.13-3.07h11.08c1.99,0,3.52,1.53,3.52,3.52v10.63c0,1.99-0.8,3.41-2.44,4.43
			c-3.41,2.27-8.18,4.32-14.15,4.32C200.7,504.68,192.51,495.82,192.51,484.23z"/>
		<path class="st0" d="M233.71,499.45l14.77-32.96c0.8-1.76,2.22-2.84,4.21-2.84h0.34c1.99,0,3.35,1.08,4.15,2.84l14.77,32.96
			c0.28,0.51,0.4,1.02,0.4,1.48c0,1.88-1.42,3.35-3.3,3.35c-1.65,0-2.78-0.97-3.41-2.44l-3.24-7.44h-19.32l-3.35,7.67
			c-0.57,1.42-1.76,2.22-3.24,2.22c-1.82,0-3.24-1.42-3.24-3.24C233.25,500.53,233.42,500.02,233.71,499.45z M259.73,488.2
			l-6.99-16.08l-6.99,16.08H259.73z"/>
		<path class="st0" d="M277.06,467.41c0-1.93,1.53-3.47,3.52-3.47c1.93,0,3.47,1.53,3.47,3.47v30.23h18.01
			c1.76,0,3.18,1.42,3.18,3.18c0,1.76-1.42,3.18-3.18,3.18h-21.48c-1.99,0-3.52-1.53-3.52-3.52V467.41z"/>
		<path class="st0" d="M309.39,500.48v-32.73c0-1.99,1.53-3.52,3.52-3.52h23.13c1.7,0,3.12,1.42,3.12,3.12
			c0,1.76-1.42,3.12-3.12,3.12h-19.66v10.34h17.1c1.71,0,3.13,1.42,3.13,3.18c0,1.71-1.42,3.07-3.13,3.07h-17.1v10.68h19.95
			c1.7,0,3.12,1.42,3.12,3.13c0,1.76-1.42,3.12-3.12,3.12h-23.41C310.93,504,309.39,502.47,309.39,500.48z"/>
		<path class="st0" d="M344.62,467.75c0-1.99,1.53-3.52,3.52-3.52h14.21c5,0,8.92,1.48,11.48,3.98c2.1,2.16,3.3,5.11,3.3,8.58v0.11
			c0,6.36-3.69,10.23-9.04,11.88l7.61,9.6c0.68,0.85,1.14,1.59,1.14,2.67c0,1.93-1.65,3.24-3.35,3.24c-1.59,0-2.61-0.74-3.41-1.82
			l-9.66-12.33h-8.81v10.68c0,1.93-1.53,3.47-3.47,3.47c-1.99,0-3.52-1.53-3.52-3.47V467.75z M361.84,483.94
			c5,0,8.18-2.61,8.18-6.65v-0.11c0-4.26-3.07-6.59-8.24-6.59h-10.17v13.35H361.84z"/>
		<path class="st0" d="M383.26,467.41c0-1.93,1.53-3.47,3.52-3.47c1.93,0,3.47,1.53,3.47,3.47v33.41c0,1.93-1.53,3.47-3.47,3.47
			c-1.99,0-3.52-1.53-3.52-3.47V467.41z M384.91,460.02c0-0.4,0.23-0.91,0.45-1.25l3.24-5c0.62-1.02,1.53-1.65,2.73-1.65
			c1.82,0,4.09,1.14,4.09,2.22c0,0.62-0.4,1.19-0.97,1.71l-3.81,3.64c-1.36,1.25-2.44,1.53-4.04,1.53
			C385.65,461.21,384.91,460.76,384.91,460.02z"/>
		<path class="st0" d="M395.76,499.45l14.77-32.96c0.8-1.76,2.22-2.84,4.21-2.84h0.34c1.99,0,3.35,1.08,4.15,2.84L434,499.45
			c0.28,0.51,0.4,1.02,0.4,1.48c0,1.88-1.42,3.35-3.3,3.35c-1.65,0-2.78-0.97-3.41-2.44l-3.24-7.44h-19.32l-3.35,7.67
			c-0.57,1.42-1.76,2.22-3.24,2.22c-1.82,0-3.24-1.42-3.24-3.24C395.3,500.53,395.47,500.02,395.76,499.45z M421.78,488.2
			l-6.99-16.08l-6.99,16.08H421.78z"/>
	</g>
</g>
<circle class="st1" cx="300" cy="229.26" r="218.48"/>
<g>
	<path class="st2" d="M423.61,121.37H375l-13.6-36.25c-1.13-3.02-4.02-5.01-7.23-5.01H245.82c-3.23,0-6.11,2-7.24,5.02l-13.6,36.25
		h-48.61c-21.33,0-38.68,17.35-38.68,38.68v162.52c0,21.33,17.35,38.68,38.68,38.68h247.22c21.33,0,38.69-17.35,38.69-38.68V160.06
		C462.3,138.73,444.94,121.37,423.61,121.37z M251.17,95.56h97.63l9.69,25.81h-117L251.17,95.56z M446.84,322.58
		c0,12.8-10.42,23.23-23.23,23.23H176.38c-12.81,0-23.22-10.42-23.22-23.23V160.06c0-12.8,10.42-23.23,23.22-23.23h53.94
		c0,0,0.01,0,0.02,0h0.01h193.26c12.81,0,23.23,10.42,23.23,23.23L446.84,322.58L446.84,322.58z"/>
	<path class="st2" d="M300,159.27c-45.25,0-82.06,36.81-82.06,82.04c0,45.25,36.81,82.06,82.06,82.06
		c45.23,0,82.03-36.81,82.03-82.06C382.04,196.08,345.24,159.27,300,159.27z M300,307.92c-36.73,0-66.6-29.87-66.6-66.6
		c0-36.72,29.87-66.59,66.6-66.59c36.71,0,66.57,29.87,66.57,66.59C366.58,278.04,336.71,307.92,300,307.92z"/>
	<path class="st2" d="M300,200.12c-22.72,0-41.21,18.48-41.21,41.19c0,22.72,18.49,41.19,41.21,41.19
		c22.71,0,41.19-18.48,41.19-41.19C341.2,218.6,322.72,200.12,300,200.12z M300,267.05c-14.2,0-25.75-11.54-25.75-25.73
		s11.55-25.74,25.75-25.74c14.19,0,25.73,11.55,25.73,25.74S314.19,267.05,300,267.05z"/>
</g>
</svg>
