<?xml version="1.0" encoding="utf-8"?>
<!-- Generator: Adobe Illustrator 23.0.3, SVG Export Plug-In . SVG Version: 6.00 Build 0)  -->
<svg version="1.1" id="Layer_1" xmlns="http://www.w3.org/2000/svg" xmlns:xlink="http://www.w3.org/1999/xlink" x="0px" y="0px"
	 viewBox="0 0 600 515" style="enable-background:new 0 0 600 515;" xml:space="preserve">
<style type="text/css">
	.st0{fill:#0E497B;stroke:#0E497B;stroke-miterlimit:10;}
	.st1{fill:#6DC1EC;}
	.st2{fill:#FFFFFF;}
</style>
<g>
	<g>
		<path class="st0" d="M178.89,470.52c0-1.93,1.53-3.52,3.52-3.52h0.74c1.53,0,2.56,0.8,3.24,1.88l12.05,18.87l12.1-18.92
			c0.74-1.19,1.76-1.82,3.18-1.82h0.74c1.99,0,3.52,1.59,3.52,3.52v33.3c0,1.93-1.53,3.47-3.52,3.47c-1.88,0-3.47-1.59-3.47-3.47
			v-23.87l-9.72,14.6c-0.74,1.14-1.65,1.82-2.96,1.82c-1.25,0-2.16-0.68-2.9-1.82l-9.66-14.49v23.81c0,1.93-1.54,3.41-3.47,3.41
			s-3.41-1.48-3.41-3.41V470.52z"/>
		<path class="st0" d="M225.77,470.41c0-1.93,1.53-3.47,3.52-3.47c1.93,0,3.47,1.53,3.47,3.47v33.41c0,1.93-1.53,3.47-3.47,3.47
			c-1.99,0-3.52-1.53-3.52-3.47V470.41z"/>
		<path class="st0" d="M240.54,470.52c0-1.93,1.53-3.52,3.52-3.52h0.74c1.71,0,2.67,0.85,3.64,2.05l19.89,25.74v-24.43
			c0-1.88,1.53-3.41,3.41-3.41c1.93,0,3.47,1.53,3.47,3.41v33.41c0,1.93-1.48,3.47-3.41,3.47h-0.28c-1.65,0-2.67-0.85-3.64-2.1
			l-20.46-26.48v25.23c0,1.88-1.53,3.41-3.41,3.41c-1.93,0-3.47-1.53-3.47-3.41V470.52z"/>
		<path class="st0" d="M281.96,490.12v-19.72c0-1.93,1.53-3.47,3.52-3.47c1.93,0,3.47,1.53,3.47,3.47v19.43
			c0,7.39,3.81,11.31,10.06,11.31c6.19,0,10-3.69,10-11.02v-19.72c0-1.93,1.53-3.47,3.52-3.47c1.93,0,3.47,1.53,3.47,3.47v19.38
			c0,11.88-6.71,17.84-17.1,17.84C288.55,507.62,281.96,501.66,281.96,490.12z"/>
		<path class="st0" d="M332.53,473.7h-9.66c-1.82,0-3.24-1.48-3.24-3.24c0-1.76,1.42-3.24,3.24-3.24h26.42
			c1.76,0,3.18,1.48,3.18,3.24c0,1.76-1.42,3.24-3.18,3.24h-9.72v30.12c0,1.93-1.59,3.47-3.52,3.47c-1.93,0-3.52-1.53-3.52-3.47
			V473.7z"/>
		<path class="st0" d="M354.46,502.45l14.77-32.96c0.8-1.76,2.22-2.84,4.21-2.84h0.34c1.99,0,3.35,1.08,4.15,2.84l14.77,32.96
			c0.28,0.51,0.4,1.02,0.4,1.48c0,1.88-1.42,3.35-3.3,3.35c-1.65,0-2.78-0.97-3.41-2.44l-3.24-7.44h-19.32l-3.35,7.67
			c-0.57,1.42-1.76,2.22-3.24,2.22c-1.82,0-3.24-1.42-3.24-3.24C354.01,503.53,354.18,503.02,354.46,502.45z M380.49,491.2
			l-6.99-16.08l-6.99,16.08H380.49z"/>
		<path class="st0" d="M396.79,502.57c-0.8-0.57-1.36-1.53-1.36-2.67c0-1.82,1.48-3.24,3.3-3.24c0.97,0,1.59,0.28,2.05,0.62
			c3.3,2.61,6.82,4.09,11.14,4.09c4.32,0,7.05-2.04,7.05-5v-0.11c0-2.84-1.59-4.38-8.98-6.08c-8.47-2.04-13.24-4.54-13.24-11.88
			v-0.11c0-6.82,5.68-11.54,13.58-11.54c5,0,9.04,1.31,12.62,3.69c0.79,0.46,1.53,1.42,1.53,2.78c0,1.82-1.48,3.24-3.3,3.24
			c-0.68,0-1.25-0.17-1.82-0.51c-3.07-1.99-6.02-3.01-9.15-3.01c-4.09,0-6.48,2.1-6.48,4.72v0.11c0,3.07,1.82,4.43,9.49,6.25
			c8.41,2.05,12.73,5.06,12.73,11.65v0.11c0,7.44-5.85,11.88-14.21,11.88C406.34,507.57,401.23,505.86,396.79,502.57z"/>
	</g>
</g>
<circle class="st1" cx="300" cy="232.26" r="218.48"/>
<g>
	<g>
		<path class="st2" d="M285.56,238.16c0,4.33,2.89,7.22,7.22,7.22h86.63c4.33,0,7.22-2.89,7.22-7.22s-2.89-7.22-7.22-7.22h-86.63
			C288.45,230.94,285.56,233.83,285.56,238.16z"/>
		<path class="st2" d="M292.78,274.26h43.32c4.33,0,7.22-2.89,7.22-7.22s-2.89-7.22-7.22-7.22h-43.32c-4.33,0-7.22,2.89-7.22,7.22
			S288.45,274.26,292.78,274.26z"/>
		<path class="st2" d="M292.78,165.96c-4.33,0-7.22,2.89-7.22,7.22s2.89,7.22,7.22,7.22h72.2c4.33,0,7.22-2.89,7.22-7.22
			s-2.89-7.22-7.22-7.22H292.78z"/>
		<path class="st2" d="M292.78,209.28h21.66c4.33,0,7.22-2.89,7.22-7.22c0-4.33-2.89-7.22-7.22-7.22h-21.66
			c-4.33,0-7.22,2.89-7.22,7.22C285.56,206.39,288.45,209.28,292.78,209.28z"/>
		<path class="st2" d="M357.76,295.92h-64.98c-4.33,0-7.22,2.89-7.22,7.22c0,4.33,2.89,7.22,7.22,7.22h64.98
			c4.33,0,7.22-2.89,7.22-7.22C364.98,298.8,362.09,295.92,357.76,295.92z"/>
		<path class="st2" d="M328.88,324.79h-36.1c-4.33,0-7.22,2.89-7.22,7.22s2.89,7.22,7.22,7.22h36.1c4.33,0,7.22-2.89,7.22-7.22
			S333.21,324.79,328.88,324.79z"/>
		<path class="st2" d="M256.68,230.94H227.8c-4.33,0-7.22,2.89-7.22,7.22v28.88c0,4.33,2.89,7.22,7.22,7.22h28.88
			c4.33,0,7.22-2.89,7.22-7.22v-28.88C263.9,233.83,261.01,230.94,256.68,230.94z M249.46,259.82h-14.44v-14.44h14.44V259.82z"/>
		<path class="st2" d="M256.68,165.96H227.8c-4.33,0-7.22,2.89-7.22,7.22v28.88c0,4.33,2.89,7.22,7.22,7.22h28.88
			c4.33,0,7.22-2.89,7.22-7.22v-28.88C263.9,168.85,261.01,165.96,256.68,165.96z M249.46,194.84h-14.44V180.4h14.44V194.84z"/>
		<path class="st2" d="M256.68,295.92H227.8c-4.33,0-7.22,2.89-7.22,7.22v28.88c0,4.33,2.89,7.22,7.22,7.22h28.88
			c4.33,0,7.22-2.89,7.22-7.22v-28.88C263.9,298.8,261.01,295.92,256.68,295.92z M249.46,324.79h-14.44v-14.44h14.44V324.79z"/>
		<path class="st2" d="M355.59,67.06c-1.44-1.44-2.89-2.17-5.05-2.17H198.93c-12.27,0-21.66,9.39-21.66,21.66v274.34
			c0,12.27,9.39,21.66,21.66,21.66h202.15c12.27,0,21.66-9.39,21.66-21.66V137.09c0-2.17-0.72-3.61-2.17-5.05L355.59,67.06z
			 M357.76,89.44l40.43,40.43h-33.21c-4.33,0-7.22-2.89-7.22-7.22V89.44z M408.29,158.75v202.15c0,4.33-2.89,7.22-7.22,7.22H198.93
			c-4.33,0-7.22-2.89-7.22-7.22V86.55c0-4.33,2.89-7.22,7.22-7.22h144.39v43.32c0,12.27,9.39,21.66,21.66,21.66h43.32V158.75z"/>
	</g>
</g>
</svg>
