<?xml version="1.0" encoding="utf-8"?>
<!-- Generator: Adobe Illustrator 23.0.3, SVG Export Plug-In . SVG Version: 6.00 Build 0)  -->
<svg version="1.1" id="Layer_1" xmlns="http://www.w3.org/2000/svg" xmlns:xlink="http://www.w3.org/1999/xlink" x="0px" y="0px"
	 viewBox="0 0 600 515" style="enable-background:new 0 0 600 515;" xml:space="preserve">
<style type="text/css">
	.st0{fill:#6DC1EC;}
	.st1{fill:#0E497B;stroke:#0E497B;stroke-miterlimit:10;}
	.st2{fill:#FFFFFF;}
</style>
<circle class="st0" cx="300" cy="234.26" r="218.48"/>
<g>
	<path class="st1" d="M60.49,472.52c0-1.93,1.53-3.52,3.52-3.52h0.74c1.53,0,2.56,0.8,3.24,1.88l12.05,18.87l12.1-18.92
		c0.74-1.19,1.76-1.82,3.18-1.82h0.74c1.99,0,3.52,1.59,3.52,3.52v33.3c0,1.93-1.53,3.47-3.52,3.47c-1.88,0-3.47-1.59-3.47-3.47
		v-23.87l-9.72,14.6c-0.74,1.14-1.65,1.82-2.96,1.82c-1.25,0-2.16-0.68-2.9-1.82l-9.66-14.49v23.81c0,1.93-1.54,3.41-3.47,3.41
		s-3.41-1.48-3.41-3.41V472.52z"/>
	<path class="st1" d="M107.37,472.41c0-1.93,1.53-3.47,3.52-3.47c1.93,0,3.47,1.53,3.47,3.47v33.41c0,1.93-1.53,3.47-3.47,3.47
		c-1.99,0-3.52-1.53-3.52-3.47V472.41z"/>
	<path class="st1" d="M121.12,504.57c-0.79-0.57-1.36-1.53-1.36-2.67c0-1.82,1.48-3.24,3.3-3.24c0.97,0,1.59,0.28,2.05,0.62
		c3.29,2.61,6.82,4.09,11.14,4.09c4.32,0,7.05-2.04,7.05-5v-0.11c0-2.84-1.59-4.38-8.98-6.08c-8.47-2.04-13.24-4.54-13.24-11.88
		v-0.11c0-6.82,5.68-11.54,13.58-11.54c5,0,9.04,1.31,12.62,3.69c0.79,0.46,1.53,1.42,1.53,2.78c0,1.82-1.48,3.24-3.3,3.24
		c-0.68,0-1.25-0.17-1.82-0.51c-3.07-1.99-6.02-3.01-9.15-3.01c-4.09,0-6.48,2.1-6.48,4.72v0.11c0,3.07,1.82,4.43,9.49,6.25
		c8.41,2.05,12.73,5.06,12.73,11.65v0.11c0,7.44-5.85,11.88-14.21,11.88C130.66,509.57,125.55,507.86,121.12,504.57z"/>
	<path class="st1" d="M169.87,472.75c0-1.99,1.53-3.52,3.52-3.52h11.31c12.5,0,21.14,8.58,21.14,19.77v0.11
		c0,11.19-8.64,19.89-21.14,19.89h-11.31c-1.99,0-3.52-1.53-3.52-3.52V472.75z M184.7,502.64c8.35,0,13.81-5.63,13.81-13.41v-0.11
		c0-7.78-5.46-13.52-13.81-13.52h-7.84v27.05H184.7z"/>
	<path class="st1" d="M209.7,489.23v-0.11c0-11.19,8.64-20.57,20.85-20.57s20.74,9.26,20.74,20.46v0.11
		c0,11.19-8.64,20.57-20.85,20.57C218.22,509.68,209.7,500.42,209.7,489.23z M243.96,489.23v-0.11c0-7.73-5.62-14.15-13.52-14.15
		c-7.9,0-13.41,6.31-13.41,14.04v0.11c0,7.73,5.63,14.09,13.52,14.09S243.96,496.95,243.96,489.23z"/>
	<path class="st1" d="M255.16,489.23v-0.11c0-11.31,8.47-20.57,20.51-20.57c6.14,0,10.17,1.82,13.64,4.49
		c0.74,0.57,1.36,1.53,1.36,2.78c0,1.93-1.53,3.41-3.47,3.41c-0.97,0-1.65-0.34-2.1-0.68c-2.73-2.22-5.68-3.58-9.49-3.58
		c-7.56,0-13.13,6.25-13.13,14.04v0.11c0,7.79,5.51,14.09,13.13,14.09c4.2,0,7.05-1.36,9.94-3.81c0.51-0.45,1.25-0.79,2.1-0.79
		c1.76,0,3.3,1.48,3.3,3.24c0,1.08-0.51,1.93-1.14,2.5c-3.75,3.3-8.01,5.34-14.43,5.34C263.79,509.68,255.16,500.65,255.16,489.23z"
		/>
	<path class="st1" d="M295.39,492.12v-19.72c0-1.93,1.53-3.47,3.52-3.47c1.93,0,3.47,1.53,3.47,3.47v19.43
		c0,7.39,3.81,11.31,10.06,11.31c6.19,0,10-3.69,10-11.02v-19.72c0-1.93,1.53-3.47,3.52-3.47c1.93,0,3.47,1.53,3.47,3.47v19.38
		c0,11.88-6.71,17.84-17.1,17.84C301.98,509.62,295.39,503.66,295.39,492.12z"/>
	<path class="st1" d="M336.18,472.52c0-1.93,1.53-3.52,3.52-3.52h0.74c1.53,0,2.56,0.8,3.24,1.88l12.05,18.87l12.1-18.92
		c0.74-1.19,1.76-1.82,3.18-1.82h0.74c1.99,0,3.52,1.59,3.52,3.52v33.3c0,1.93-1.53,3.47-3.52,3.47c-1.88,0-3.47-1.59-3.47-3.47
		v-23.87l-9.72,14.6c-0.74,1.14-1.65,1.82-2.96,1.82c-1.25,0-2.16-0.68-2.9-1.82l-9.66-14.49v23.81c0,1.93-1.54,3.41-3.47,3.41
		s-3.41-1.48-3.41-3.41V472.52z"/>
	<path class="st1" d="M382.66,505.48v-32.73c0-1.99,1.53-3.52,3.52-3.52h23.13c1.7,0,3.12,1.42,3.12,3.12
		c0,1.76-1.42,3.12-3.12,3.12h-19.66v10.34h17.1c1.71,0,3.13,1.42,3.13,3.18c0,1.71-1.42,3.07-3.13,3.07h-17.1v10.68h19.95
		c1.7,0,3.12,1.42,3.12,3.13c0,1.76-1.42,3.12-3.12,3.12h-23.41C384.2,509,382.66,507.47,382.66,505.48z"/>
	<path class="st1" d="M417.89,472.52c0-1.93,1.53-3.52,3.52-3.52h0.74c1.71,0,2.67,0.85,3.64,2.05l19.89,25.74v-24.43
		c0-1.88,1.53-3.41,3.41-3.41c1.93,0,3.47,1.53,3.47,3.41v33.41c0,1.93-1.48,3.47-3.41,3.47h-0.28c-1.65,0-2.67-0.85-3.64-2.1
		l-20.46-26.48v25.23c0,1.88-1.53,3.41-3.41,3.41c-1.93,0-3.47-1.53-3.47-3.41V472.52z"/>
	<path class="st1" d="M469.71,475.7h-9.66c-1.82,0-3.24-1.48-3.24-3.24c0-1.76,1.42-3.24,3.24-3.24h26.42
		c1.76,0,3.18,1.48,3.18,3.24c0,1.76-1.42,3.24-3.18,3.24h-9.72v30.12c0,1.93-1.59,3.47-3.52,3.47c-1.93,0-3.52-1.53-3.52-3.47
		V475.7z"/>
	<path class="st1" d="M492.15,489.23v-0.11c0-11.19,8.64-20.57,20.85-20.57s20.74,9.26,20.74,20.46v0.11
		c0,11.19-8.64,20.57-20.85,20.57C500.68,509.68,492.15,500.42,492.15,489.23z M526.42,489.23v-0.11c0-7.73-5.62-14.15-13.52-14.15
		c-7.9,0-13.41,6.31-13.41,14.04v0.11c0,7.73,5.63,14.09,13.52,14.09S526.42,496.95,526.42,489.23z"/>
	<path class="st1" d="M538.35,504.57c-0.8-0.57-1.36-1.53-1.36-2.67c0-1.82,1.48-3.24,3.3-3.24c0.97,0,1.59,0.28,2.05,0.62
		c3.3,2.61,6.82,4.09,11.14,4.09c4.32,0,7.05-2.04,7.05-5v-0.11c0-2.84-1.59-4.38-8.98-6.08c-8.47-2.04-13.24-4.54-13.24-11.88
		v-0.11c0-6.82,5.68-11.54,13.58-11.54c5,0,9.04,1.31,12.62,3.69c0.79,0.46,1.53,1.42,1.53,2.78c0,1.82-1.48,3.24-3.3,3.24
		c-0.68,0-1.25-0.17-1.82-0.51c-3.07-1.99-6.02-3.01-9.15-3.01c-4.09,0-6.48,2.1-6.48,4.72v0.11c0,3.07,1.82,4.43,9.49,6.25
		c8.41,2.05,12.73,5.06,12.73,11.65v0.11c0,7.44-5.85,11.88-14.21,11.88C547.9,509.57,542.78,507.86,538.35,504.57z"/>
</g>
<g>
	<g>
		<path class="st2" d="M408.31,368.36c-14.24,0-25.79-11.55-25.79-25.79v-10.32c0-2.85,2.31-5.16,5.16-5.16h15.47V177.52
			c0-2.85,2.31-5.16,5.16-5.16h20.63c2.85,0,5.16,2.31,5.16,5.16v165.05C434.1,356.82,422.56,368.36,408.31,368.36z M392.84,337.42
			v5.16c0,8.55,6.93,15.47,15.47,15.47s15.47-6.93,15.47-15.47V182.68h-10.32v149.58c0,2.85-2.31,5.16-5.16,5.16H392.84z"/>
		<path class="st2" d="M408.31,337.42h-20.63c-2.85,0-5.16-2.31-5.16-5.16v-134.1H327.9l-19.08,19.14c-0.97,0.97-2.29,1.5-3.66,1.5
			H191.69c-2.85,0-5.16-2.31-5.16-5.16V105.31c0-2.85,2.31-5.16,5.16-5.16h216.63c2.85,0,5.16,2.31,5.16,5.16v226.94
			C413.47,335.11,411.16,337.42,408.31,337.42z M392.84,327.1h10.32V110.47H196.84v98h106.2l19.08-19.14
			c0.97-0.97,2.29-1.5,3.66-1.5h61.89c2.85,0,5.16,2.31,5.16,5.16V327.1z"/>
		<path class="st2" d="M408.31,368.36H191.69c-14.24,0-25.79-11.55-25.79-25.79V213.63c0-2.85,2.31-5.16,5.16-5.16h131.99
			l19.08-19.14c0.97-0.97,2.29-1.5,3.66-1.5h61.89c2.85,0,5.16,2.31,5.16,5.16v149.58c0,8.55,6.93,15.47,15.47,15.47
			c2.85,0,5.16,2.31,5.16,5.16S411.16,368.36,408.31,368.36z M176.21,218.79v123.79c0,8.55,6.93,15.47,15.47,15.47h196
			c-3.35-4.46-5.16-9.89-5.16-15.47V198.15H327.9l-19.08,19.14c-0.97,0.97-2.29,1.5-3.66,1.5H176.21z"/>
		<path class="st2" d="M274.21,193h-51.58c-2.85,0-5.16-2.31-5.16-5.16c0-17.09,13.86-30.95,30.95-30.95s30.95,13.86,30.95,30.95
			C279.37,190.69,277.06,193,274.21,193z M228.46,182.68h39.92c-2.88-11.02-14.15-17.62-25.18-14.74
			C235.99,169.82,230.35,175.46,228.46,182.68z"/>
		<path class="st2" d="M248.42,167.21c-11.39,0-20.63-9.24-20.63-20.63c0-11.39,9.24-20.63,20.63-20.63s20.63,9.24,20.63,20.63
			C269.05,157.97,259.82,167.21,248.42,167.21z M248.42,136.26c-5.7,0-10.32,4.62-10.32,10.32s4.62,10.32,10.32,10.32
			c5.7,0,10.32-4.62,10.32-10.32S254.12,136.26,248.42,136.26z"/>
		<path class="st2" d="M377.37,146.58h-56.74c-2.85,0-5.16-2.31-5.16-5.16c0-2.85,2.31-5.16,5.16-5.16h56.74
			c2.85,0,5.16,2.31,5.16,5.16C382.52,144.27,380.22,146.58,377.37,146.58z"/>
		<path class="st2" d="M377.37,172.37h-56.74c-2.85,0-5.16-2.31-5.16-5.16c0-2.85,2.31-5.16,5.16-5.16h56.74
			c2.85,0,5.16,2.31,5.16,5.16C382.52,170.06,380.22,172.37,377.37,172.37z"/>
	</g>
</g>
</svg>
