<?xml version="1.0" encoding="utf-8"?>
<!-- Generator: Adobe Illustrator 23.0.3, SVG Export Plug-In . SVG Version: 6.00 Build 0)  -->
<svg version="1.1" id="Layer_1" xmlns="http://www.w3.org/2000/svg" xmlns:xlink="http://www.w3.org/1999/xlink" x="0px" y="0px"
	 viewBox="0 0 600 515" style="enable-background:new 0 0 600 515;" xml:space="preserve">
<style type="text/css">
	.st0{fill:#6EC1EC;}
	.st1{fill:#0B4A7B;stroke:#0B4A7B;stroke-miterlimit:10;}
	.st2{fill:#FFFFFF;}
</style>
<circle class="st0" cx="300" cy="234.26" r="218.48"/>
<g>
	<path class="st1" d="M163.31,472.52c0-1.93,1.53-3.52,3.52-3.52h0.74c1.53,0,2.56,0.8,3.24,1.88l12.05,18.87l12.1-18.92
		c0.74-1.19,1.76-1.82,3.18-1.82h0.74c1.99,0,3.52,1.59,3.52,3.52v33.3c0,1.93-1.53,3.47-3.52,3.47c-1.88,0-3.47-1.59-3.47-3.47
		v-23.87l-9.72,14.6c-0.74,1.14-1.65,1.82-2.96,1.82c-1.25,0-2.16-0.68-2.9-1.82l-9.66-14.49v23.81c0,1.93-1.53,3.41-3.47,3.41
		c-1.93,0-3.41-1.48-3.41-3.41v-33.36H163.31z"/>
	<path class="st1" d="M208.02,489.23v-0.11c0-11.19,8.64-20.57,20.85-20.57s20.74,9.26,20.74,20.46v0.11
		c0,11.19-8.64,20.57-20.85,20.57C216.55,509.68,208.02,500.42,208.02,489.23z M242.29,489.23v-0.11c0-7.73-5.62-14.15-13.52-14.15
		c-7.9,0-13.41,6.31-13.41,14.04v0.11c0,7.73,5.63,14.09,13.52,14.09S242.29,496.95,242.29,489.23z"/>
	<path class="st1" d="M255.24,472.52c0-1.93,1.53-3.52,3.52-3.52h0.74c1.71,0,2.67,0.85,3.64,2.05l19.89,25.74v-24.43
		c0-1.88,1.53-3.41,3.41-3.41c1.93,0,3.47,1.53,3.47,3.41v33.41c0,1.93-1.48,3.47-3.41,3.47h-0.28c-1.65,0-2.67-0.85-3.64-2.1
		l-20.46-26.48v25.23c0,1.88-1.53,3.41-3.41,3.41c-1.93,0-3.47-1.53-3.47-3.41L255.24,472.52L255.24,472.52z"/>
	<path class="st1" d="M307.06,475.7h-9.66c-1.82,0-3.24-1.48-3.24-3.24c0-1.76,1.42-3.24,3.24-3.24h26.42
		c1.76,0,3.18,1.48,3.18,3.24c0,1.76-1.42,3.24-3.18,3.24h-9.72v30.12c0,1.93-1.59,3.47-3.52,3.47s-3.52-1.53-3.52-3.47
		L307.06,475.7L307.06,475.7z"/>
	<path class="st1" d="M328.99,504.45l14.77-32.96c0.8-1.76,2.22-2.84,4.21-2.84h0.34c1.99,0,3.35,1.08,4.15,2.84l14.77,32.96
		c0.28,0.51,0.4,1.02,0.4,1.48c0,1.88-1.42,3.35-3.3,3.35c-1.65,0-2.78-0.97-3.41-2.44l-3.24-7.44h-19.32l-3.35,7.67
		c-0.57,1.42-1.76,2.22-3.24,2.22c-1.82,0-3.24-1.42-3.24-3.24C328.54,505.53,328.71,505.02,328.99,504.45z M355.02,493.2
		l-6.99-16.08l-6.99,16.08H355.02z"/>
	<path class="st1" d="M370.3,505.19c-0.62-0.57-1.19-1.53-1.19-2.61c0-1.88,1.48-3.35,3.35-3.35c0.91,0,1.53,0.28,2.16,0.79
		c1.93,1.99,3.81,3.07,6.48,3.07c3.86,0,6.42-2.5,6.42-7.84v-22.84c0-1.93,1.59-3.47,3.52-3.47s3.52,1.53,3.52,3.47v23.07
		c0,4.72-1.42,8.24-3.75,10.57c-2.33,2.33-5.68,3.52-9.66,3.52C376.33,509.57,372.8,507.69,370.3,505.19z"/>
	<path class="st1" d="M401.33,505.48v-32.73c0-1.99,1.53-3.52,3.52-3.52h23.13c1.7,0,3.12,1.42,3.12,3.12
		c0,1.76-1.42,3.12-3.12,3.12h-19.66v10.34h17.1c1.71,0,3.13,1.42,3.13,3.18c0,1.71-1.42,3.07-3.13,3.07h-17.1v10.68h19.95
		c1.7,0,3.12,1.42,3.12,3.13c0,1.76-1.42,3.12-3.12,3.12h-23.41C402.86,509,401.33,507.47,401.33,505.48z"/>
	<path class="st1" d="M435.53,504.57c-0.8-0.57-1.36-1.53-1.36-2.67c0-1.82,1.48-3.24,3.3-3.24c0.97,0,1.59,0.28,2.05,0.62
		c3.3,2.61,6.82,4.09,11.14,4.09s7.05-2.04,7.05-5v-0.11c0-2.84-1.59-4.38-8.98-6.08c-8.47-2.04-13.24-4.54-13.24-11.88v-0.11
		c0-6.82,5.68-11.54,13.58-11.54c5,0,9.04,1.31,12.62,3.69c0.79,0.46,1.53,1.42,1.53,2.78c0,1.82-1.48,3.24-3.3,3.24
		c-0.68,0-1.25-0.17-1.82-0.51c-3.07-1.99-6.02-3.01-9.15-3.01c-4.09,0-6.48,2.1-6.48,4.72v0.11c0,3.07,1.82,4.43,9.49,6.25
		c8.41,2.05,12.73,5.06,12.73,11.65v0.11c0,7.44-5.85,11.88-14.21,11.88C445.08,509.57,439.96,507.86,435.53,504.57z"/>
</g>
<g>
	<circle class="st2" cx="436.28" cy="249.98" r="15.72"/>
	<circle class="st2" cx="163.72" cy="249.98" r="15.72"/>
	<path class="st2" d="M158.48,275.66v105.36h10.48V275.66c-1.69,0.35-3.45,0.53-5.24,0.53S160.18,276.01,158.48,275.66
		L158.48,275.66z"/>
	<path class="st2" d="M431.03,275.66v105.36h10.48V275.66c-1.69,0.35-3.45,0.53-5.24,0.53
		C434.48,276.19,432.73,276.01,431.03,275.66L431.03,275.66z"/>
	<circle class="st2" cx="300" cy="103.22" r="5.24"/>
	<path class="st2" d="M239.27,160.88h69.04l-34.52-34.52L239.27,160.88z"/>
	<path class="st2" d="M307.41,145.16l15.72,15.72h37.59l-34.52-34.52L307.41,145.16z"/>
	<path class="st2" d="M399.59,77.02H200.41v146.76h199.17L399.59,77.02L399.59,77.02z M300,87.5c8.67,0,15.72,7.05,15.72,15.72
		s-7.05,15.72-15.72,15.72s-15.72-7.05-15.72-15.72S291.33,87.5,300,87.5z M326.21,213.29H273.8v-10.48h52.41V213.29z
		 M357.66,192.33H242.34v-10.48h115.31v10.48H357.66z M389.1,171.36H210.9v-10.48h13.55l45.64-45.64c2.05-2.05,5.36-2.05,7.41,0
		l22.5,22.5l22.5-22.5c2.05-2.05,5.36-2.05,7.41,0l45.64,45.64h13.55L389.1,171.36L389.1,171.36z"/>
	<path class="st2" d="M300.14,323.36c-45.16,0-87.65-19.9-116.55-54.59l-0.82-0.99c-1.03,1.09-2.12,2.12-3.32,3.03v9.12
		c30.76,34.31,74.39,53.91,120.69,53.91c45.87,0,89.84-19.84,120.42-53.65v-9.38c-1.15-0.88-2.21-1.87-3.2-2.91
		C388.71,302.73,345.4,323.36,300.14,323.36z"/>
</g>
</svg>
