<?xml version="1.0" encoding="utf-8"?>
<!-- Generator: Adobe Illustrator 23.0.3, SVG Export Plug-In . SVG Version: 6.00 Build 0)  -->
<svg version="1.1" id="Layer_1" xmlns="http://www.w3.org/2000/svg" xmlns:xlink="http://www.w3.org/1999/xlink" x="0px" y="0px"
	 viewBox="0 0 600 515" style="enable-background:new 0 0 600 515;" xml:space="preserve">
<style type="text/css">
	.st0{fill:#0E497B;stroke:#0E497B;stroke-miterlimit:10;}
	.st1{fill:#6DC1EC;}
	.st2{fill:#FFFFFF;}
</style>
<g>
	<g>
		<path class="st0" d="M175.32,472.75c0-1.99,1.53-3.52,3.52-3.52h12.16c9.32,0,15.12,5.28,15.12,13.3v0.11
			c0,8.92-7.16,13.58-15.91,13.58h-7.9v9.6c0,1.93-1.53,3.47-3.47,3.47c-1.99,0-3.52-1.53-3.52-3.47V472.75z M190.44,489.91
			c5.28,0,8.58-2.96,8.58-7.1v-0.11c0-4.66-3.35-7.1-8.58-7.1h-8.13v14.32H190.44z"/>
		<path class="st0" d="M210.44,505.48v-32.73c0-1.99,1.53-3.52,3.52-3.52h23.13c1.7,0,3.12,1.42,3.12,3.12
			c0,1.76-1.42,3.12-3.12,3.12h-19.66v10.34h17.1c1.71,0,3.13,1.42,3.13,3.18c0,1.71-1.42,3.07-3.13,3.07h-17.1v10.68h19.95
			c1.7,0,3.12,1.42,3.12,3.13c0,1.76-1.42,3.12-3.12,3.12h-23.41C211.97,509,210.44,507.47,210.44,505.48z"/>
		<path class="st0" d="M245.67,472.75c0-1.99,1.53-3.52,3.52-3.52h14.21c5,0,8.92,1.48,11.48,3.98c2.1,2.16,3.3,5.11,3.3,8.58v0.11
			c0,6.36-3.69,10.23-9.04,11.88l7.61,9.6c0.68,0.85,1.14,1.59,1.14,2.67c0,1.93-1.65,3.24-3.35,3.24c-1.59,0-2.61-0.74-3.41-1.82
			l-9.66-12.33h-8.81v10.68c0,1.93-1.53,3.47-3.47,3.47c-1.99,0-3.52-1.53-3.52-3.47V472.75z M262.88,488.94
			c5,0,8.18-2.61,8.18-6.65v-0.11c0-4.26-3.07-6.59-8.24-6.59h-10.17v13.35H262.88z"/>
		<path class="st0" d="M283.91,472.52c0-1.93,1.53-3.52,3.52-3.52h0.74c1.53,0,2.56,0.8,3.24,1.88l12.05,18.87l12.1-18.92
			c0.74-1.19,1.76-1.82,3.18-1.82h0.74c1.99,0,3.52,1.59,3.52,3.52v33.3c0,1.93-1.53,3.47-3.52,3.47c-1.88,0-3.47-1.59-3.47-3.47
			v-23.87l-9.72,14.6c-0.74,1.14-1.65,1.82-2.96,1.82c-1.25,0-2.16-0.68-2.9-1.82l-9.66-14.49v23.81c0,1.93-1.53,3.41-3.47,3.41
			c-1.93,0-3.41-1.48-3.41-3.41V472.52z"/>
		<path class="st0" d="M330.78,472.41c0-1.93,1.53-3.47,3.52-3.47c1.93,0,3.47,1.53,3.47,3.47v33.41c0,1.93-1.53,3.47-3.47,3.47
			c-1.99,0-3.52-1.53-3.52-3.47V472.41z"/>
		<path class="st0" d="M344.53,504.57c-0.8-0.57-1.36-1.53-1.36-2.67c0-1.82,1.48-3.24,3.3-3.24c0.97,0,1.59,0.28,2.05,0.62
			c3.3,2.61,6.82,4.09,11.14,4.09c4.32,0,7.05-2.04,7.05-5v-0.11c0-2.84-1.59-4.38-8.98-6.08c-8.47-2.04-13.24-4.54-13.24-11.88
			v-0.11c0-6.82,5.68-11.54,13.58-11.54c5,0,9.04,1.31,12.62,3.69c0.79,0.46,1.53,1.42,1.53,2.78c0,1.82-1.48,3.24-3.3,3.24
			c-0.68,0-1.25-0.17-1.82-0.51c-3.07-1.99-6.02-3.01-9.15-3.01c-4.09,0-6.48,2.1-6.48,4.72v0.11c0,3.07,1.82,4.43,9.49,6.25
			c8.41,2.05,12.73,5.06,12.73,11.65v0.11c0,7.44-5.85,11.88-14.21,11.88C354.08,509.57,348.97,507.86,344.53,504.57z"/>
		<path class="st0" d="M377.32,489.23v-0.11c0-11.19,8.64-20.57,20.85-20.57s20.74,9.26,20.74,20.46v0.11
			c0,11.19-8.64,20.57-20.85,20.57C385.84,509.68,377.32,500.42,377.32,489.23z M411.58,489.23v-0.11c0-7.73-5.62-14.15-13.52-14.15
			c-7.9,0-13.41,6.31-13.41,14.04v0.11c0,7.73,5.63,14.09,13.52,14.09S411.58,496.95,411.58,489.23z"/>
		<path class="st0" d="M423.51,504.57c-0.8-0.57-1.36-1.53-1.36-2.67c0-1.82,1.48-3.24,3.3-3.24c0.97,0,1.59,0.28,2.05,0.62
			c3.3,2.61,6.82,4.09,11.14,4.09c4.32,0,7.05-2.04,7.05-5v-0.11c0-2.84-1.59-4.38-8.98-6.08c-8.47-2.04-13.24-4.54-13.24-11.88
			v-0.11c0-6.82,5.68-11.54,13.58-11.54c5,0,9.04,1.31,12.62,3.69c0.79,0.46,1.53,1.42,1.53,2.78c0,1.82-1.48,3.24-3.3,3.24
			c-0.68,0-1.25-0.17-1.82-0.51c-3.07-1.99-6.02-3.01-9.15-3.01c-4.09,0-6.48,2.1-6.48,4.72v0.11c0,3.07,1.82,4.43,9.49,6.25
			c8.41,2.05,12.73,5.06,12.73,11.65v0.11c0,7.44-5.85,11.88-14.21,11.88C433.06,509.57,427.95,507.86,423.51,504.57z"/>
	</g>
</g>
<circle class="st1" cx="300" cy="234.26" r="218.48"/>
<g>
	<path class="st2" d="M298.31,318.43c-6.35,0-12.47-2.54-17.02-7.06l-60.4-60.45c-9.39-9.39-9.39-24.62,0-34.03
		c9.41-9.41,24.63-9.41,34.05,0l39.74,39.73l103.03-153.19c7.43-11.03,22.38-13.95,33.43-6.52c11.04,7.39,13.95,22.37,6.57,33.41
		L318.29,307.77c-4.03,5.98-10.49,9.83-17.65,10.52C299.87,318.37,299.1,318.43,298.31,318.43"/>
	<path class="st2" d="M382.89,268.76v71.2c0,8.89-7.19,16.05-16.06,16.05H206.37c-8.86,0-16.06-7.16-16.06-16.05V179.49
		c0-8.84,7.21-16.05,16.06-16.05h111.72l21.41-32.1H206.37c-26.52,0-48.15,21.63-48.15,48.14v160.47
		c0,26.55,21.63,48.14,48.15,48.14h160.45c26.55,0,48.15-21.59,48.15-48.14V220.61L382.89,268.76z"/>
</g>
</svg>
