<?xml version="1.0" encoding="utf-8"?>
<!-- Generator: Adobe Illustrator 23.0.3, SVG Export Plug-In . SVG Version: 6.00 Build 0)  -->
<svg version="1.1" id="Layer_1" xmlns="http://www.w3.org/2000/svg" xmlns:xlink="http://www.w3.org/1999/xlink" x="0px" y="0px"
	 viewBox="0 0 600 515" style="enable-background:new 0 0 600 515;" xml:space="preserve">
<style type="text/css">
	.st0{fill:#0E497B;stroke:#0E497B;stroke-miterlimit:10;}
	.st1{fill:#6DC1EC;}
	.st2{fill:#FFFFFF;}
</style>
<g>
	<g>
		<path class="st0" d="M150.69,489.12v-19.72c0-1.93,1.53-3.47,3.52-3.47c1.93,0,3.47,1.53,3.47,3.47v19.43
			c0,7.39,3.81,11.31,10.06,11.31c6.19,0,10-3.69,10-11.02v-19.72c0-1.93,1.53-3.47,3.52-3.47c1.93,0,3.47,1.53,3.47,3.47v19.38
			c0,11.88-6.71,17.84-17.1,17.84C157.29,506.62,150.69,500.66,150.69,489.12z"/>
		<path class="st0" d="M191.49,469.52c0-1.93,1.53-3.52,3.52-3.52h0.74c1.71,0,2.67,0.85,3.64,2.05l19.89,25.74v-24.43
			c0-1.88,1.53-3.41,3.41-3.41c1.93,0,3.47,1.53,3.47,3.41v33.41c0,1.93-1.48,3.47-3.41,3.47h-0.28c-1.65,0-2.67-0.85-3.64-2.1
			l-20.46-26.48v25.23c0,1.88-1.53,3.41-3.41,3.41c-1.93,0-3.47-1.53-3.47-3.41V469.52z"/>
		<path class="st0" d="M233.93,469.41c0-1.93,1.53-3.47,3.52-3.47c1.93,0,3.47,1.53,3.47,3.47v33.41c0,1.93-1.53,3.47-3.47,3.47
			c-1.99,0-3.52-1.53-3.52-3.47V469.41z"/>
		<path class="st0" d="M248.71,469.75c0-1.99,1.53-3.52,3.52-3.52h23.18c1.76,0,3.18,1.42,3.18,3.18s-1.42,3.18-3.18,3.18H255.7
			v10.85h17.16c1.76,0,3.18,1.42,3.18,3.18s-1.42,3.18-3.18,3.18H255.7v13.01c0,1.93-1.53,3.47-3.47,3.47
			c-1.99,0-3.52-1.53-3.52-3.47V469.75z"/>
		<path class="st0" d="M281.38,486.23v-0.11c0-11.19,8.64-20.57,20.85-20.57s20.74,9.26,20.74,20.46v0.11
			c0,11.19-8.64,20.57-20.85,20.57C289.9,506.68,281.38,497.42,281.38,486.23z M315.64,486.23v-0.11c0-7.73-5.62-14.15-13.52-14.15
			c-7.9,0-13.41,6.31-13.41,14.04v0.11c0,7.73,5.63,14.09,13.52,14.09S315.64,493.95,315.64,486.23z"/>
		<path class="st0" d="M328.6,469.75c0-1.99,1.53-3.52,3.52-3.52h14.21c5,0,8.92,1.48,11.48,3.98c2.1,2.16,3.3,5.11,3.3,8.58v0.11
			c0,6.36-3.69,10.23-9.04,11.88l7.61,9.6c0.68,0.85,1.14,1.59,1.14,2.67c0,1.93-1.65,3.24-3.35,3.24c-1.59,0-2.61-0.74-3.41-1.82
			l-9.66-12.33h-8.81v10.68c0,1.93-1.53,3.47-3.47,3.47c-1.99,0-3.52-1.53-3.52-3.47V469.75z M345.81,485.94
			c5,0,8.18-2.61,8.18-6.65v-0.11c0-4.26-3.07-6.59-8.24-6.59h-10.17v13.35H345.81z"/>
		<path class="st0" d="M366.84,469.52c0-1.93,1.53-3.52,3.52-3.52h0.74c1.53,0,2.56,0.8,3.24,1.88l12.05,18.87l12.1-18.92
			c0.74-1.19,1.76-1.82,3.18-1.82h0.74c1.99,0,3.52,1.59,3.52,3.52v33.3c0,1.93-1.53,3.47-3.52,3.47c-1.88,0-3.47-1.59-3.47-3.47
			v-23.87l-9.72,14.6c-0.74,1.14-1.65,1.82-2.96,1.82c-1.25,0-2.16-0.68-2.9-1.82l-9.66-14.49v23.81c0,1.93-1.53,3.41-3.47,3.41
			c-1.93,0-3.41-1.48-3.41-3.41V469.52z"/>
		<path class="st0" d="M413.32,502.48v-32.73c0-1.99,1.53-3.52,3.52-3.52h23.13c1.7,0,3.12,1.42,3.12,3.12
			c0,1.76-1.42,3.12-3.12,3.12H420.3v10.34h17.1c1.71,0,3.13,1.42,3.13,3.18c0,1.71-1.42,3.07-3.13,3.07h-17.1v10.68h19.95
			c1.7,0,3.12,1.42,3.12,3.13c0,1.76-1.42,3.12-3.12,3.12h-23.41C414.85,506,413.32,504.47,413.32,502.48z"/>
		<path class="st0" d="M447.52,501.57c-0.8-0.57-1.36-1.53-1.36-2.67c0-1.82,1.48-3.24,3.3-3.24c0.97,0,1.59,0.28,2.05,0.62
			c3.3,2.61,6.82,4.09,11.14,4.09c4.32,0,7.05-2.04,7.05-5v-0.11c0-2.84-1.59-4.38-8.98-6.08c-8.47-2.04-13.24-4.54-13.24-11.88
			v-0.11c0-6.82,5.68-11.54,13.58-11.54c5,0,9.04,1.31,12.62,3.69c0.79,0.46,1.53,1.42,1.53,2.78c0,1.82-1.48,3.24-3.3,3.24
			c-0.68,0-1.25-0.17-1.82-0.51c-3.07-1.99-6.02-3.01-9.15-3.01c-4.09,0-6.48,2.1-6.48,4.72v0.11c0,3.07,1.82,4.43,9.49,6.25
			c8.41,2.05,12.73,5.06,12.73,11.65v0.11c0,7.44-5.85,11.88-14.21,11.88C457.07,506.57,451.95,504.86,447.52,501.57z"/>
	</g>
</g>
<circle class="st1" cx="300" cy="231.26" r="218.48"/>
<g transform="translate(0,-952.36218)">
	<path class="st2" d="M254.02,1004.48l-11.83,23.41h-26.02c-1.53-0.02-3.07,0.42-4.36,1.25l-82.55,53.91
		c-3.47,2.26-4.59,7.46-2.37,10.96l38.6,59.27c2.27,3.54,7.57,4.67,11.08,2.37l25.4-16.56v204.32c0,4.17,3.8,7.97,7.97,7.97h181.9
		c4.17,0,7.97-3.8,7.97-7.97v-204.44l25.52,16.68c3.49,2.23,8.69,1.1,10.96-2.37l38.6-59.27c2.25-3.47,1.19-8.65-2.24-10.96
		l-82.55-53.91c-1.29-0.82-2.83-1.26-4.36-1.25H359.6l-11.33-22.41c-2.38-4.89-4.63-6.1-8.96-6.1h-76.7
		C258.04,999.37,256.03,1000.99,254.02,1004.48z M282.9,1015.31h35.98l-17.93,15.44L282.9,1015.31z M263.98,1020.04l24.65,21.17
		l-25.77,22.16l-7.22-26.64L263.98,1020.04z M337.94,1020.04l8.22,16.56l-7.1,26.77l-25.9-22.16L337.94,1020.04z M218.66,1043.82
		h22.41l9.59,35.86c1.37,5.22,8.88,7.53,12.95,3.98l37.35-32l37.35,32c4.07,3.43,11.42,1.15,12.82-3.98l9.59-35.86h22.54
		l73.96,48.18l-29.88,45.82l-31.13-20.17c-4.76-3.11-12.27,0.91-12.33,6.6v211.16H217.91v-211.16c-0.05-5.69-7.57-9.71-12.33-6.6
		l-31.13,20.17L144.58,1092L218.66,1043.82z"/>
	<g>
		<g>
			<path class="st2" d="M312.77,1152.94v-29.6c0-0.96,0.34-1.78,1.01-2.45c0.67-0.67,1.49-1.04,2.45-1.11h6.63l6.53,25.28
				l6.53-25.28h10.09v33.16h-6.34v-26.72l-6.73,26.72h-7.02l-6.82-26.72v26.72H312.77z"/>
		</g>
		<g>
			<path class="st2" d="M340.21,1152.94v-29.6c0-0.96,0.34-1.78,1.01-2.45c0.67-0.67,1.53-1.09,2.49-1.09l9.35-0.02
				c5.06,0,8.97,1.45,11.47,4.14c2.5,2.82,3.75,6.99,3.75,12.5c0,2.95-0.45,5.61-1.34,7.98c-1.03,2.44-2.37,4.29-4.04,5.58
				c-1.41,1.09-2.92,1.86-4.52,2.31c-1.54,0.45-3.88,0.67-7.02,0.67H340.21z M346.84,1146.98h5.48c3.14,0,5.45-0.83,6.92-2.5
				c1.41-1.54,2.12-4.23,2.12-8.07c0-3.72-0.67-6.44-2.02-8.17c-1.28-1.73-3.33-2.59-6.15-2.59h-6.34V1146.98z"/>
		</g>
		<g>
			<path class="st2" d="M306.6,1136.24c2.12,0.18,3.79,0.97,4.99,2.39c1.17,1.45,1.75,3.36,1.75,5.73c0,2.76-0.83,4.87-2.5,6.32
				c-1.59,1.45-3.95,2.18-7.06,2.18c-3.18,0-5.57-0.74-7.17-2.23c-1.66-1.52-2.5-3.72-2.5-6.59c0-2.34,0.58-4.2,1.75-5.58
				c1.13-1.31,2.73-2.05,4.78-2.23v2.28c0,0.85-0.37,1.45-1.12,1.8c-0.46,0.25-0.87,0.55-1.22,0.9c-0.53,0.71-0.8,1.65-0.8,2.81
				c0,1.63,0.53,2.89,1.59,3.77c1.06,0.85,2.62,1.27,4.67,1.27c1.98,0,3.51-0.42,4.57-1.27c1.1-0.81,1.65-2.04,1.65-3.67
				c0-1.13-0.28-2.07-0.85-2.81c-0.53-0.67-1.38-1.15-2.55-1.43V1136.24z"/>
			<path class="st2" d="M312.92,1134.9h-16.36c-0.53,0-0.98-0.19-1.35-0.56c-0.37-0.37-0.56-0.82-0.56-1.35v-1.86h6.8v-7.54h-6.8
				v-3.82h18.27v3.82h-8.12v7.54h8.12V1134.9z"/>
		</g>
	</g>
</g>
</svg>
