<?xml version="1.0" encoding="utf-8"?>
<!-- Generator: Adobe Illustrator 23.0.3, SVG Export Plug-In . SVG Version: 6.00 Build 0)  -->
<svg version="1.1" id="Layer_1" xmlns="http://www.w3.org/2000/svg" xmlns:xlink="http://www.w3.org/1999/xlink" x="0px" y="0px"
	 viewBox="0 0 600 600" style="enable-background:new 0 0 600 600;" xml:space="preserve">
<style type="text/css">
	.st0{fill:#6ACAF3;}
</style>
<g>
	<g>
		<path class="st0" d="M579.28,223.79c-2.76-3.37-6.89-5.34-11.21-5.34h-54.99c-13.57-35.79-31.25-70.86-51.35-84.1
			c-69.52-45.73-253.91-45.73-323.43,0c-20.11,13.25-37.72,48.37-51.36,84.1H31.95c-4.37,0-8.48,1.97-11.21,5.34
			c-2.75,3.36-3.85,7.8-2.95,12.07l8.15,39.47c1.39,6.73,7.32,11.53,14.16,11.53h16.29C40.66,305,33.03,327.84,32.93,350.7
			c-0.1,28.24,10.62,53.76,30.22,71.82c0.22,0.19,0.43,0.32,0.64,0.51v55.22c0,11.96,9.72,21.7,21.7,21.7h50.72
			c11.98,0,21.7-9.74,21.7-21.7v-22.19h284.16v22.19c0,11.96,9.72,21.7,21.7,21.7h50.72c11.95,0,21.7-9.74,21.7-21.7v-54.14
			c20.8-19.05,30.74-45.27,30.87-71.44c0.09-23.64-7.88-47.32-24.54-65.84h17.38c6.87,0,12.8-4.8,14.16-11.55l8.16-39.45
			C583.08,231.59,582.03,227.17,579.28,223.79z M162.13,170.59c55.41-36.47,220.33-36.47,275.71,0
			c10.76,7.06,24.61,35.61,37.3,70.56H124.86C137.52,206.21,151.36,177.68,162.13,170.59z M97.22,356.14
			c0-23.58,19.13-42.68,42.69-42.68c23.6,0,42.69,19.1,42.69,42.68c0,23.58-19.1,42.69-42.69,42.69
			C116.35,398.83,97.22,379.72,97.22,356.14z M460.64,398.83c-23.57,0-42.69-19.11-42.69-42.69c0-23.58,19.13-42.68,42.69-42.68
			c23.6,0,42.69,19.1,42.69,42.68C503.34,379.72,484.21,398.83,460.64,398.83z"/>
	</g>
</g>
</svg>
