<?xml version="1.0" encoding="utf-8"?>
<!-- Generator: Adobe Illustrator 23.0.3, SVG Export Plug-In . SVG Version: 6.00 Build 0)  -->
<svg version="1.1" id="Layer_1" xmlns="http://www.w3.org/2000/svg" xmlns:xlink="http://www.w3.org/1999/xlink" x="0px" y="0px"
	 viewBox="0 0 600 600" style="enable-background:new 0 0 600 600;" xml:space="preserve">
<style type="text/css">
	.st0{fill:#FFFFFF;}
	.st1{fill:#6DC1EC;}
	.st2{fill:#0E497B;stroke:#0E497B;stroke-miterlimit:10;}
</style>
<rect x="0" class="st0" width="600" height="600"/>
<circle class="st1" cx="300" cy="234.26" r="218.48"/>
<g>
	<path class="st2" d="M129.27,489.23v-0.11c0-11.31,8.47-20.57,20.51-20.57c6.14,0,10.17,1.82,13.64,4.49
		c0.74,0.57,1.36,1.53,1.36,2.78c0,1.93-1.53,3.41-3.47,3.41c-0.97,0-1.65-0.34-2.1-0.68c-2.73-2.22-5.68-3.58-9.49-3.58
		c-7.56,0-13.13,6.25-13.13,14.04v0.11c0,7.79,5.51,14.09,13.13,14.09c4.2,0,7.05-1.36,9.94-3.81c0.51-0.45,1.25-0.79,2.1-0.79
		c1.76,0,3.3,1.48,3.3,3.24c0,1.08-0.51,1.93-1.14,2.5c-3.75,3.3-8.01,5.34-14.43,5.34C137.91,509.68,129.27,500.65,129.27,489.23z"
		/>
	<path class="st2" d="M167.85,504.45l14.77-32.96c0.8-1.76,2.22-2.84,4.21-2.84h0.34c1.99,0,3.35,1.08,4.15,2.84l14.77,32.96
		c0.28,0.51,0.4,1.02,0.4,1.48c0,1.88-1.42,3.35-3.3,3.35c-1.65,0-2.78-0.97-3.41-2.44l-3.24-7.44h-19.32l-3.35,7.67
		c-0.57,1.42-1.76,2.22-3.24,2.22c-1.82,0-3.24-1.42-3.24-3.24C167.4,505.53,167.57,505.02,167.85,504.45z M193.88,493.2
		l-6.99-16.08l-6.99,16.08H193.88z"/>
	<path class="st2" d="M211.21,472.41c0-1.93,1.53-3.47,3.52-3.47c1.93,0,3.47,1.53,3.47,3.47v30.23h18.01
		c1.76,0,3.18,1.42,3.18,3.18c0,1.76-1.42,3.18-3.18,3.18h-21.48c-1.99,0-3.52-1.53-3.52-3.52V472.41z"/>
	<path class="st2" d="M243.54,505.48v-32.73c0-1.99,1.53-3.52,3.52-3.52h23.13c1.7,0,3.12,1.42,3.12,3.12
		c0,1.76-1.42,3.12-3.12,3.12h-19.66v10.34h17.1c1.71,0,3.13,1.42,3.13,3.18c0,1.71-1.42,3.07-3.13,3.07h-17.1v10.68h19.95
		c1.7,0,3.12,1.42,3.12,3.13c0,1.76-1.42,3.12-3.12,3.12h-23.41C245.07,509,243.54,507.47,243.54,505.48z"/>
	<path class="st2" d="M278.77,472.52c0-1.93,1.53-3.52,3.52-3.52h0.74c1.71,0,2.67,0.85,3.64,2.05l19.89,25.74v-24.43
		c0-1.88,1.53-3.41,3.41-3.41c1.93,0,3.47,1.53,3.47,3.41v33.41c0,1.93-1.48,3.47-3.41,3.47h-0.28c-1.65,0-2.67-0.85-3.64-2.1
		l-20.46-26.48v25.23c0,1.88-1.54,3.41-3.41,3.41c-1.93,0-3.47-1.53-3.47-3.41V472.52z"/>
	<path class="st2" d="M320.81,472.75c0-1.99,1.53-3.52,3.52-3.52h11.31c12.5,0,21.14,8.58,21.14,19.77v0.11
		c0,11.19-8.64,19.89-21.14,19.89h-11.31c-1.99,0-3.52-1.53-3.52-3.52V472.75z M335.64,502.64c8.35,0,13.81-5.63,13.81-13.41v-0.11
		c0-7.78-5.46-13.52-13.81-13.52h-7.84v27.05H335.64z"/>
	<path class="st2" d="M360.13,504.45l14.77-32.96c0.8-1.76,2.22-2.84,4.21-2.84h0.34c1.99,0,3.35,1.08,4.15,2.84l14.77,32.96
		c0.28,0.51,0.4,1.02,0.4,1.48c0,1.88-1.42,3.35-3.3,3.35c-1.65,0-2.78-0.97-3.41-2.44l-3.24-7.44h-19.32l-3.35,7.67
		c-0.57,1.42-1.76,2.22-3.24,2.22c-1.82,0-3.24-1.42-3.24-3.24C359.68,505.53,359.85,505.02,360.13,504.45z M386.16,493.2
		l-6.99-16.08l-6.99,16.08H386.16z"/>
	<path class="st2" d="M403.49,472.75c0-1.99,1.53-3.52,3.52-3.52h14.21c5,0,8.92,1.48,11.48,3.98c2.1,2.16,3.3,5.11,3.3,8.58v0.11
		c0,6.36-3.69,10.23-9.04,11.88l7.61,9.6c0.68,0.85,1.14,1.59,1.14,2.67c0,1.93-1.65,3.24-3.35,3.24c-1.59,0-2.61-0.74-3.41-1.82
		l-9.66-12.33h-8.81v10.68c0,1.93-1.53,3.47-3.47,3.47c-1.99,0-3.52-1.53-3.52-3.47V472.75z M420.71,488.94c5,0,8.18-2.61,8.18-6.65
		v-0.11c0-4.26-3.07-6.59-8.24-6.59h-10.17v13.35H420.71z"/>
	<path class="st2" d="M442.12,472.41c0-1.93,1.53-3.47,3.52-3.47c1.93,0,3.47,1.53,3.47,3.47v33.41c0,1.93-1.53,3.47-3.47,3.47
		c-1.99,0-3.52-1.53-3.52-3.47V472.41z"/>
	<path class="st2" d="M455.14,489.23v-0.11c0-11.19,8.64-20.57,20.85-20.57s20.74,9.26,20.74,20.46v0.11
		c0,11.19-8.64,20.57-20.85,20.57C463.66,509.68,455.14,500.42,455.14,489.23z M489.4,489.23v-0.11c0-7.73-5.62-14.15-13.52-14.15
		c-7.9,0-13.41,6.31-13.41,14.04v0.11c0,7.73,5.63,14.09,13.52,14.09S489.4,496.95,489.4,489.23z"/>
	<path class="st2" d="M149.78,545.99c0-1.99,1.53-3.52,3.52-3.52h11.31c12.5,0,21.14,8.58,21.14,19.77v0.11
		c0,11.19-8.64,19.89-21.14,19.89h-11.31c-1.99,0-3.52-1.53-3.52-3.52V545.99z M164.62,575.88c8.35,0,13.81-5.63,13.81-13.41v-0.11
		c0-7.78-5.46-13.52-13.81-13.52h-7.84v27.05H164.62z"/>
	<path class="st2" d="M191.77,545.65c0-1.93,1.53-3.47,3.52-3.47c1.93,0,3.47,1.53,3.47,3.47v33.41c0,1.93-1.53,3.47-3.47,3.47
		c-1.99,0-3.52-1.53-3.52-3.47V545.65z"/>
	<path class="st2" d="M205.52,577.81c-0.8-0.57-1.36-1.53-1.36-2.67c0-1.82,1.48-3.24,3.3-3.24c0.97,0,1.59,0.28,2.05,0.62
		c3.3,2.61,6.82,4.09,11.14,4.09c4.32,0,7.05-2.04,7.05-5v-0.11c0-2.84-1.59-4.38-8.98-6.08c-8.47-2.05-13.24-4.55-13.24-11.88
		v-0.11c0-6.82,5.68-11.54,13.58-11.54c5,0,9.04,1.31,12.62,3.69c0.79,0.46,1.53,1.42,1.53,2.78c0,1.82-1.48,3.24-3.3,3.24
		c-0.68,0-1.25-0.17-1.82-0.51c-3.07-1.99-6.02-3.01-9.15-3.01c-4.09,0-6.48,2.1-6.48,4.72v0.11c0,3.07,1.82,4.43,9.49,6.25
		c8.41,2.05,12.73,5.06,12.73,11.65v0.11c0,7.44-5.85,11.88-14.21,11.88C215.07,582.81,209.96,581.11,205.52,577.81z"/>
	<path class="st2" d="M240.07,545.99c0-1.99,1.53-3.52,3.52-3.52h12.16c9.32,0,15.12,5.28,15.12,13.3v0.11
		c0,8.92-7.16,13.58-15.91,13.58h-7.9v9.6c0,1.93-1.53,3.47-3.47,3.47c-1.99,0-3.52-1.53-3.52-3.47V545.99z M255.19,563.15
		c5.28,0,8.58-2.96,8.58-7.1v-0.11c0-4.66-3.35-7.1-8.58-7.1h-8.13v14.32H255.19z"/>
	<path class="st2" d="M273.43,562.47v-0.11c0-11.19,8.64-20.57,20.85-20.57c12.22,0,20.74,9.26,20.74,20.46v0.11
		c0,11.19-8.64,20.57-20.85,20.57C281.95,582.92,273.43,573.66,273.43,562.47z M307.69,562.47v-0.11c0-7.73-5.62-14.15-13.52-14.15
		c-7.9,0-13.41,6.31-13.41,14.04v0.11c0,7.73,5.63,14.09,13.52,14.09C302.18,576.45,307.69,570.2,307.69,562.47z"/>
	<path class="st2" d="M320.64,545.76c0-1.93,1.53-3.52,3.52-3.52h0.74c1.71,0,2.67,0.85,3.64,2.05l19.89,25.74v-24.43
		c0-1.88,1.53-3.41,3.41-3.41c1.93,0,3.47,1.53,3.47,3.41V579c0,1.93-1.48,3.47-3.41,3.47h-0.28c-1.65,0-2.67-0.85-3.64-2.1
		l-20.46-26.48v25.23c0,1.88-1.54,3.41-3.41,3.41c-1.93,0-3.47-1.53-3.47-3.41V545.76z"/>
	<path class="st2" d="M363.09,545.65c0-1.93,1.53-3.47,3.52-3.47c1.93,0,3.47,1.53,3.47,3.47v33.41c0,1.93-1.53,3.47-3.47,3.47
		c-1.99,0-3.52-1.53-3.52-3.47V545.65z"/>
	<path class="st2" d="M377.86,545.99c0-1.99,1.53-3.52,3.52-3.52h14.32c4.55,0,8.13,1.25,10.4,3.52c1.76,1.76,2.67,3.92,2.67,6.59
		v0.11c0,4.77-2.73,7.33-5.68,8.86c4.66,1.59,7.9,4.26,7.9,9.66v0.11c0,7.1-5.85,10.91-14.72,10.91h-14.89
		c-1.99,0-3.52-1.53-3.52-3.52V545.99z M394.28,559.23c4.49,0,7.5-1.76,7.5-5.4v-0.11c0-3.12-2.5-5.06-6.99-5.06h-10.06v10.57
		H394.28z M396.33,576.05c4.77,0,7.67-1.88,7.67-5.46v-0.11c0-3.35-2.67-5.34-8.18-5.34h-11.08v10.91H396.33z"/>
	<path class="st2" d="M416.04,545.65c0-1.93,1.53-3.47,3.52-3.47c1.93,0,3.47,1.53,3.47,3.47v30.23h18.01
		c1.76,0,3.18,1.42,3.18,3.18c0,1.76-1.42,3.18-3.18,3.18h-21.48c-1.99,0-3.52-1.53-3.52-3.52V545.65z"/>
	<path class="st2" d="M448.37,578.72v-32.73c0-1.99,1.53-3.52,3.52-3.52h23.13c1.7,0,3.12,1.42,3.12,3.12
		c0,1.76-1.42,3.12-3.12,3.12h-19.66v10.34h17.1c1.71,0,3.13,1.42,3.13,3.18c0,1.71-1.42,3.07-3.13,3.07h-17.1v10.68h19.95
		c1.7,0,3.12,1.42,3.12,3.13c0,1.76-1.42,3.12-3.12,3.12H451.9C449.91,582.24,448.37,580.71,448.37,578.72z"/>
</g>
<g>
	<path class="st0" d="M385.03,303.56l-21.01,21.01l-8.83-8.83c-2.44-2.44-6.7-2.44-9.14,0c-2.44,2.44-2.44,6.7,0,9.14l13.4,13.4
		c1.22,1.22,3.05,1.83,4.57,1.83c1.52,0,3.35-0.61,4.57-1.83l25.58-25.58c2.44-2.44,2.44-6.7,0-9.14
		C391.73,300.82,387.46,300.82,385.03,303.56z"/>
	<path class="st0" d="M403,112.92h-10.96v-2.13c0-10.96-8.83-20.1-20.1-20.1c-10.96,0-20.1,8.83-20.1,20.1v2.13h-32.89v-2.13
		c0-10.96-8.83-20.1-20.1-20.1c-10.96,0-20.1,8.83-20.1,20.1v2.13h-33.2v-2.13c0-10.96-8.83-20.1-20.1-20.1
		c-11.27,0-20.1,8.83-20.1,20.1v2.13h-10.96c-17.97,0-32.59,14.62-32.59,32.59v202.22c0,17.97,14.62,32.59,32.59,32.59h208.31
		c17.97,0,32.59-14.62,32.59-32.59V145.2C435.58,127.23,420.96,112.92,403,112.92z M364.93,110.79c0-3.96,3.05-7,7-7
		c3.96,0,7,3.05,7,7v17.05c0,3.96-3.05,7-7,7c-3.96,0-7-3.05-7-7V110.79z M291.84,110.79c0-3.96,3.05-7,7-7s7,3.05,7,7v17.05
		c0,3.96-3.05,7-7,7s-7-3.05-7-7V110.79z M218.75,110.79c0-3.96,3.05-7,7-7s7,3.05,7,7v17.05c0,3.96-3.05,7-7,7s-7-3.05-7-7V110.79z
		 M422.49,347.42c0,10.66-8.83,19.49-19.49,19.49H194.69c-10.66,0-19.49-8.83-19.49-19.49V145.2c0-10.66,8.83-19.49,19.49-19.49
		h10.96v2.13c0,10.96,8.83,20.1,20.1,20.1c11.27,0,20.1-8.83,20.1-20.1v-2.13h33.2v2.13c0,10.96,8.83,20.1,20.1,20.1
		c10.96,0,20.1-8.83,20.1-20.1v-2.13h33.2v2.13c0,10.96,8.83,20.1,20.1,20.1c10.96,0,20.1-8.83,20.1-20.1v-2.13h10.96
		c10.66,0,19.49,8.83,19.49,19.49v202.22H422.49z"/>
	<path class="st0" d="M239.76,234.74h-25.89c-6.4,0-11.57,5.18-11.57,11.57v21.01c0,6.4,5.18,11.57,11.57,11.57h25.89
		c6.4,0,11.57-5.18,11.57-11.57v-21.01C251.33,239.91,246.16,234.74,239.76,234.74z M238.24,265.8h-23.15v-18.27h23.15V265.8z"/>
	<path class="st0" d="M311.63,234.74h-25.89c-6.4,0-11.57,5.18-11.57,11.57v21.01c0,6.4,5.18,11.57,11.57,11.57h25.89
		c6.4,0,11.57-5.18,11.57-11.57v-21.01C323.51,239.91,318.33,234.74,311.63,234.74z M310.41,265.8h-23.15v-18.27h23.15V265.8z"/>
	<path class="st0" d="M357.92,278.89h25.89c6.4,0,11.57-5.18,11.57-11.57v-21.01c0-6.4-5.18-11.57-11.57-11.57h-25.89
		c-6.4,0-11.57,5.18-11.57,11.57v21.01C346.35,273.72,351.53,278.89,357.92,278.89z M359.45,247.53h23.15v18.27h-23.15V247.53z"/>
	<path class="st0" d="M239.76,296.86h-25.89c-6.4,0-11.57,5.18-11.57,11.57v21.01c0,6.4,5.18,11.57,11.57,11.57h25.89
		c6.4,0,11.57-5.18,11.57-11.57v-21.01C251.33,302.04,246.16,296.86,239.76,296.86z M238.24,327.93h-23.15v-18.27h23.15V327.93z"/>
	<path class="st0" d="M311.63,296.86h-25.89c-6.4,0-11.57,5.18-11.57,11.57v21.01c0,6.4,5.18,11.57,11.57,11.57h25.89
		c6.4,0,11.57-5.18,11.57-11.57v-21.01C323.51,302.04,318.33,296.86,311.63,296.86z M310.41,327.93h-23.15v-18.27h23.15V327.93z"/>
	<path class="st0" d="M239.76,172.61h-25.89c-6.4,0-11.57,5.18-11.57,11.57v21.01c0,6.4,5.18,11.57,11.57,11.57h25.89
		c6.4,0,11.57-5.18,11.57-11.57v-21.01C251.33,177.79,246.16,172.61,239.76,172.61z M238.24,203.98h-23.15V185.7h23.15V203.98z"/>
	<path class="st0" d="M311.63,172.61h-25.89c-6.4,0-11.57,5.18-11.57,11.57v21.01c0,6.4,5.18,11.57,11.57,11.57h25.89
		c6.4,0,11.57-5.18,11.57-11.57v-21.01C323.51,177.79,318.33,172.61,311.63,172.61z M310.41,203.98h-23.15V185.7h23.15V203.98z"/>
	<path class="st0" d="M357.92,216.77h25.89c6.4,0,11.57-5.18,11.57-11.57v-21.01c0-6.4-5.18-11.57-11.57-11.57h-25.89
		c-6.4,0-11.57,5.18-11.57,11.57v21.01C346.35,211.59,351.53,216.77,357.92,216.77z M359.45,185.4h23.15v18.27h-23.15V185.4z"/>
</g>
</svg>
