<?xml version="1.0" encoding="utf-8"?>
<!-- Generator: Adobe Illustrator 23.0.3, SVG Export Plug-In . SVG Version: 6.00 Build 0)  -->
<svg version="1.1" id="Layer_1" xmlns="http://www.w3.org/2000/svg" xmlns:xlink="http://www.w3.org/1999/xlink" x="0px" y="0px"
	 viewBox="0 0 600 600" style="enable-background:new 0 0 600 600;" xml:space="preserve">
<style type="text/css">
	.st0{fill:#0E497B;}
</style>
<g>
	<path class="st0" d="M319.85,335.01c0-6.87-1.29-11.28-2.21-12.76c-0.92,1.47-2.21,5.89-2.21,12.76c0,6.87,1.29,11.28,2.21,12.76
		C318.56,346.29,319.85,341.87,319.85,335.01z"/>
	<path class="st0" d="M115.65,99.22c-0.13,0.22-0.22,0.48-0.26,0.7c-0.31,0.74-0.35,1.58-0.18,2.41l2.69,12.04
		c0.49,2.01,2.3,3.42,4.33,3.42c0.26,0,0.57-0.04,0.84-0.09l69.61-13.4c1.37-0.26,2.52-1.14,3.13-2.32c0.57-1.23,0.62-2.67,0-3.9
		l-6.22-12.61c-0.66-1.62-2.12-2.58-3.71-2.71c-1.85-1.58-3-3.85-3.09-6.35c3.53-2.36,6.22-5.73,7.72-9.72
		c2.03-5.3,1.68-11.12-0.88-16.07c-2.43-4.6-6.53-8.01-11.57-9.54c-5.21-1.62-10.77-1.09-15.63,1.44c-0.4,0.22-0.75,0.39-1.1,0.61
		c-7.64-6.44-18.85-7.7-28.12-2.8c-4.37,2.28-7.95,5.73-10.37,9.98c-4.28-0.66-8.74,0.04-12.71,2.14
		c-9.89,5.17-13.86,17.25-8.74,26.92c1.06,2.01,2.43,3.76,3.71,4.9c3.13,3.06,7.15,4.95,11.52,5.38c0.13,0,0.22,0.04,0.35,0.04
		c0.49,1.09,0.75,2.32,0.75,3.5c0,1.84-0.57,3.63-1.59,5.08C115.91,98.6,115.74,98.91,115.65,99.22z M128.63,87.48
		c1.59-0.88,3.09-1.93,4.46-3.2c7.11,3.55,15.85,3.46,23.18-0.39c2.69-1.44,5.08-3.28,7.11-5.52c3.44,1.49,7.24,1.93,10.99,1.31
		c0.35,1.79,0.97,3.5,1.9,5.08l-49.79,10.2c0.04-0.57,0.09-1.14,0.09-1.75c0-1.53-0.22-3.06-0.62-4.55
		C126.86,88.36,127.74,87.96,128.63,87.48z"/>
	<path class="st0" d="M158.73,159.89c21.91,0,39.73-17.68,39.73-39.4c0-2.91-0.33-5.78-0.96-8.58c-1,0.47-2.04,0.84-3.15,1.06
		l-69.61,13.4l-0.11,0.02l-0.11,0.02c-0.53,0.09-1.35,0.21-2.28,0.21c-0.94,0-1.85-0.13-2.74-0.32
		C122.33,145.27,138.82,159.89,158.73,159.89z"/>
	<path class="st0" d="M576.69,494.81h1.41c1.32,0,2.6-0.62,3.44-1.68c0.84-1.06,1.15-2.43,0.84-3.71l-23.93-100.69
		c-0.44-1.99-2.25-3.4-4.28-3.4h-15.8v-4.37c0-10.86-8.92-19.69-19.86-19.69h-11.26c-2.25-24.5-23.04-43.79-48.34-43.79
		c-25.29,0-46.09,19.29-48.34,43.79h-26.8c0-0.13,0.09-0.26,0.09-0.44v-17.17c12.36-1.1,22.07-11.43,22.07-23.97v-6.58
		c0-2.43-1.99-4.37-4.41-4.37h-44.14c-2.43,0-4.41,1.94-4.41,4.37v6.58c0,12.54,9.71,22.87,22.07,23.97v17.17
		c0,0.18,0.04,0.31,0.09,0.44h-36.02c0.35-1.15,0.62-2.3,0.62-3.58v-38.85c0-5.47-2.34-10.59-6.62-14.43
		c-0.84-0.75-1.68-1.41-2.6-2.03l-2.07-24.63c-0.18-2.3-2.12-4.02-4.41-4.02H311.3c-2.3,0-4.24,1.72-4.41,4.02l-2.07,24.63
		c-5.74,3.8-9.23,9.89-9.23,16.47v38.85c0,1.28,0.26,2.43,0.62,3.58h-2.83c-10.95,0-19.86,8.83-19.86,19.69v4.37h-7.81l-19.16-94.95
		c-0.4-2.07-2.21-3.53-4.33-3.53h-13.07c0.04-0.71,0.22-1.37,0.22-2.07c0-3.09-0.66-6-1.99-8.56c-3.22-6.67-10.06-10.99-17-10.99
		h-0.04l-46.35-4.19l11.43-45.87c2.21-9.31,0.57-18.89-4.59-27.06c-5.43-8.56-13.99-14.43-24.1-16.64l-8.92-1.9
		c-20.35-4.41-40.74,7.9-45.34,27.5c-1.19,5.03-28.83,123.03-30.68,132.61c-0.04,0.26-0.09,0.18-0.09,0.44
		c0,0.18-0.09,0.35-0.09,0.53v0.44c0,0.62,0,1.28,0.04,1.94c0,0,0,0,0,0.04c-1.94,6.36-6.67,26.53-22.34,95.31
		c-8.17,35.84-21.85,96.14-21.85,97.87v23.26c0,2.43,1.99,4.41,4.41,4.41h60.56c8.74,0,15.89-6.8,15.89-15.14
		c0-0.4-0.04-0.79-0.18-1.19c-1.85-6.27-7.06-20.88-15.72-20.88H71.73c4.99-22.29,24.15-108.28,31.12-139.49l43.79,60.04l0.53,112.3
		c0,2.43,1.99,4.37,4.41,4.37h57.96c8.48,0,15.41-6.89,15.41-15.27c0-0.4-0.04-0.79-0.18-1.15c-2.16-7.95-7.02-21.28-15.23-21.28
		h-11.26c-0.71-18.01-3.49-87.4-3.49-87.62c-0.22-2.07-0.57-5.96-52.49-78.62c0.88-1.59,1.63-3.22,2.16-4.86
		c0.44-1.15,0.84-2.3,1.06-3.44l3.4-14.52l1.54-6.49l1.46-6.18c0.04-0.13,0.04-0.22,0.04-0.31c0-0.09,0.04-0.18,0.04-0.26l3.8,0.84
		l36.73,7.86c1.41,0.31,2.87,0.49,4.28,0.49c5.08,0,9.89-1.9,13.55-5.21c3.05-3.75,5.08-8.52,5.61-13.86
		c1.41-13.77-7.46-26.44-19.82-28.16l-51.34-7.58l1.37-6.15l10.73-49.04c1.15-5.21,0.13-10.59-2.78-15.1
		c-2.91-4.5-7.42-7.59-12.49-8.7l-0.71-0.18c-10.9-2.3-21.67,4.55-24.06,15.36c-5.78,26.49-9.58,44.06-12.14,55.71
		c-0.75,3.35-1.37,6.22-1.9,8.7c-2.07,9.62-2.74,12.85-3,13.99c-0.18,1.06-0.31,2.07-0.31,3.13c0,0.04,0,0.04,0,0.09v0.31
		c0,9.18,6.58,17.61,15.89,19.6l28.12,6.05c-0.09,0.18-0.18,0.35-0.22,0.53l-0.09,0.35l-1.54,6.49l-1.5,6.49l-3.27,13.82
		c-0.18,0.79-0.4,1.54-0.75,2.43c-0.57,1.68-1.32,3.22-2.25,4.77c0,0-0.04,0-0.09,0.04c-1.15,1.15-16.11,9.62-24.32,14.21
		c-0.75,0-1.46,0.09-2.21,0.04c-0.97-0.04-3.58-0.4-5.39-0.71c-0.09-0.04-0.18-0.04-0.31-0.04l-1.37-0.31
		c-4.33-1.81-22.82-13.02-28.47-20.75c-0.57-1.9-1.06-3.84-1.19-5.87c0-0.09-0.04-0.18-0.04-0.26c0-0.04,0-0.04,0-0.04v-0.09
		c0-0.04,0-0.04,0-0.04s0,0,0-0.04c0-0.22,0-0.44-0.04-0.66c-0.04-0.31-0.04-0.62-0.04-0.97c0-0.13,0.04-0.22,0.04-0.26v-0.04
		c2.16-10.86,30.28-130.84,30.55-132.08c3.53-14.96,19.16-24.37,34.92-20.97l8.92,1.94c7.77,1.68,14.3,6.22,18.45,12.76
		c3.93,6.14,5.16,13.38,3.53,20.31l-12.49,50.19l42.73,6c14.26,1.99,24.9,15.05,25.56,30.19c1.28-1.1,2.43-2.43,3.4-3.88h12.54
		l18.14,89.92c-1.63,0.4-2.96,1.59-3.31,3.22l-10.55,44.36h132.17c2.43,0,4.41,1.94,4.41,4.37c0,2.43-1.99,4.37-4.41,4.37H240.8
		l-2.07,8.74h145.14c2.43,0,4.41,1.99,4.41,4.41c0,2.38-1.99,4.37-4.41,4.37H236.6l-2.07,8.74h140.51c2.43,0,4.41,1.94,4.41,4.37
		c0,2.43-1.99,4.37-4.41,4.37H232.45l-2.96,12.58c-0.31,1.28,0,2.65,0.79,3.71c0.84,1.06,2.12,1.68,3.49,1.68h1.41l-5.69,20.75
		c-0.35,1.32-0.04,2.69,0.79,3.8c0.84,1.06,2.12,1.72,3.49,1.72h22.07v12.49c-2.74,3.13-4.41,7.15-4.41,11.57
		c0,9.67,7.9,17.53,17.66,17.53c9.76,0,17.66-7.86,17.66-17.53c0-4.41-1.68-8.43-4.41-11.57v-12.49h242.79v12.49
		c-1.81,2.03-3.18,4.55-3.88,7.33c-2.34,9.36,3.4,18.89,12.85,21.23c1.41,0.35,2.87,0.53,4.28,0.53c7.9,0,15.14-5.3,17.13-13.29
		c1.46-5.74-0.18-11.61-3.88-15.8v-12.49h26.49c1.37,0,2.65-0.66,3.49-1.72c0.84-1.1,1.15-2.47,0.79-3.8L576.69,494.81z M453,341.49
		c2.47,0,4.41,1.99,4.41,4.37c0,2.43-1.94,4.41-4.41,4.41c-6.53,0-11.96,4.77-13.02,10.99h-8.83
		C432.25,350.19,441.56,341.49,453,341.49z M317.65,317.48c6.45,0,6.62,15.72,6.62,17.53c0,1.81-0.18,17.52-6.62,17.52
		c-6.45,0-6.62-15.72-6.62-17.52C311.03,333.2,311.21,317.48,317.65,317.48z M282.34,385.33v-4.37c0-6,4.94-10.95,11.04-10.95H518.5
		c6.09,0,11.04,4.94,11.04,10.95v4.37H282.34z M269.09,553.91c-4.86,0-8.83-3.97-8.83-8.78c0-4.81,3.97-8.74,8.83-8.74
		c2.16,0,4.15,0.79,5.69,2.07c1.9,1.59,3.13,4.02,3.13,6.67C277.92,549.94,273.95,553.91,269.09,553.91z M546.93,547.25
		c-1.19,4.72-6,7.55-10.68,6.4c-4.72-1.19-7.64-5.96-6.45-10.59c1.02-4.02,4.59-6.67,8.56-6.67c0.71,0,1.41,0.09,2.12,0.26
		c1.5,0.4,2.83,1.15,3.88,2.12C546.67,540.85,547.73,544.11,546.93,547.25z M239.56,512.33l4.77-17.52H567.5l4.81,17.52H239.56z"/>
</g>
</svg>
