<?xml version="1.0" encoding="utf-8"?>
<!-- Generator: Adobe Illustrator 23.0.3, SVG Export Plug-In . SVG Version: 6.00 Build 0)  -->
<svg version="1.1" id="Layer_1" xmlns="http://www.w3.org/2000/svg" xmlns:xlink="http://www.w3.org/1999/xlink" x="0px" y="0px"
	 viewBox="0 0 600 600" style="enable-background:new 0 0 600 600;" xml:space="preserve">
<style type="text/css">
	.st0{fill:#0E497B;}
</style>
<g>
	<g>
		<g>
			<circle class="st0" cx="428.77" cy="47.99" r="33.16"/>
		</g>
	</g>
	<g>
		<g>
			<path class="st0" d="M578.03,110.25c2.7-2.11,0.98-0.77,1.67-1.32c4.64-3.73,5.18-10.38,1.7-14.82
				c-0.01-0.02-0.03-0.03-0.04-0.05c-3.54-4.47-10.14-5.41-14.81-1.81c-0.02,0.01-0.04,0.03-0.06,0.04l-1.56,1.22l-3.14-4.01
				c-0.01-0.01-0.02-0.02-0.03-0.04c-2.94-3.7-8.27-4.25-11.89-1.41c0,0,0,0,0,0c-3.69,2.89-4.34,8.24-1.45,11.93l3.14,4.01
				l-2.67,2.1c-2.64-3.37-1.96-2.5-3.14-4.01c0,0,0,0,0-0.01c-2.88-3.67-8.23-4.33-11.93-1.44c-3.69,2.89-4.34,8.24-1.45,11.93
				l3.14,4.01l-49.45,38.74c-0.02-0.01-0.03-0.03-0.05-0.04c-19.53-16.59-44.65-13.71-52.93,5.84c-1.8,4.25-4.99,8.16-9.36,10.82
				l18.22,13.85c6.13-5.05,15-3.92,19.74,2.13c4.72,6.03,3.66,14.75-2.36,19.47c-2.84,2.22-6.28,3.15-9.61,2.9
				c-0.59,5.16-2.46,10.12-5.54,14.48c-4.85,6.87-12.24,11.44-20.41,12.82l3.24,4.14c2.89,3.69,2.25,9.04-1.45,11.93
				c-3.7,2.89-9.04,2.25-11.93-1.45l-18.64-23.79l-32.5-22.95c-4.1,20.86,5.85,43.43,21.44,57.9c17.42,16.13,44.28,23.45,62.87,8.88
				c8.79-6.89,13.63-17.27,14.51-28.88c0.82-10.77,8.93-19.57,19.56-21.27c20.15-3.23,30.26-26.15,18.31-50.05l49.45-38.74
				l3.14,4.01c0,0,0,0,0.01,0.01c3.05,3.89,8.88,4.42,12.57,0.88c0,0,0.01-0.01,0.01-0.01c3.07-2.95,3.53-7.86,0.79-11.36
				l-3.14-4.01l2.67-2.1l3.14,4.01c2.84,3.63,8.18,4.39,11.93,1.45c3.69-2.89,4.35-8.23,1.45-11.93L578.03,110.25z"/>
		</g>
	</g>
	<g>
		<g>
			<path class="st0" d="M471.81,91.72c-9.36,0-76.24,0-86.06,0c-20.77,0-37.76,16.9-37.86,37.63c-0.1,12.89-0.2,25.44-0.31,38.17
				v0.01c-0.05,5.7,2.64,10.49,6.77,13.41l54.96,38.81c7.2,5.09,17.19,3.39,22.3-3.84c5.1-7.22,3.38-17.2-3.84-22.3
				c-29.77-21.02-23.42-16.54-48.12-33.98c0.2-24.92,0.12-14.58,0.24-30.07c0.01-1.75,1.43-3.16,3.18-3.16
				c1.75,0,3.16,1.43,3.16,3.17v15.9l19.58,13.83c1.89,0.18,5.36,0.69,5.8,0.69c3.2,0,6.07-1.9,7.32-4.85
				c2.89-6.82,7.23-12.53,12.91-16.98c7.56-5.93,16.89-9.06,26.97-9.06c4.06,0,8.14,0.51,12.17,1.49v-0.24
				c0-1.53,1.06-2.85,2.55-3.19s3.02,0.41,3.67,1.79c0.51,1.08,0.83,2.36,0.82,3.86c2.52,0.98,5,2.13,7.42,3.48l21.89-17.15
				C501.32,102.27,487.95,91.72,471.81,91.72z"/>
		</g>
	</g>
	<g>
		<g>
			<circle class="st0" cx="166.86" cy="80.07" r="34.82"/>
		</g>
	</g>
	<g>
		<g>
			<path class="st0" d="M316.78,117.13l-17.01-12.25l3.67-7.27c4.19-8.28,0.87-18.39-7.41-22.57c-8.28-4.19-18.39-0.87-22.57,7.41
				L272.17,85l-10.48-7.55c1.01-6.74-1.68-13.79-7.59-18.05c-8.42-6.07-20.17-4.16-26.23,4.26s-4.16,20.17,4.26,26.23
				c5.91,4.26,13.45,4.57,19.52,1.48l12.68,9.13l-11.69,23.12L208,119.6c0,0-57.23,9.51-58.43,9.91l-40.77-35.15L89.68,27.2
				c-2.54-8.92-11.84-14.1-20.76-11.56S54.82,27.48,57.36,36.4l20.5,72c0.9,3.16,2.7,5.98,5.19,8.12l51.67,44.55L154.9,287.9
				c23.48,6.33,41.2,26.08,44.92,50.07l0.08-0.1c0.9-8.49,1.58,2.35-6.68-69.68l8.28-1.34l5.23,6.49l0.79-7.46l1.57-14.88
				c1.58-14.96,11.84-26.89,25.26-31.33l-10.31-63.68c0.59,0.03,38.11,1.71,38.7,1.71c6.31,0,12.12-3.55,14.99-9.22l14.2-28.09
				l14.81,10.67c3.84,2.77,9.21,1.9,11.98-1.95C321.49,125.27,320.62,119.91,316.78,117.13z"/>
		</g>
	</g>
	<g>
		<g>
			<path class="st0" d="M531.24,334.56l-2.28,21.54c-0.72,6.82-3.31,13.3-7.49,18.73l-0.47,0.6h63.17v-40.87L531.24,334.56
				L531.24,334.56z"/>
		</g>
	</g>
	<g>
		<g>
			<path class="st0" d="M248.02,235.81c-10.55-1.12-20,6.53-21.12,17.08l-9.72,91.9l-47.53,61.79c-29.69,0-34.43,0-64.08,0
				L61,337.36l-6.84-84.02c-0.86-10.57-10.12-18.41-20.7-17.58c-10.57,0.86-18.44,10.13-17.58,20.7l7.23,88.81
				c0.26,3.15,1.29,6.18,2.99,8.84c58.29,90.51,54.16,84.8,57.43,87.49v143.57h110.21c0-28.61,0-116.14,0-146.93l57.18-74.34
				c2.16-2.81,3.5-6.16,3.88-9.69l10.29-97.29C266.22,246.37,258.57,236.92,248.02,235.81z"/>
		</g>
	</g>
	<g>
		<g>
			<path class="st0" d="M504.36,235.81c-10.56-1.12-20,6.53-21.12,17.08l-9.72,91.9l-47.53,61.79c-7.26,0-65.72,0-74.62,0
				l-42.07-40.22l42.17-72.72c5.32-9.17,2.2-20.92-6.98-26.24c-9.17-5.32-20.92-2.19-26.24,6.98
				c-6.76,11.65-42.82,73.84-49.75,85.79c-2.36,4.08-3.07,8.73-2.26,13.12c1.49,8.08,14.78,19,73.63,75.16
				c0,23.04,0,132.08,0,136.72h110.21c0-28.61,0-116.15,0-146.93l57.18-74.33c2.16-2.81,3.5-6.16,3.88-9.69l10.29-97.29
				C522.55,246.37,514.9,236.92,504.36,235.81z"/>
		</g>
	</g>
	<g>
		<g>
			<circle class="st0" cx="138.87" cy="347.46" r="43.71"/>
		</g>
	</g>
	<g>
		<g>
			<circle class="st0" cx="395.21" cy="348.7" r="43.71"/>
		</g>
	</g>
</g>
</svg>
