<?xml version="1.0" encoding="utf-8"?>
<!-- Generator: Adobe Illustrator 23.0.3, SVG Export Plug-In . SVG Version: 6.00 Build 0)  -->
<svg version="1.1" id="Layer_1" xmlns="http://www.w3.org/2000/svg" xmlns:xlink="http://www.w3.org/1999/xlink" x="0px" y="0px"
	 viewBox="0 0 600 600" style="enable-background:new 0 0 600 600;" xml:space="preserve">
<style type="text/css">
	.st0{fill:#0E497B;}
</style>
<g>
	<g>
		<g>
			<path class="st0" d="M531.34,38.09H262.18c-6.71,0-12.15,5.44-12.15,12.15v94.65l13.47-8.36c3.43-2.13,7.09-3.57,10.82-4.36
				V62.38h244.87v175.18H274.32v-28.34l-24.29,15.08v25.41c0,6.71,5.44,12.15,12.15,12.15h269.16c6.71,0,12.15-5.44,12.15-12.15
				V50.24C543.48,43.53,538.05,38.09,531.34,38.09z"/>
		</g>
	</g>
	<g>
		<g>
			<path class="st0" d="M354.74,105.52c-3.2-4.05-9.07-4.75-13.12-1.55l-41.84,32.99c3.99,2.61,7.5,6.11,10.18,10.43
				c0.76,1.22,1.42,2.48,2.01,3.76l41.22-32.5C357.24,115.44,357.93,109.57,354.74,105.52z"/>
		</g>
	</g>
	<g>
		<g>
			<circle class="st0" cx="152.79" cy="54.69" r="34.96"/>
		</g>
	</g>
	<g>
		<g>
			<path class="st0" d="M295.63,156.28c-4.91-7.91-15.31-10.35-23.23-5.43l-34.16,21.21c-0.14-28.33-0.07-13.3-0.16-31.54
				c-0.11-21.9-18.02-39.72-39.92-39.72h-16.6c-14.18,36.77-9.61,23.12-21.65,54.33l5.06-22.04c0.35-1.65,0.1-3.37-0.72-4.85
				l-6.86-12.47l6.09-11.07c0.91-1.65-0.29-3.67-2.17-3.67H144.6c-1.88,0-3.08,2.02-2.17,3.67l6.1,11.09l-6.87,12.5
				c-0.8,1.45-1.06,3.14-0.74,4.76l4.38,22.08c-2.36-6.13-18.7-48.51-20.95-54.33h-16.93c-21.9,0-39.81,17.82-39.92,39.72
				l-0.62,123.93c-0.05,9.32,7.47,16.91,16.78,16.95c0.03,0,0.06,0,0.09,0c9.28,0,16.82-7.5,16.87-16.78l0.62-123.93
				c0-0.02,0-0.04,0-0.06c0.03-1.84,1.53-3.31,3.37-3.3c1.84,0.01,3.32,1.51,3.32,3.35l0.01,175.58
				c15.44-0.66,29.75,4.91,40.49,14.7v-68.5h8.74v78.58c6.16,9.05,9.76,19.97,9.76,31.72c0,10.7-2.99,20.72-8.18,29.26
				c5.33,0.03,10.5,0.73,15.44,2.04c6.65-5.77,14.65-10.02,23.47-12.19c0-305.82-0.37-116.73-0.37-251.17
				c0-1.95,1.58-3.53,3.52-3.53c1.95,0,3.53,1.57,3.54,3.52c0.06,11.83,0.25,48.82,0.31,61.69c0.03,6.11,3.36,11.72,8.71,14.68
				c5.34,2.95,11.86,2.8,17.06-0.43l59.78-37.12C298.11,174.6,300.54,164.2,295.63,156.28z"/>
		</g>
	</g>
	<g>
		<g>
			<circle class="st0" cx="489.64" cy="373.17" r="37.01"/>
		</g>
	</g>
	<g>
		<g>
			<path class="st0" d="M579.67,464.01c-0.12-23.18-19.07-42.04-42.26-42.04c-10,0-83.84,0-92.82,0c3.98,7.74,6.24,16.5,6.24,25.78
				c0,9.86-2.63,20.16-8.21,29.32c20.7,0.84,38.83,11.94,49.43,28.35h44.43v-40.98c0-2.02,1.6-3.67,3.61-3.74s3.72,1.47,3.86,3.48
				c0,0,0,0,0,0l0.21,41.23h35.71L579.67,464.01z"/>
		</g>
	</g>
	<g>
		<g>
			<path class="st0" d="M337.73,447.75c0-9.45,2.34-18.35,6.45-26.19c-24.1,0-52.39,0-82.4,0c3.8,7.6,5.95,16.15,5.95,25.21
				c0,10.64-2.99,20.72-8.18,29.26c17.03,0.08,32.75,7.16,44.1,18.9c11.01-10.75,26.01-17.42,42.52-17.51
				C340.45,468.18,337.73,457.79,337.73,447.75z"/>
		</g>
	</g>
	<g>
		<g>
			<path class="st0" d="M309.65,335.75c-20.44,0-37.01,16.57-37.01,37.01c0,20.39,16.54,37.01,37.01,37.01
				c20.27,0,37.01-16.38,37.01-37.01C346.66,352.34,330.12,335.75,309.65,335.75z"/>
		</g>
	</g>
	<g>
		<g>
			<path class="st0" d="M154.63,446.77c0-9.03,2.14-17.57,5.92-25.16c-1.6-0.08,5.11-0.05-97.97-0.05
				c-23.07,0-42.14,18.76-42.26,42.04l-0.21,41.82c16.32,0,19.6,0,35.71,0l0.21-41.64c0.01-2.06,1.69-3.72,3.75-3.72
				c2.06,0.01,3.73,1.68,3.73,3.74v41.62h50.06c10.79-17.25,29.34-28.08,49.53-28.91C157.63,467.69,154.63,457.5,154.63,446.77z"/>
		</g>
	</g>
	<g>
		<g>
			<path class="st0" d="M110.36,335.75c-20.44,0-37.01,16.57-37.01,37.01c0,20.35,16.47,37.01,37.01,37.01
				c20.29,0,37.01-16.44,37.01-37.01C147.37,352.32,130.8,335.75,110.36,335.75z"/>
		</g>
	</g>
	<g>
		<g>
			<path class="st0" d="M482.32,538.45c-0.11-23.19-19.07-42.05-42.26-42.05c-2.46,0-90.83,0-93.61,0
				c-23.18,0-43.35,18.86-43.47,42.04l-0.3-0.98c-0.11-23.09-18.98-42.04-42.26-42.04c-26.87,0-65.46,0-93.61,0
				c-23.18,0-43.35,18.86-43.47,42.04l-0.21,42.79h35.71l0.21-42.61c0.01-1.78,1.45-3.21,3.23-3.2c1.77,0,3.21,1.45,3.21,3.22v42.6
				c20.93,0,74.97,0,94.58,0v-42.6c0-1.9,1.54-3.44,3.44-3.45c1.9,0,3.45,1.53,3.46,3.43l0.21,42.61c7.3,0,63.76,0,71.31,0
				l0.21-41.64c0,0,0,0,0,0c0.01-1.77,1.45-3.21,3.23-3.2s3.21,1.45,3.21,3.22v41.62c20.93,0,74.97,0,94.58,0v-41.62
				c0-1.9,1.54-3.44,3.44-3.45c1.9,0,3.45,1.53,3.46,3.43l0.21,41.64h35.71L482.32,538.45z"/>
		</g>
	</g>
	<g>
		<g>
			<circle class="st0" cx="212.34" cy="446.63" r="37.44"/>
		</g>
	</g>
	<g>
		<g>
			<circle class="st0" cx="394.23" cy="447.6" r="37.44"/>
		</g>
	</g>
</g>
</svg>
