<?xml version="1.0" encoding="utf-8"?>
<!-- Generator: Adobe Illustrator 23.0.3, SVG Export Plug-In . SVG Version: 6.00 Build 0)  -->
<svg version="1.1" id="Layer_1" xmlns="http://www.w3.org/2000/svg" xmlns:xlink="http://www.w3.org/1999/xlink" x="0px" y="0px"
	 viewBox="0 0 600 600" style="enable-background:new 0 0 600 600;" xml:space="preserve">
<style type="text/css">
	.st0{fill:#6ACAF3;}
</style>
<g>
	<g>
		<circle class="st0" cx="299.99" cy="324.64" r="60.07"/>
		<path class="st0" d="M325.47,388.81H274.5c-42.41,0-76.91,34.51-76.91,76.91v62.35l0.16,0.97l4.29,1.34
			c40.47,12.65,75.64,16.87,104.58,16.87c56.52,0,89.28-16.12,91.3-17.14l4.01-2.05l0.41,0.01v-62.36
			C402.38,423.32,367.89,388.81,325.47,388.81z"/>
		<circle class="st0" cx="177.36" cy="149.66" r="96.91"/>
		<path class="st0" d="M422.6,246.56c53.52,0,96.89-43.4,96.89-96.92c0-53.5-43.39-96.89-96.89-96.89
			c-53.53,0-96.9,43.39-96.9,96.89S369.07,246.56,422.6,246.56z"/>
		<path class="st0" d="M252.89,379.36c-15.38-13.27-25.17-32.86-25.17-54.71c0-26.8,14.7-50.19,36.42-62.67
			c-14.15-5.63-29.53-8.82-45.66-8.82h-82.23c-68.41-0.01-124.06,55.67-124.06,124.07v100.58l0.25,1.57l6.92,2.15
			c64.07,20.02,119.84,26.91,166.02,27.16v-42.98C185.39,424.04,214.18,389.06,252.89,379.36z"/>
		<path class="st0" d="M463.72,253.15h-82.22c-16.13,0-31.49,3.19-45.64,8.81c21.74,12.48,36.44,35.86,36.44,62.67
			c0,21.84-9.79,41.43-25.16,54.7c15.49,3.86,29.76,11.78,41.35,23.38c16.85,16.86,26.13,39.24,26.12,63.01v42.97
			c46.18-0.25,101.96-7.15,166.01-27.16l6.92-2.15l0.26-1.57V377.23C587.79,308.83,532.13,253.15,463.72,253.15z"/>
	</g>
</g>
</svg>
