<?xml version="1.0" standalone="no"?>
<!DOCTYPE svg PUBLIC "-//W3C//DTD SVG 20010904//EN"
 "http://www.w3.org/TR/2001/REC-SVG-20010904/DTD/svg10.dtd">
<svg version="1.0" xmlns="http://www.w3.org/2000/svg"
 width="2501.000000pt" height="2501.000000pt" viewBox="0 0 2501.000000 2501.000000"
 preserveAspectRatio="xMidYMid meet">
<metadata>
Created by potrace 1.15, written by Peter Selinger 2001-2017
</metadata>
<g transform="translate(0.000000,2501.000000) scale(0.100000,-0.100000)"
fill="#000000" stroke="none">
<path d="M10863 5616 c-324 -86 -560 -339 -629 -673 -21 -98 -15 -349 10 -437
43 -152 99 -254 199 -362 167 -180 377 -264 656 -264 191 0 322 30 486 111
110 54 175 105 203 159 21 43 22 53 22 331 0 280 0 287 -23 320 -12 19 -42 44
-67 57 -43 21 -54 22 -305 22 -235 0 -264 -2 -302 -20 -55 -24 -83 -70 -83
-133 0 -60 20 -99 63 -126 32 -19 49 -21 211 -21 l176 0 0 -140 0 -139 -42
-25 c-124 -72 -319 -103 -451 -72 -109 26 -174 62 -253 140 -315 315 -148 904
277 976 131 22 282 -10 399 -85 126 -80 164 -89 236 -56 57 26 87 72 92 142 6
78 -16 120 -87 168 -82 56 -149 87 -248 117 -78 23 -109 27 -268 30 -166 4
-187 2 -272 -20z"/>
<path d="M8610 5612 c-162 -46 -283 -140 -348 -270 l-37 -76 0 -140 c0 -133 2
-144 27 -199 76 -163 188 -230 537 -321 195 -52 267 -82 310 -132 27 -30 31
-42 31 -92 0 -101 -61 -158 -195 -183 -140 -26 -344 33 -484 140 -59 44 -101
57 -159 47 -104 -16 -161 -131 -114 -228 37 -76 211 -178 399 -234 119 -36
350 -45 470 -19 205 45 345 160 403 335 19 56 21 82 18 185 -3 112 -5 125 -36
187 -66 135 -209 226 -463 294 -321 85 -392 123 -408 211 -10 56 3 100 40 139
99 103 319 91 523 -28 89 -52 142 -59 205 -26 55 29 81 74 81 143 0 89 -40
129 -205 206 -125 58 -189 71 -370 75 -133 3 -171 1 -225 -14z"/>
<path d="M9752 5600 c-18 -11 -41 -34 -52 -52 -19 -32 -20 -52 -20 -786 0
-836 -4 -788 67 -837 30 -20 50 -25 98 -25 70 0 114 22 145 72 19 32 20 52 20
788 0 736 -1 756 -20 788 -31 50 -75 72 -145 72 -42 0 -70 -6 -93 -20z"/>
<path d="M12109 5597 c-18 -12 -44 -38 -56 -56 l-23 -34 0 -744 c0 -667 2
-749 16 -779 26 -54 68 -78 144 -82 75 -4 117 16 150 70 19 32 20 52 20 551
l0 519 421 -546 c231 -300 435 -556 452 -568 48 -34 163 -38 212 -8 20 12 44
39 55 61 19 37 20 62 20 781 l0 743 -23 39 c-56 99 -222 104 -284 9 -17 -25
-18 -67 -23 -532 l-5 -505 -396 515 c-218 283 -410 526 -425 540 -45 42 -68
49 -147 49 -60 0 -80 -4 -108 -23z"/>
<path d="M14413 5591 c-22 -16 -45 -42 -52 -58 -9 -22 -11 -161 -8 -569 4
-597 2 -583 73 -731 46 -97 118 -181 201 -236 141 -94 258 -121 481 -115 134
4 169 9 237 31 212 70 358 222 426 447 23 73 23 86 26 615 3 527 3 541 -17
573 -31 50 -75 72 -146 72 -51 0 -67 -5 -101 -29 -22 -16 -45 -42 -51 -57 -7
-20 -12 -189 -15 -519 -3 -396 -7 -500 -19 -540 -56 -188 -175 -276 -373 -276
-231 1 -359 127 -386 381 -5 47 -9 276 -9 510 0 406 -1 426 -20 458 -31 50
-75 72 -146 72 -51 0 -67 -5 -101 -29z"/>
<path d="M16123 5589 c-18 -11 -41 -35 -53 -53 -20 -33 -20 -47 -20 -782 0
-730 1 -750 20 -782 31 -50 75 -72 145 -72 70 0 114 22 145 72 18 30 20 51 20
251 l0 217 223 0 c189 0 235 3 307 20 296 72 470 282 470 570 0 233 -109 416
-302 508 -139 67 -179 72 -575 72 -334 0 -349 -1 -380 -21z m742 -315 c66 -25
137 -96 154 -153 43 -146 -13 -275 -149 -340 -53 -25 -62 -26 -272 -29 l-218
-4 0 277 0 277 218 -4 c183 -4 225 -8 267 -24z"/>
<path d="M12113 2566 c-324 -86 -560 -339 -629 -673 -21 -98 -15 -349 10 -437
43 -152 99 -254 199 -362 167 -180 377 -264 656 -264 191 0 322 30 486 111
110 54 175 105 203 159 21 43 22 53 22 331 0 280 0 287 -23 320 -12 19 -42 44
-67 57 -43 21 -54 22 -305 22 -235 0 -264 -2 -302 -20 -25 -11 -51 -33 -63
-52 -26 -44 -27 -122 0 -165 34 -57 59 -63 255 -63 l175 0 0 -140 0 -139 -42
-25 c-124 -72 -319 -103 -451 -72 -109 26 -174 62 -253 140 -315 315 -148 904
277 976 131 22 282 -10 399 -85 126 -80 164 -89 236 -56 57 26 87 72 92 142 6
78 -16 120 -87 168 -82 56 -149 87 -248 117 -78 23 -109 27 -268 30 -166 4
-187 2 -272 -20z"/>
<path d="M13895 2573 c-258 -55 -480 -225 -597 -458 -14 -27 -38 -88 -53 -135
-24 -73 -28 -106 -33 -238 -4 -132 -2 -165 17 -246 39 -168 133 -331 255 -442
111 -102 264 -179 415 -210 116 -23 355 -15 456 15 239 71 433 231 540 446 72
145 88 221 88 410 0 145 -2 168 -27 249 -97 322 -336 544 -657 611 -91 19
-310 18 -404 -2z m367 -324 c172 -57 305 -204 353 -388 20 -79 20 -227 0 -306
-50 -195 -207 -354 -390 -395 -66 -15 -187 -15 -250 0 -255 62 -430 312 -412
591 24 371 362 612 699 498z"/>
<path d="M15795 2573 c-258 -55 -480 -225 -597 -458 -14 -27 -38 -88 -53 -135
-24 -73 -28 -106 -33 -238 -4 -132 -2 -165 17 -246 39 -168 133 -331 255 -442
111 -102 264 -179 415 -210 116 -23 355 -15 456 15 239 71 433 231 540 446 72
145 88 221 88 410 0 145 -2 168 -27 249 -97 322 -336 544 -657 611 -91 19
-310 18 -404 -2z m367 -324 c226 -76 370 -288 369 -543 -1 -167 -53 -298 -161
-406 -104 -104 -219 -151 -370 -151 -147 -1 -267 48 -371 151 -197 195 -224
517 -62 754 129 188 375 269 595 195z"/>
<path d="M17643 2566 c-324 -86 -560 -339 -629 -673 -21 -98 -15 -349 10 -437
43 -152 99 -254 199 -362 167 -180 377 -264 656 -264 191 0 322 30 486 111
110 54 175 105 203 159 21 43 22 53 22 331 0 280 0 287 -23 320 -12 19 -42 44
-67 57 -43 21 -54 22 -305 22 -235 0 -264 -2 -302 -20 -25 -11 -51 -33 -63
-52 -26 -44 -27 -122 0 -165 34 -57 59 -63 255 -63 l175 0 0 -140 0 -139 -42
-25 c-124 -72 -319 -103 -451 -72 -109 26 -174 62 -253 140 -315 315 -148 904
277 976 131 22 282 -10 399 -85 126 -80 164 -89 236 -56 57 26 87 72 92 142 6
78 -16 120 -87 168 -82 56 -149 87 -248 117 -78 23 -109 27 -268 30 -166 4
-187 2 -272 -20z"/>
<path d="M5749 2557 c-19 -12 -43 -41 -55 -62 -11 -22 -99 -279 -195 -571
l-174 -530 -185 548 c-151 448 -191 554 -214 579 -37 39 -64 49 -129 49 -63 0
-113 -24 -144 -70 -48 -69 -46 -73 232 -851 159 -444 265 -725 281 -746 36
-48 73 -63 149 -63 82 0 128 20 161 69 13 20 89 230 170 466 80 237 160 470
176 519 l31 89 178 -523 c98 -288 187 -535 197 -549 38 -52 79 -71 154 -71 91
0 140 26 175 95 9 16 130 349 270 740 220 615 254 716 250 754 -9 83 -76 141
-164 141 -62 0 -100 -17 -136 -59 -18 -21 -77 -187 -202 -563 -98 -293 -181
-536 -184 -540 -4 -5 -87 236 -185 535 -115 349 -187 554 -203 575 -35 47 -72
62 -151 62 -55 0 -76 -5 -103 -23z"/>
<path d="M7312 2550 c-18 -11 -41 -34 -52 -52 -19 -32 -20 -52 -20 -786 0
-836 -4 -788 67 -837 30 -20 50 -25 98 -25 70 0 114 22 145 72 19 32 20 52 20
788 0 736 -1 756 -20 788 -31 50 -75 72 -145 72 -42 0 -70 -6 -93 -20z"/>
<path d="M9342 2550 c-18 -11 -41 -34 -52 -52 -19 -32 -20 -52 -20 -786 0
-836 -4 -788 67 -837 30 -20 50 -25 98 -25 70 0 114 22 145 72 19 31 20 51 20
336 l0 302 380 0 380 0 0 -302 c0 -285 1 -305 20 -336 30 -49 75 -72 144 -72
69 0 114 23 145 74 21 33 21 45 21 785 0 835 4 787 -67 836 -30 20 -50 25 -98
25 -70 0 -114 -22 -145 -72 -19 -31 -20 -51 -20 -330 l0 -298 -380 0 -380 0 0
298 c0 279 -1 299 -20 330 -31 50 -75 72 -145 72 -42 0 -70 -6 -93 -20z"/>
<path d="M18882 2550 c-18 -11 -41 -34 -52 -52 -19 -32 -20 -52 -20 -782 0
-737 0 -749 21 -782 11 -18 35 -42 53 -53 32 -20 47 -21 537 -21 488 0 505 1
537 20 44 27 76 98 69 153 -6 44 -29 80 -71 111 -26 20 -41 21 -422 24 l-394
3 0 647 c0 628 -1 648 -20 680 -31 50 -75 72 -145 72 -42 0 -70 -6 -93 -20z"/>
<path d="M7802 2540 c-47 -29 -72 -76 -72 -135 0 -59 25 -106 72 -135 30 -18
51 -20 251 -20 l217 0 0 -646 c0 -634 0 -647 21 -680 31 -51 76 -74 146 -74
75 0 118 26 151 90 l22 44 0 633 0 633 220 0 221 0 42 39 42 40 0 76 0 76 -42
40 -42 39 -608 0 c-589 0 -609 -1 -641 -20z"/>
<path d="M20233 2539 c-18 -11 -41 -35 -53 -53 -20 -33 -20 -47 -20 -776 0
-731 0 -743 21 -776 11 -18 35 -42 53 -53 33 -21 46 -21 577 -21 522 0 545 1
576 20 92 56 88 208 -7 265 -34 19 -53 20 -462 23 l-428 3 0 199 0 200 370 0
c402 0 405 0 449 56 50 63 28 181 -41 224 -32 19 -49 20 -405 20 l-373 0 0
189 0 190 423 3 c414 3 423 3 457 25 49 30 70 71 70 135 0 59 -20 99 -66 129
-28 18 -57 19 -569 19 -528 0 -541 -1 -572 -21z"/>
</g>
</svg>
