<?xml version="1.0" encoding="utf-8"?>
<!-- Generator: Adobe Illustrator 23.0.3, SVG Export Plug-In . SVG Version: 6.00 Build 0)  -->
<svg version="1.1" id="Layer_1" xmlns="http://www.w3.org/2000/svg" xmlns:xlink="http://www.w3.org/1999/xlink" x="0px" y="0px"
	 viewBox="0 0 600 515" style="enable-background:new 0 0 600 515;" xml:space="preserve">
<style type="text/css">
	.st0{fill:#53A3D4;}
	.st1{enable-background:new    ;}
	.st2{fill:#10487B;}
	.st3{fill:none;stroke:#10487B;stroke-miterlimit:10;}
	.st4{fill:#FFFFFF;}
</style>
<circle class="st0" cx="299" cy="230.8" r="218.5"/>
<g>
	<g class="st1">
		<path class="st2" d="M164.6,467.4c0-2,1.5-3.5,3.5-3.5h14.2c5,0,8.9,1.5,11.5,4c2.1,2.2,3.3,5.1,3.3,8.6v0.1
			c0,6.4-3.7,10.2-9,11.9l7.6,9.6c0.7,0.9,1.1,1.6,1.1,2.7c0,1.9-1.6,3.2-3.4,3.2c-1.6,0-2.6-0.7-3.4-1.8l-9.7-12.3h-8.8v10.7
			c0,1.9-1.5,3.5-3.5,3.5c-2,0-3.5-1.5-3.5-3.5V467.4z M181.8,483.6c5,0,8.2-2.6,8.2-6.6v-0.1c0-4.3-3.1-6.6-8.2-6.6h-10.2v13.4
			H181.8z"/>
		<path class="st2" d="M216,504.4c-8.7,0-15.4-6.3-15.4-15.6v-0.1c0-8.6,6.1-15.6,14.7-15.6c9.5,0,14.3,7.8,14.3,14.8
			c0,1.9-1.5,3.3-3.2,3.3h-18.8c0.7,4.9,4.2,7.6,8.6,7.6c2.9,0,5.2-1,7.1-2.6c0.5-0.4,1-0.6,1.8-0.6c1.5,0,2.7,1.2,2.7,2.8
			c0,0.9-0.4,1.6-0.9,2.1C224.1,502.8,220.7,504.4,216,504.4z M222.9,486.6c-0.5-4.4-3.1-7.9-7.6-7.9c-4.2,0-7.2,3.2-7.8,7.9H222.9z
			"/>
		<path class="st2" d="M234.6,476.8c0-1.9,1.5-3.5,3.4-3.5s3.5,1.5,3.5,3.5v1.5c1.9-2.8,4.7-5.2,9.4-5.2c6.8,0,10.7,4.5,10.7,11.5
			v16c0,1.9-1.5,3.4-3.4,3.4s-3.5-1.5-3.5-3.4v-13.9c0-4.7-2.3-7.3-6.4-7.3c-4,0-6.8,2.8-6.8,7.4v13.8c0,1.9-1.5,3.4-3.5,3.4
			c-1.9,0-3.4-1.5-3.4-3.4V476.8z"/>
		<path class="st2" d="M266.2,488.9v-0.1c0-8.6,6.8-15.7,16-15.7c9.2,0,16,7,16,15.6v0.1c0,8.5-6.8,15.6-16.1,15.6
			C273,504.4,266.2,497.4,266.2,488.9z M291.3,488.9v-0.1c0-5.3-3.8-9.7-9.2-9.7c-5.5,0-9,4.3-9,9.5v0.1c0,5.2,3.8,9.6,9.1,9.6
			C287.8,498.3,291.3,494,291.3,488.9z"/>
		<path class="st2" d="M314.5,504.3h-0.3c-1.9,0-3.1-1.2-3.9-3l-10-22.9c-0.2-0.5-0.4-1.1-0.4-1.7c0-1.7,1.5-3.3,3.4-3.3
			s2.8,1.1,3.4,2.5l7.7,19.9l7.8-20c0.5-1.2,1.4-2.4,3.2-2.4c1.9,0,3.4,1.4,3.4,3.3c0,0.6-0.2,1.3-0.4,1.6l-10,23
			C317.6,503,316.3,504.3,314.5,504.3z"/>
		<path class="st2" d="M330.4,495.1v-0.1c0-6.5,5.1-9.7,12.4-9.7c3.4,0,5.7,0.5,8.1,1.2v-0.7c0-4.3-2.6-6.5-7.4-6.5
			c-2.6,0-4.8,0.5-6.6,1.2c-0.4,0.1-0.7,0.2-1.1,0.2c-1.6,0-2.9-1.2-2.9-2.8c0-1.2,0.9-2.3,1.9-2.7c2.8-1.1,5.7-1.8,9.7-1.8
			c4.5,0,7.8,1.2,9.9,3.4c2.2,2.2,3.2,5.3,3.2,9.3v14.8c0,1.9-1.5,3.3-3.4,3.3c-2,0-3.4-1.4-3.4-2.9v-1.1c-2,2.4-5.2,4.4-9.8,4.4
			C335.4,504.3,330.4,501.1,330.4,495.1z M351,492.9v-2c-1.8-0.7-4.1-1.2-6.8-1.2c-4.4,0-7,1.9-7,5v0.1c0,2.9,2.6,4.5,5.9,4.5
			C347.5,499.3,351,496.7,351,492.9z"/>
		<path class="st2" d="M363.8,476.8c0-1.9,1.5-3.5,3.4-3.5c1.9,0,3.5,1.5,3.5,3.5v3.1c1.6-3.8,4.5-6.6,7.6-6.6
			c2.2,0,3.4,1.4,3.4,3.4c0,1.8-1.2,3-2.7,3.3c-4.9,0.9-8.2,4.6-8.2,11.7v8.9c0,1.9-1.5,3.4-3.5,3.4c-1.9,0-3.4-1.5-3.4-3.4V476.8z"
			/>
	</g>
	<g class="st1">
		<path class="st3" d="M164.6,467.4c0-2,1.5-3.5,3.5-3.5h14.2c5,0,8.9,1.5,11.5,4c2.1,2.2,3.3,5.1,3.3,8.6v0.1
			c0,6.4-3.7,10.2-9,11.9l7.6,9.6c0.7,0.9,1.1,1.6,1.1,2.7c0,1.9-1.6,3.2-3.4,3.2c-1.6,0-2.6-0.7-3.4-1.8l-9.7-12.3h-8.8v10.7
			c0,1.9-1.5,3.5-3.5,3.5c-2,0-3.5-1.5-3.5-3.5V467.4z M181.8,483.6c5,0,8.2-2.6,8.2-6.6v-0.1c0-4.3-3.1-6.6-8.2-6.6h-10.2v13.4
			H181.8z"/>
		<path class="st3" d="M216,504.4c-8.7,0-15.4-6.3-15.4-15.6v-0.1c0-8.6,6.1-15.6,14.7-15.6c9.5,0,14.3,7.8,14.3,14.8
			c0,1.9-1.5,3.3-3.2,3.3h-18.8c0.7,4.9,4.2,7.6,8.6,7.6c2.9,0,5.2-1,7.1-2.6c0.5-0.4,1-0.6,1.8-0.6c1.5,0,2.7,1.2,2.7,2.8
			c0,0.9-0.4,1.6-0.9,2.1C224.1,502.8,220.7,504.4,216,504.4z M222.9,486.6c-0.5-4.4-3.1-7.9-7.6-7.9c-4.2,0-7.2,3.2-7.8,7.9H222.9z
			"/>
		<path class="st3" d="M234.6,476.8c0-1.9,1.5-3.5,3.4-3.5s3.5,1.5,3.5,3.5v1.5c1.9-2.8,4.7-5.2,9.4-5.2c6.8,0,10.7,4.5,10.7,11.5
			v16c0,1.9-1.5,3.4-3.4,3.4s-3.5-1.5-3.5-3.4v-13.9c0-4.7-2.3-7.3-6.4-7.3c-4,0-6.8,2.8-6.8,7.4v13.8c0,1.9-1.5,3.4-3.5,3.4
			c-1.9,0-3.4-1.5-3.4-3.4V476.8z"/>
		<path class="st3" d="M266.2,488.9v-0.1c0-8.6,6.8-15.7,16-15.7c9.2,0,16,7,16,15.6v0.1c0,8.5-6.8,15.6-16.1,15.6
			C273,504.4,266.2,497.4,266.2,488.9z M291.3,488.9v-0.1c0-5.3-3.8-9.7-9.2-9.7c-5.5,0-9,4.3-9,9.5v0.1c0,5.2,3.8,9.6,9.1,9.6
			C287.8,498.3,291.3,494,291.3,488.9z"/>
		<path class="st3" d="M314.5,504.3h-0.3c-1.9,0-3.1-1.2-3.9-3l-10-22.9c-0.2-0.5-0.4-1.1-0.4-1.7c0-1.7,1.5-3.3,3.4-3.3
			s2.8,1.1,3.4,2.5l7.7,19.9l7.8-20c0.5-1.2,1.4-2.4,3.2-2.4c1.9,0,3.4,1.4,3.4,3.3c0,0.6-0.2,1.3-0.4,1.6l-10,23
			C317.6,503,316.3,504.3,314.5,504.3z"/>
		<path class="st3" d="M330.4,495.1v-0.1c0-6.5,5.1-9.7,12.4-9.7c3.4,0,5.7,0.5,8.1,1.2v-0.7c0-4.3-2.6-6.5-7.4-6.5
			c-2.6,0-4.8,0.5-6.6,1.2c-0.4,0.1-0.7,0.2-1.1,0.2c-1.6,0-2.9-1.2-2.9-2.8c0-1.2,0.9-2.3,1.9-2.7c2.8-1.1,5.7-1.8,9.7-1.8
			c4.5,0,7.8,1.2,9.9,3.4c2.2,2.2,3.2,5.3,3.2,9.3v14.8c0,1.9-1.5,3.3-3.4,3.3c-2,0-3.4-1.4-3.4-2.9v-1.1c-2,2.4-5.2,4.4-9.8,4.4
			C335.4,504.3,330.4,501.1,330.4,495.1z M351,492.9v-2c-1.8-0.7-4.1-1.2-6.8-1.2c-4.4,0-7,1.9-7,5v0.1c0,2.9,2.6,4.5,5.9,4.5
			C347.5,499.3,351,496.7,351,492.9z"/>
		<path class="st3" d="M363.8,476.8c0-1.9,1.5-3.5,3.4-3.5c1.9,0,3.5,1.5,3.5,3.5v3.1c1.6-3.8,4.5-6.6,7.6-6.6
			c2.2,0,3.4,1.4,3.4,3.4c0,1.8-1.2,3-2.7,3.3c-4.9,0.9-8.2,4.6-8.2,11.7v8.9c0,1.9-1.5,3.4-3.5,3.4c-1.9,0-3.4-1.5-3.4-3.4V476.8z"
			/>
	</g>
</g>
<g>
	<path class="st4" d="M453.5,138.8c-7.5-2-14.2,2.6-16.6,9.5c-2.3,6.7-4.7,13.4-7,20.1c-11.8-22.4-29.4-41.7-50.8-55.7
		c-15.2-10-32.6-17.1-50.4-20.8c-19.7-4-39.6-4-59.3-0.3c-38.9,7.3-73.2,31.1-95.1,63.7c-10.2,15.2-17.5,32.7-21.4,50.5
		c-1.5,7.2,2,14.5,9.4,16.6c6.7,2.1,15-2,16.5-9.2c1.8-8.2,4.3-16.1,7.5-23.8c4.3-9.5,9.5-18.4,15.8-26.7c6.4-8,13.6-15.2,21.5-21.6
		c8-6,16.6-11.1,25.7-15.2c10.4-4.3,21.2-7.4,32.3-9.1c11.1-1.4,22.4-1.3,33.5,0c10.8,1.7,21.4,4.6,31.5,8.9
		c9.4,4.2,18.2,9.5,26.4,15.6c7.9,6.4,15.2,13.6,21.6,21.6c5.5,7.3,10.2,15.2,14.2,23.4c-9.4-3.3-18.8-6.6-28.2-9.8
		c-1-0.3-1.9-0.7-2.9-1c-6.9-2.4-14.7,2.7-16.6,9.4c-2,7.4,2.5,14.2,9.4,16.6c17.8,6.2,35.5,12.4,53.3,18.6c1,0.3,1.9,0.7,2.9,1
		c3.3,1.2,7.4,0.4,10.4-1.4c3.2-1.9,5-4.7,6.2-8.1c6.2-17.8,12.4-35.5,18.6-53.3c0.3-1,0.7-1.9,1-2.9
		C465.3,148.5,460.2,140.7,453.5,138.8z"/>
	<path class="st4" d="M436.1,251.6c-6.7-2-15,2.1-16.5,9.2c-1.8,8.2-4.3,16.1-7.5,23.8c-4.3,9.5-9.5,18.4-15.8,26.7
		c-6.4,8-13.6,15.2-21.5,21.6c-8,6-16.6,11.1-25.7,15.2c-10.4,4.3-21.2,7.4-32.3,9.1c-11.1,1.4-22.4,1.3-33.5,0
		c-10.8-1.7-21.4-4.6-31.5-8.9c-9.4-4.2-18.2-9.5-26.4-15.6c-7.9-6.4-15.2-13.7-21.6-21.6c-5.5-7.3-10.2-15.2-14.2-23.4
		c9.4,3.3,18.8,6.6,28.2,9.8c1,0.3,1.9,0.7,2.9,1c6.9,2.4,14.7-2.7,16.6-9.4c2-7.4-2.5-14.2-9.4-16.6c-17.8-6.2-35.5-12.4-53.3-18.6
		c-1-0.3-1.9-0.7-2.9-1c-3.3-1.2-7.4-0.4-10.4,1.4c-3.2,1.9-5,4.7-6.2,8.1c-6.2,17.8-12.4,35.5-18.6,53.3c-0.3,1-0.7,1.9-1,2.9
		c-2.4,6.9,2.7,14.7,9.4,16.6c7.4,2,14.1-2.5,16.6-9.5c2.3-6.7,4.7-13.4,7-20.1c11.8,22.4,29.4,41.7,50.8,55.7
		c15.2,10,32.6,17.1,50.4,20.8c19.7,4,39.6,4,59.3,0.3c38.9-7.3,73.2-31.1,95.1-63.7c10.2-15.2,17.5-32.7,21.4-50.5
		C447,261,443.5,253.7,436.1,251.6z"/>
</g>
</svg>
