<?xml version="1.0" encoding="utf-8"?>
<!-- Generator: Adobe Illustrator 23.0.3, SVG Export Plug-In . SVG Version: 6.00 Build 0)  -->
<svg version="1.1" id="Layer_1" xmlns="http://www.w3.org/2000/svg" xmlns:xlink="http://www.w3.org/1999/xlink" x="0px" y="0px"
	 viewBox="0 0 600 209.54" style="enable-background:new 0 0 600 209.54;" xml:space="preserve">
<style type="text/css">
	.st0{fill:#6DC1EC;}
	.st1{fill:#0E497B;stroke:#0C4A7B;stroke-miterlimit:10;}
	.st2{fill:#0E497B;}
</style>
<g>
	<path class="st0" d="M556.96,190.97H43.04c-16.68,0-30.33-13.65-30.33-30.33V48.9c0-16.68,13.65-30.33,30.33-30.33h513.92
		c16.68,0,30.33,13.65,30.33,30.33v111.74C587.29,177.33,573.64,190.97,556.96,190.97z"/>
	<g>
		<path class="st1" d="M234.84,127.4c-1.26-0.9-2.17-2.44-2.17-4.24c0-2.89,2.35-5.15,5.24-5.15c1.54,0,2.53,0.45,3.25,0.99
			c5.24,4.15,10.83,6.5,17.7,6.5c6.86,0,11.2-3.25,11.2-7.95v-0.18c0-4.51-2.53-6.95-14.26-9.66c-13.45-3.25-21.04-7.22-21.04-18.87
			v-0.18c0-10.83,9.03-18.33,21.58-18.33c7.95,0,14.36,2.08,20.04,5.87c1.26,0.72,2.44,2.26,2.44,4.42c0,2.89-2.35,5.15-5.24,5.15
			c-1.08,0-1.99-0.27-2.89-0.81c-4.88-3.16-9.57-4.79-14.54-4.79c-6.5,0-10.29,3.34-10.29,7.49v0.18c0,4.88,2.89,7.04,15.08,9.93
			c13.36,3.25,20.22,8.04,20.22,18.51v0.18c0,11.83-9.3,18.87-22.57,18.87C250.01,135.34,241.89,132.64,234.84,127.4z"/>
		<path class="st1" d="M286.12,127.22l23.47-52.37c1.26-2.8,3.52-4.51,6.68-4.51h0.54c3.16,0,5.33,1.72,6.59,4.51l23.47,52.37
			c0.45,0.81,0.63,1.62,0.63,2.35c0,2.98-2.26,5.33-5.24,5.33c-2.62,0-4.42-1.53-5.42-3.88l-5.15-11.83h-30.7l-5.33,12.19
			c-0.9,2.26-2.8,3.52-5.15,3.52c-2.89,0-5.15-2.26-5.15-5.15C285.4,128.93,285.67,128.12,286.12,127.22z M327.48,109.34
			l-11.11-25.55l-11.1,25.55H327.48z"/>
		<path class="st1" d="M355.01,76.3c0-3.07,2.44-5.51,5.6-5.51c3.07,0,5.51,2.44,5.51,5.51v48.03h28.62c2.8,0,5.06,2.26,5.06,5.06
			s-2.26,5.06-5.06,5.06h-34.13c-3.16,0-5.6-2.44-5.6-5.6V76.3z"/>
		<path class="st1" d="M407.01,76.3c0-3.07,2.44-5.51,5.6-5.51c3.07,0,5.51,2.44,5.51,5.51v53.09c0,3.07-2.44,5.51-5.51,5.51
			c-3.16,0-5.6-2.44-5.6-5.51V76.3z"/>
		<path class="st1" d="M430.49,76.84c0-3.16,2.44-5.6,5.6-5.6h22.57c7.95,0,14.17,2.35,18.24,6.32c3.34,3.43,5.24,8.12,5.24,13.63
			v0.18c0,10.11-5.87,16.25-14.36,18.87l12.1,15.26c1.08,1.35,1.81,2.53,1.81,4.24c0,3.07-2.62,5.15-5.33,5.15
			c-2.53,0-4.15-1.17-5.42-2.89l-15.35-19.59h-13.99v16.97c0,3.07-2.44,5.51-5.51,5.51c-3.16,0-5.6-2.44-5.6-5.51V76.84z
			 M457.84,102.57c7.95,0,13-4.15,13-10.56v-0.18c0-6.77-4.88-10.47-13.09-10.47h-16.16v21.22H457.84z"/>
	</g>
	<g>
		<path class="st2" d="M109.09,116.57h20.78l-14.77-15.04l-28.4-0.02c-18.97,0-34.22,15.69-34.22,35.26v32.75H115l14.58-14.86
			h-20.49V116.57z"/>
		<circle class="st2" cx="115.14" cy="66.98" r="26.95"/>
		<polygon class="st2" points="158.18,101.71 146.3,101.71 133.34,101.71 147.94,116.57 157.64,126.45 139.58,126.45 119.76,126.45 
			119.77,144.78 139.28,144.78 157.49,144.78 147.8,154.66 133.21,169.52 158.05,169.52 177.91,149.28 191.4,135.54 		"/>
	</g>
</g>
</svg>
