<svg id="Capa_1" data-name="Capa 1" xmlns="http://www.w3.org/2000/svg" viewBox="0 0 265 295.77"><defs><style>.cls-1{fill:#6dc1ec;}.cls-2{fill:#fff;}.cls-3{fill:#12487e;stroke:#12487e;stroke-miterlimit:10;}</style></defs><title>_minutas</title><circle class="cls-1" cx="132.5" cy="132.5" r="132.5"/><path class="cls-2" d="M60.43,63.5a5.65,5.65,0,0,0,7.72-1C84.4,42.06,109,30.33,135.75,30.33s51.35,11.73,67.6,32.17a5.55,5.55,0,0,0,4.38,2.08,5.66,5.66,0,0,0,3.34-1.08,5.16,5.16,0,0,0,1-7.42C193.76,33,165.93,19.75,135.75,19.75S77.74,33,59.4,56.08A5.16,5.16,0,0,0,60.43,63.5Z" transform="translate(-1 -0.5)"/><path class="cls-2" d="M194.29,91.72c0,9.11,7.72,16.52,17.2,16.52s17.2-7.41,17.2-16.52S221,75.2,211.49,75.2s-17.2,7.41-17.2,16.52Z" transform="translate(-1 -0.5)"/><path class="cls-2" d="M229.09,113.73l-4.37-1.29a5.33,5.33,0,0,0-4.59.76l-8.64,6.22-8.64-6.22a5.34,5.34,0,0,0-4.59-.76l-4.37,1.29a16.41,16.41,0,0,0-11.66,15.54v25a4.82,4.82,0,0,0,.84,2.71l8.72,12.75v33.48a5,5,0,0,0,5.14,4.93h29.12a5,5,0,0,0,5.14-4.93V169.71L239.91,157a4.82,4.82,0,0,0,.84-2.71v-25a16.41,16.41,0,0,0-11.66-15.54Z" transform="translate(-1 -0.5)"/><path class="cls-2" d="M60,108.24c9.48,0,17.2-7.41,17.2-16.52S69.49,75.2,60,75.2s-17.2,7.41-17.2,16.52S50.53,108.24,60,108.24Z" transform="translate(-1 -0.5)"/><path class="cls-2" d="M77.61,113.73l-4.37-1.29a5.34,5.34,0,0,0-4.59.76L60,119.42l-8.64-6.22a5.33,5.33,0,0,0-4.59-.76l-4.37,1.29a16.43,16.43,0,0,0-11.66,15.54v25A4.75,4.75,0,0,0,31.6,157l8.72,12.75v33.48a5,5,0,0,0,5.14,4.93H74.57a5,5,0,0,0,5.14-4.93V169.71L88.43,157a4.82,4.82,0,0,0,.84-2.71v-25A16.41,16.41,0,0,0,77.61,113.73Z" transform="translate(-1 -0.5)"/><path class="cls-2" d="M157.93,68.43c0-11.75-10-21.31-22.18-21.31s-22.18,9.56-22.18,21.31,10,21.32,22.18,21.32S157.93,80.18,157.93,68.43Z" transform="translate(-1 -0.5)"/><path class="cls-2" d="M160.12,100.07h0l-6.33-1.86a2,2,0,0,0-2.43,1.16L138,134.45a2.44,2.44,0,0,1-4.52,0L120.18,99.36a2,2,0,0,0-1.85-1.25c-.19,0-6.9,2-6.9,2A19,19,0,0,0,97.94,118v37.12a1.85,1.85,0,0,0,.32,1l13.89,20.31v51.39a1.93,1.93,0,0,0,2,1.89h43.26a1.93,1.93,0,0,0,2-1.89V176.47l13.89-20.31a1.86,1.86,0,0,0,.33-1V117.9a18.87,18.87,0,0,0-13.45-17.83Z" transform="translate(-1 -0.5)"/><path class="cls-2" d="M141,99.34a3,3,0,0,0-2.17-.87h-6.06a3,3,0,0,0-2.17.87,2.61,2.61,0,0,0-.37,3.18l3.24,4.7-1.52,12.3,3,7.65a.93.93,0,0,0,1.72,0l3-7.65-1.52-12.3,3.24-4.7a2.61,2.61,0,0,0-.37-3.18Z" transform="translate(-1 -0.5)"/><path class="cls-3" d="M46.67,295.17a1.38,1.38,0,0,1-.5-1.07v-20a2.06,2.06,0,0,1,.73-1.56,2.55,2.55,0,0,1,1.76-.65h1.26a2.54,2.54,0,0,1,1.4.4,2.49,2.49,0,0,1,.93,1l8.68,18.93,8.69-18.93a2.49,2.49,0,0,1,.93-1,2.54,2.54,0,0,1,1.4-.4h1.26a2.57,2.57,0,0,1,1.76.65,2.06,2.06,0,0,1,.73,1.56v20a1.38,1.38,0,0,1-.5,1.07,1.78,1.78,0,0,1-1.22.43,1.88,1.88,0,0,1-1.25-.43,1.36,1.36,0,0,1-.51-1.07v-19l-8.84,19.1a2.38,2.38,0,0,1-1,1,3.05,3.05,0,0,1-2.95,0,2.38,2.38,0,0,1-1-1l-8.84-19.1v19a1.36,1.36,0,0,1-.51,1.07,1.88,1.88,0,0,1-1.25.43A1.78,1.78,0,0,1,46.67,295.17Z" transform="translate(-1 -0.5)"/><path class="cls-3" d="M83.61,295.17a1.38,1.38,0,0,1-.5-1.07V273.46a1.43,1.43,0,0,1,.5-1.09,1.75,1.75,0,0,1,1.22-.45,1.85,1.85,0,0,1,1.25.45,1.41,1.41,0,0,1,.51,1.09V294.1a1.36,1.36,0,0,1-.51,1.07,1.88,1.88,0,0,1-1.25.43A1.78,1.78,0,0,1,83.61,295.17Z" transform="translate(-1 -0.5)"/><path class="cls-3" d="M94.51,295.17a1.38,1.38,0,0,1-.5-1.07v-20a2,2,0,0,1,.73-1.56,2.55,2.55,0,0,1,1.76-.65H97a2.71,2.71,0,0,1,2.1,1l14.72,18.6V273.46a1.43,1.43,0,0,1,.5-1.09,1.75,1.75,0,0,1,1.22-.45,1.85,1.85,0,0,1,1.25.45,1.41,1.41,0,0,1,.51,1.09v20a2,2,0,0,1-.74,1.54,2.67,2.67,0,0,1-1.78.63h-.46a2.65,2.65,0,0,1-1.15-.25,2.56,2.56,0,0,1-.88-.65L97.49,276v18.1a1.36,1.36,0,0,1-.51,1.07,1.88,1.88,0,0,1-1.25.43A1.78,1.78,0,0,1,94.51,295.17Z" transform="translate(-1 -0.5)"/><path class="cls-3" d="M130.27,294.77a9.63,9.63,0,0,1-4.13-3.06,7.9,7.9,0,0,1-1.61-5V273.46a1.4,1.4,0,0,1,.5-1.09,1.75,1.75,0,0,1,1.22-.45,1.82,1.82,0,0,1,1.24.45,1.39,1.39,0,0,1,.52,1.09v13.31a5.51,5.51,0,0,0,1.05,3.41,6.43,6.43,0,0,0,2.77,2.11,10,10,0,0,0,7.35,0,6.43,6.43,0,0,0,2.77-2.11,5.51,5.51,0,0,0,1.05-3.41V273.46a1.43,1.43,0,0,1,.5-1.09,1.75,1.75,0,0,1,1.22-.45,1.82,1.82,0,0,1,1.24.45,1.39,1.39,0,0,1,.52,1.09v13.21a8,8,0,0,1-1.61,5,9.63,9.63,0,0,1-4.13,3.06,14.2,14.2,0,0,1-10.47,0Z" transform="translate(-1 -0.5)"/><path class="cls-3" d="M160.4,295.17a1.38,1.38,0,0,1-.5-1.07V274.93h-7.8a1.68,1.68,0,0,1-1.15-.4,1.29,1.29,0,0,1-.45-1,1.34,1.34,0,0,1,.45-1,1.65,1.65,0,0,1,1.15-.42h19.05a1.71,1.71,0,0,1,1.16.42,1.31,1.31,0,0,1,.48,1,1.25,1.25,0,0,1-.48,1,1.74,1.74,0,0,1-1.16.4h-7.77V294.1a1.36,1.36,0,0,1-.51,1.07,1.88,1.88,0,0,1-1.25.43A1.78,1.78,0,0,1,160.4,295.17Z" transform="translate(-1 -0.5)"/><path class="cls-3" d="M173.31,295.17a1.39,1.39,0,0,1-.48-1.07,1.6,1.6,0,0,1,.19-.67l9.75-20.14a2.54,2.54,0,0,1,.86-1,2.3,2.3,0,0,1,1.36-.39h.38a2.3,2.3,0,0,1,1.36.39,2.63,2.63,0,0,1,.86,1l9.75,20.14a1.6,1.6,0,0,1,.19.67,1.39,1.39,0,0,1-.48,1.07,1.75,1.75,0,0,1-1.24.43,1.87,1.87,0,0,1-1-.25,1.63,1.63,0,0,1-.67-.68l-2.49-5.22h-13l-2.49,5.22a1.63,1.63,0,0,1-.67.68,1.87,1.87,0,0,1-1,.25A1.77,1.77,0,0,1,173.31,295.17Zm6.71-8.5h10.32l-5.16-10.87Z" transform="translate(-1 -0.5)"/><path class="cls-3" d="M202.46,294.16a1.66,1.66,0,0,1-.76-.55,1.28,1.28,0,0,1,.13-1.8,1.58,1.58,0,0,1,1.13-.42,2,2,0,0,1,.73.13,20.39,20.39,0,0,0,7.53,1.37q6.69,0,6.69-3.84a2,2,0,0,0-.86-1.68,6.67,6.67,0,0,0-2.12-1.05c-.84-.26-2-.56-3.59-.92q-3.1-.7-5-1.35a8.93,8.93,0,0,1-3.29-2,4.56,4.56,0,0,1-1.38-3.48,5.67,5.67,0,0,1,1.15-3.46,7.72,7.72,0,0,1,3.38-2.48,14.21,14.21,0,0,1,5.38-.92,24.49,24.49,0,0,1,7.61,1.11,1.33,1.33,0,0,1,1.07,1.34,1.38,1.38,0,0,1-.42,1,1.48,1.48,0,0,1-1.11.43,1.85,1.85,0,0,1-.61-.13,20.93,20.93,0,0,0-6.16-.91,10.49,10.49,0,0,0-4.92,1,3.08,3.08,0,0,0-1.89,2.81,2.42,2.42,0,0,0,.9,1.95,6.44,6.44,0,0,0,2.26,1.17,37.64,37.64,0,0,0,3.69.89,42.39,42.39,0,0,1,4.87,1.27,8,8,0,0,1,3.18,2,4.94,4.94,0,0,1,1.32,3.62,5.13,5.13,0,0,1-1.23,3.36,7.88,7.88,0,0,1-3.44,2.32,14.43,14.43,0,0,1-5.12.84A25.56,25.56,0,0,1,202.46,294.16Z" transform="translate(-1 -0.5)"/></svg>