<?xml version="1.0" encoding="utf-8"?>
<!-- Generator: Adobe Illustrator 23.0.3, SVG Export Plug-In . SVG Version: 6.00 Build 0)  -->
<svg version="1.1" id="Layer_1" xmlns="http://www.w3.org/2000/svg" xmlns:xlink="http://www.w3.org/1999/xlink" x="0px" y="0px"
	 viewBox="0 0 598 515" style="enable-background:new 0 0 598 515;" xml:space="preserve">
<style type="text/css">
	.st0{fill:#6CC1EC;}
	.st1{fill:#10487B;stroke:#10487B;stroke-miterlimit:10;}
	.st2{fill:#FFFFFF;}
</style>
<circle class="st0" cx="299.1" cy="232.6" r="218.5"/>
<g>
	<path class="st1" d="M15.6,470.7c0-1.9,1.5-3.5,3.5-3.5c1.9,0,3.5,1.5,3.5,3.5v33.4c0,1.9-1.5,3.5-3.5,3.5c-2,0-3.5-1.5-3.5-3.5
		V470.7z"/>
	<path class="st1" d="M30.3,470.8c0-1.9,1.5-3.5,3.5-3.5h0.7c1.7,0,2.7,0.9,3.6,2l19.9,25.7v-24.4c0-1.9,1.5-3.4,3.4-3.4
		c1.9,0,3.5,1.5,3.5,3.4v33.4c0,1.9-1.5,3.5-3.4,3.5h-0.3c-1.6,0-2.7-0.9-3.6-2.1l-20.5-26.5v25.2c0,1.9-1.5,3.4-3.4,3.4
		c-1.9,0-3.5-1.5-3.5-3.4V470.8z"/>
	<path class="st1" d="M70.6,487.5v-0.1c0-11.1,8.5-20.6,20.5-20.6c6,0,9.9,1.4,13.6,4c0.7,0.5,1.4,1.5,1.4,2.8
		c0,1.9-1.5,3.5-3.5,3.5c-0.9,0-1.6-0.4-2.2-0.8c-2.6-1.9-5.3-3.1-9.7-3.1c-7.3,0-12.9,6.4-12.9,14v0.1c0,8.2,5.4,14.2,13.5,14.2
		c3.8,0,7.2-1.2,9.6-3v-7.4h-7.8c-1.7,0-3.1-1.3-3.1-3c0-1.7,1.4-3.1,3.1-3.1h11.1c2,0,3.5,1.5,3.5,3.5v10.6c0,2-0.8,3.4-2.4,4.4
		c-3.4,2.3-8.2,4.3-14.1,4.3C78.8,508,70.6,499.1,70.6,487.5z"/>
	<path class="st1" d="M114.1,471c0-2,1.5-3.5,3.5-3.5h14.2c5,0,8.9,1.5,11.5,4c2.1,2.2,3.3,5.1,3.3,8.6v0.1c0,6.4-3.7,10.2-9,11.9
		l7.6,9.6c0.7,0.9,1.1,1.6,1.1,2.7c0,1.9-1.6,3.2-3.4,3.2c-1.6,0-2.6-0.7-3.4-1.8l-9.7-12.3h-8.8v10.7c0,1.9-1.5,3.5-3.5,3.5
		c-2,0-3.5-1.5-3.5-3.5V471z M131.3,487.2c5,0,8.2-2.6,8.2-6.6v-0.1c0-4.3-3.1-6.6-8.2-6.6h-10.2v13.4H131.3z"/>
	<path class="st1" d="M152.3,503.8V471c0-2,1.5-3.5,3.5-3.5H179c1.7,0,3.1,1.4,3.1,3.1c0,1.8-1.4,3.1-3.1,3.1h-19.7v10.3h17.1
		c1.7,0,3.1,1.4,3.1,3.2c0,1.7-1.4,3.1-3.1,3.1h-17.1V501h19.9c1.7,0,3.1,1.4,3.1,3.1c0,1.8-1.4,3.1-3.1,3.1h-23.4
		C153.9,507.3,152.3,505.8,152.3,503.8z"/>
	<path class="st1" d="M186.5,502.9c-0.8-0.6-1.4-1.5-1.4-2.7c0-1.8,1.5-3.2,3.3-3.2c1,0,1.6,0.3,2,0.6c3.3,2.6,6.8,4.1,11.1,4.1
		c4.3,0,7-2,7-5v-0.1c0-2.8-1.6-4.4-9-6.1c-8.5-2-13.2-4.5-13.2-11.9v-0.1c0-6.8,5.7-11.5,13.6-11.5c5,0,9,1.3,12.6,3.7
		c0.8,0.5,1.5,1.4,1.5,2.8c0,1.8-1.5,3.2-3.3,3.2c-0.7,0-1.2-0.2-1.8-0.5c-3.1-2-6-3-9.1-3c-4.1,0-6.5,2.1-6.5,4.7v0.1
		c0,3.1,1.8,4.4,9.5,6.3c8.4,2,12.7,5.1,12.7,11.6v0.1c0,7.4-5.9,11.9-14.2,11.9C196.1,507.9,191,506.2,186.5,502.9z"/>
	<path class="st1" d="M218.8,502.7l14.8-33c0.8-1.8,2.2-2.8,4.2-2.8h0.3c2,0,3.4,1.1,4.1,2.8l14.8,33c0.3,0.5,0.4,1,0.4,1.5
		c0,1.9-1.4,3.4-3.3,3.4c-1.6,0-2.8-1-3.4-2.4l-3.2-7.4h-19.3l-3.4,7.7c-0.6,1.4-1.8,2.2-3.2,2.2c-1.8,0-3.2-1.4-3.2-3.2
		C218.4,503.8,218.5,503.3,218.8,502.7z M244.8,491.5l-7-16.1l-7,16.1H244.8z"/>
	<path class="st1" d="M286.1,474h-9.7c-1.8,0-3.2-1.5-3.2-3.2c0-1.8,1.4-3.2,3.2-3.2h26.4c1.8,0,3.2,1.5,3.2,3.2
		c0,1.8-1.4,3.2-3.2,3.2h-9.7v30.1c0,1.9-1.6,3.5-3.5,3.5c-1.9,0-3.5-1.5-3.5-3.5V474z"/>
	<path class="st1" d="M309.7,490.4v-19.7c0-1.9,1.5-3.5,3.5-3.5c1.9,0,3.5,1.5,3.5,3.5v19.4c0,7.4,3.8,11.3,10.1,11.3
		c6.2,0,10-3.7,10-11v-19.7c0-1.9,1.5-3.5,3.5-3.5c1.9,0,3.5,1.5,3.5,3.5v19.4c0,11.9-6.7,17.8-17.1,17.8
		C316.3,507.9,309.7,502,309.7,490.4z"/>
	<path class="st1" d="M363,487.5v-0.1c0-11.3,8.5-20.6,20.5-20.6c6.1,0,10.2,1.8,13.6,4.5c0.7,0.6,1.4,1.5,1.4,2.8
		c0,1.9-1.5,3.4-3.5,3.4c-1,0-1.6-0.3-2.1-0.7c-2.7-2.2-5.7-3.6-9.5-3.6c-7.6,0-13.1,6.2-13.1,14v0.1c0,7.8,5.5,14.1,13.1,14.1
		c4.2,0,7-1.4,9.9-3.8c0.5-0.5,1.3-0.8,2.1-0.8c1.8,0,3.3,1.5,3.3,3.2c0,1.1-0.5,1.9-1.1,2.5c-3.8,3.3-8,5.3-14.4,5.3
		C371.6,508,363,498.9,363,487.5z"/>
	<path class="st1" d="M402.1,487.5v-0.1c0-11.2,8.6-20.6,20.9-20.6s20.7,9.3,20.7,20.5v0.1c0,11.2-8.6,20.6-20.9,20.6
		C410.6,508,402.1,498.7,402.1,487.5z M436.3,487.5v-0.1c0-7.7-5.6-14.1-13.5-14.1c-7.9,0-13.4,6.3-13.4,14v0.1
		c0,7.7,5.6,14.1,13.5,14.1S436.3,495.2,436.3,487.5z M420.9,462.7c0-0.4,0.2-0.9,0.5-1.2l3.2-5c0.6-1,1.5-1.6,2.7-1.6
		c1.8,0,4.1,1.1,4.1,2.2c0,0.6-0.4,1.2-1,1.7l-3.8,3.6c-1.4,1.2-2.4,1.5-4,1.5C421.7,463.9,420.9,463.5,420.9,462.7z"/>
	<path class="st1" d="M449.3,471c0-2,1.5-3.5,3.5-3.5h11.3c12.5,0,21.1,8.6,21.1,19.8v0.1c0,11.2-8.6,19.9-21.1,19.9h-11.3
		c-2,0-3.5-1.5-3.5-3.5V471z M464.1,500.9c8.4,0,13.8-5.6,13.8-13.4v-0.1c0-7.8-5.5-13.5-13.8-13.5h-7.8v27H464.1z"/>
	<path class="st1" d="M491.3,470.7c0-1.9,1.5-3.5,3.5-3.5c1.9,0,3.5,1.5,3.5,3.5v33.4c0,1.9-1.5,3.5-3.5,3.5c-2,0-3.5-1.5-3.5-3.5
		V470.7z"/>
	<path class="st1" d="M504.3,487.5v-0.1c0-11.1,8.5-20.6,20.5-20.6c6,0,9.9,1.4,13.6,4c0.7,0.5,1.4,1.5,1.4,2.8
		c0,1.9-1.5,3.5-3.5,3.5c-0.9,0-1.6-0.4-2.2-0.8c-2.6-1.9-5.3-3.1-9.7-3.1c-7.3,0-12.9,6.4-12.9,14v0.1c0,8.2,5.4,14.2,13.5,14.2
		c3.8,0,7.2-1.2,9.6-3v-7.4h-7.8c-1.7,0-3.1-1.3-3.1-3c0-1.7,1.4-3.1,3.1-3.1H538c2,0,3.5,1.5,3.5,3.5v10.6c0,2-0.8,3.4-2.4,4.4
		c-3.4,2.3-8.2,4.3-14.1,4.3C512.5,508,504.3,499.1,504.3,487.5z"/>
	<path class="st1" d="M546,487.5v-0.1c0-11.2,8.6-20.6,20.9-20.6s20.7,9.3,20.7,20.5v0.1c0,11.2-8.6,20.6-20.9,20.6
		C554.5,508,546,498.7,546,487.5z M580.2,487.5v-0.1c0-7.7-5.6-14.1-13.5-14.1c-7.9,0-13.4,6.3-13.4,14v0.1
		c0,7.7,5.6,14.1,13.5,14.1S580.2,495.2,580.2,487.5z"/>
</g>
<g>
	<g>
		<g>
			<path class="st2" d="M425.1,119H146.6c-8.8,0-16,7.2-16,16v91.1c0,8.8,7.2,16,16,16h278.4c8.8,0,16-7.2,16-16v-91.1
				C441.1,126.2,433.9,119,425.1,119z M430.4,226.1L430.4,226.1c0,2.9-2.4,5.3-5.3,5.3H146.6c-2.9,0-5.3-2.4-5.3-5.3v-91.1
				c0-2.9,2.4-5.3,5.3-5.3h278.4c2.9,0,5.3,2.4,5.3,5.3V226.1z"/>
			<path class="st2" d="M413.3,317.6l-81.9-66.4c-1.6-1.3-3.9-1.6-5.8-0.6c-1.9,1-3,2.9-2.9,5.1l5.6,105.3c0.1,2.2,1.6,4.2,3.8,4.8
				c2.1,0.6,4.5-0.1,5.8-1.9c0.1-0.1,8.3-10.9,17.3-19.9l24.2,47.4c0.6,1.3,1.8,2.2,3.1,2.7c0.5,0.2,1.1,0.3,1.7,0.3
				c0.8,0,1.7-0.2,2.4-0.6l19.1-9.7c1.3-0.6,2.2-1.8,2.7-3.1c0.4-1.3,0.3-2.8-0.3-4.1l-24.2-47.4c12.5-2,26.1-2.3,26.2-2.3
				c2.2-0.1,4.2-1.5,5-3.6C415.7,321.4,415,319,413.3,317.6z M374.6,320.3c-1.6,0.4-3,1.5-3.7,2.9c-0.7,1.5-0.7,3.2,0.1,4.7l25,49
				l-9.5,4.9l-25-49c-0.7-1.5-2.1-2.5-3.8-2.8c-0.3-0.1-0.7-0.1-1-0.1c-1.3,0-2.5,0.5-3.5,1.3c-5.3,4.6-10.7,10.4-15,15.4l-4.2-79.5
				l61.8,50.1C389.3,317.8,381.4,318.7,374.6,320.3z"/>
			<g>
				<path class="st2" d="M177.1,179.1V179c0-13.9,8.6-24.8,21.4-24.8c12.7,0,21.3,10.8,21.3,24.7v0.1c0,13.9-8.6,24.8-21.4,24.8
					S177.1,193,177.1,179.1z M208.9,179.1V179c0-8.7-4.3-15.3-10.6-15.3c-6.3,0-10.4,6.4-10.4,15.2v0.1c0,8.8,4.2,15.3,10.6,15.3
					S208.9,187.8,208.9,179.1z"/>
				<path class="st2" d="M228.5,192.7l13.7-11.2c6-4.9,8.3-7.5,8.3-11.5c0-4-2.7-6.2-6.4-6.2c-3,0-5.1,1.3-7.8,4.2
					c-0.7,0.8-1.9,1.5-3.6,1.5c-2.7,0-4.8-2.1-4.8-4.8c0-1.2,0.5-2.4,1.2-3.3c3.8-4.5,8.4-7.1,15.6-7.1c10,0,16.5,5.8,16.5,14.8v0.1
					c0,8-4.1,12-12.6,18.6l-7.8,6h16.7c2.5,0,4.6,2.1,4.6,4.6c0,2.5-2.1,4.5-4.6,4.5h-26.1c-3.3,0-5.7-1.9-5.7-5
					C225.7,195.9,226.7,194.1,228.5,192.7z"/>
				<path class="st2" d="M271,198.3c-1-0.8-1.8-2.3-1.8-3.8c0-2.7,2.3-5.1,5.1-5.1c1.5,0,2.5,0.6,3.4,1.3c2.7,2.3,5.6,3.6,9.4,3.6
					c4,0,6.8-2.3,6.8-5.8v-0.1c0-3.9-3.5-6.1-9.4-6.1h-1.6c-2.5,0-4.5-2.1-4.5-4.5c0-1.4,0.6-2.7,2.3-4.3l9.3-9.4h-14.8
					c-2.5,0-4.5-2.1-4.5-4.5c0-2.5,2.1-4.5,4.5-4.5h23.4c3.1,0,5.4,1.8,5.4,4.7c0,2.6-1.2,4-3.2,5.9l-9.4,9
					c6.5,1.1,12.9,4.5,12.9,13.4v0.1c0,9.1-6.6,15.7-17.3,15.7C280,203.8,274.9,201.7,271,198.3z"/>
				<path class="st2" d="M335.5,192.6h-19.8c-2.8,0-5.1-2.1-5.1-4.9c0-2.2,0.9-3.9,2.5-5.8l20.9-24.2c2-2.3,3.5-3.6,6.6-3.6
					c2.8,0,5.1,2.2,5.1,5V184h2.5c2.4,0,4.3,1.9,4.3,4.3c0,2.4-1.9,4.3-4.3,4.3h-2.5v5.8c0,2.8-2.3,5-5.1,5c-2.8,0-5-2.2-5-5V192.6z
					 M335.5,184v-15l-12.8,15H335.5z"/>
				<path class="st2" d="M361.6,199.3c-1.2-0.9-2.1-2.3-2.1-4c0-2.7,2.3-5.1,5-5.1c1.2,0,2.1,0.3,2.9,1c3,2.1,5.8,3.1,9.1,3.1
					c4.5,0,7.8-2.4,7.8-6.7v-0.1c0-4.1-3.5-6.5-8.5-6.5c-4,0-5.8,1.2-7.3,1.2c-1.5,0-2.7-0.6-4.8-2.1c-1.4-1-2.1-2.5-1.9-4.3l1-16.3
					c0.1-2.5,2.1-4.5,4.7-4.5h20.9c2.5,0,4.7,2.1,4.7,4.7c0,2.5-2.1,4.6-4.7,4.6H372l-0.5,8.3c1.9-0.5,3.6-0.8,6.3-0.8
					c9.5,0,16.8,4.5,16.8,15.4v0.1c0,10.2-7.3,16.6-17.9,16.6C370.1,203.8,365.5,202,361.6,199.3z"/>
			</g>
		</g>
	</g>
</g>
</svg>
